<?xml version="1.0" encoding="UTF-8" standalone="no"?>
<svg width="17px" height="19px" viewBox="0 0 17 19" version="1.1" xmlns="http://www.w3.org/2000/svg" xmlns:xlink="http://www.w3.org/1999/xlink">
    <!-- Generator: Sketch 41 (35326) - http://www.bohemiancoding.com/sketch -->
    <title>Group 17</title>
    <desc>Created with Sketch.</desc>
    <defs></defs>
    <g id="Page-1" stroke="none" stroke-width="1" fill="none" fill-rule="evenodd">
        <g id="Home_Smyrooms" transform="translate(-863.000000, -6735.000000)" fill="#1F3A53">
            <g id="Group-36" transform="translate(330.000000, 6557.000000)">
                <g id="Group-18" transform="translate(533.000000, 178.000000)">
                    <g id="Group-35">
                        <g id="Group-33">
                            <g id="Group-6">
                                <g id="Group-17">
                                    <path d="M2.19209788,0 C3.40043278,0 4.38242609,0.981993311 4.38242609,2.19085911 C4.38242609,3.40060974 3.40043278,4.38295699 2.19209788,4.38295699 C0.98057757,4.38295699 0,3.40060974 0,2.19085911 C0,0.981993311 0.98057757,0 2.19209788,0 L2.19209788,0 Z M0.301375853,18.2067825 L4.0812272,18.2067825 L4.0812272,6.04539079 L0.301375853,6.04539079 L0.301375853,18.2067825 Z" id="Fill-4"></path>
                                    <path d="M6.29295373,7.2670699 L9.49295089,7.2670699 L9.49295089,8.73345544 L9.53730636,8.73345544 C9.98242286,7.88976445 11.0705375,7 12.6934166,7 C16.0713042,7 16.6949358,9.2229274 16.6949358,12.1127486 L16.6949358,18 L13.3614037,18 L13.3614037,12.7805796 C13.3614037,11.5353467 13.3386012,9.93448907 11.6281044,9.93448907 C9.89215011,9.93448907 9.62632966,11.2904545 9.62632966,12.690463 L9.62632966,18 L6.29295373,18 L6.29295373,7.2670699" id="Fill-5"></path>
                                </g>
                            </g>
                        </g>
                    </g>
                </g>
            </g>
        </g>
    </g>
</svg>