<?xml version="1.0" encoding="UTF-8" standalone="no"?>
<svg width="19px" height="16px" viewBox="0 0 19 16" version="1.1" xmlns="http://www.w3.org/2000/svg" xmlns:xlink="http://www.w3.org/1999/xlink">
    <!-- Generator: Sketch 41 (35326) - http://www.bohemiancoding.com/sketch -->
    <title>Shape Copy</title>
    <desc>Created with Sketch.</desc>
    <defs></defs>
    <g id="Page-1" stroke="none" stroke-width="1" fill="none" fill-rule="evenodd">
        <g id="Home_Smyrooms" transform="translate(-918.000000, -6737.000000)" fill="#1F3A53">
            <g id="Group-36" transform="translate(330.000000, 6557.000000)">
                <g id="Group-18" transform="translate(533.000000, 178.000000)">
                    <g id="Group-35">
                        <g id="Group-33">
                            <g id="Group-6">
                                <path d="M71.5597128,4.52953922 C72.355196,4.03033367 72.9655806,3.23876932 73.2520427,2.29582551 C72.5072412,2.75920844 71.6842136,3.09432327 70.8060971,3.27574751 C70.1053667,2.489961 69.1038512,2 67.9954632,2 C65.869033,2 64.1458533,3.80846454 64.1458533,6.03871154 C64.1458533,6.35533728 64.1778049,6.66387404 64.2439115,6.95854398 C61.0443502,6.789831 58.2072737,5.18359093 56.3067079,2.7384082 C55.9750729,3.33699263 55.7855672,4.03033367 55.7855672,4.76989744 C55.7855672,6.17044634 56.4653638,7.40690452 57.4988309,8.13260147 C56.8675125,8.11180124 56.2736546,7.92806587 55.7536157,7.62761808 L55.7536157,7.67730753 C55.7536157,9.63484039 57.0801555,11.2676585 58.844101,11.6374404 C58.5201785,11.732197 58.1808311,11.7795753 57.8282623,11.7795753 C57.5803624,11.7795753 57.3379714,11.7553084 57.1043946,11.7079301 C57.5935838,13.311859 59.0159782,14.4812942 60.7016975,14.5124946 C59.3828701,15.5964177 57.7224917,16.2412249 55.9188823,16.2412249 C55.6081811,16.2412249 55.3007852,16.2238914 55,16.1857576 C56.7044495,17.3309259 58.7284144,18 60.9033228,18 C67.9877508,18 71.8593962,11.8454427 71.8593962,6.50787231 C71.8593962,6.33222591 71.8571926,6.15773509 71.8494802,5.9855554 C72.6019941,5.41586018 73.2564498,4.70403004 73.7709798,3.8939766 C73.0801654,4.21522461 72.3375675,4.43247147 71.5597128,4.52953922 Z" id="Shape-Copy"></path>
                            </g>
                        </g>
                    </g>
                </g>
            </g>
        </g>
    </g>
</svg>