<?xml version="1.0" encoding="UTF-8" standalone="no"?>
<svg width="93px" height="93px" viewBox="0 0 93 93" version="1.1" xmlns="http://www.w3.org/2000/svg" xmlns:xlink="http://www.w3.org/1999/xlink">
    <!-- Generator: Sketch 41 (35326) - http://www.bohemiancoding.com/sketch -->
    <title>Group 42</title>
    <desc>Created with Sketch.</desc>
    <defs>
        <ellipse id="path-1" cx="46.5" cy="46.5" rx="46.5" ry="46.5"></ellipse>
        <mask id="mask-2" maskContentUnits="userSpaceOnUse" maskUnits="objectBoundingBox" x="0" y="0" width="93" height="93" fill="white">
            <use xlink:href="#path-1"></use>
        </mask>
    </defs>
    <g id="Page-1" stroke="none" stroke-width="1" fill="none" fill-rule="evenodd">
        <g id="Home_Smyrooms" transform="translate(-1147.000000, -1269.000000)">
            <g id="Group-37" transform="translate(396.000000, 940.000000)">
                <g id="Group-42" transform="translate(751.000000, 329.000000)">
                    <use id="Oval-3-Copy-3" stroke="#0084FF" mask="url(#mask-2)" stroke-width="2" xlink:href="#path-1"></use>
                    <g id="noun_22699_cc" transform="translate(34.000000, 29.000000)" fill="#0084FF">
                        <g id="Group">
                            <g id="Group-15">
                                <g>
                                    <path d="M13.0513983,18.6318947 C9.42021818,18.6318947 6.46595702,15.6922105 6.46595702,12.0789474 C6.46595702,8.46568421 9.42021818,5.52647368 13.0513983,5.52647368 C16.6825785,5.52647368 19.6363636,8.46568421 19.6363636,12.0789474 C19.6363636,15.6922105 16.6825785,18.6318947 13.0513983,18.6318947 Z M13.0513983,6.94752632 C10.2075769,6.94752632 7.8940562,9.24963158 7.8940562,12.0789474 C7.8940562,14.9082632 10.2075769,17.2103684 13.0513983,17.2103684 C15.8952198,17.2103684 18.2082645,14.9087368 18.2082645,12.0789474 C18.2082645,9.24915789 15.8952198,6.94752632 13.0513983,6.94752632 Z" id="Shape"></path>
                                    <path d="M13.1004298,35.8218947 L13.1004298,35.8218947 C11.3338711,35.8218947 10.0195438,34.1398421 9.3930843,33.1370526 C5.22684298,25.8503684 0.277527273,16.1005263 0.277527273,10.8947368 C0.277527273,5.04094737 6.00801322,0.278526316 13.0513983,0.278526316 C19.9752992,0.278526316 25.8247934,5.14042105 25.8247934,10.8947368 C25.8247934,15.9408947 21.052086,25.443 17.0476959,32.5250526 C15.8776066,34.7077895 14.5475702,35.8218947 13.1004298,35.8218947 Z M13.0513983,1.69957895 C6.79489587,1.69957895 1.70562645,5.82442105 1.70562645,10.8947368 C1.70562645,16.0479474 7.29044628,26.5869474 10.6202975,32.4108947 C10.9844628,32.9925789 11.9846083,34.4008421 13.1004298,34.4008421 C14.1948298,34.4008421 15.1702215,33.0091579 15.7957289,31.8424737 C21.3448463,22.0263158 24.3966942,14.5918421 24.3966942,10.8947368 C24.3966942,5.99636842 19.095114,1.69957895 13.0513983,1.69957895 Z" id="Shape"></path>
                                </g>
                            </g>
                        </g>
                    </g>
                </g>
            </g>
        </g>
    </g>
</svg>