<?xml version="1.0" encoding="UTF-8" standalone="no"?>
<!-- Created with Inkscape (http://www.inkscape.org/) -->

<svg
   xmlns:dc="http://purl.org/dc/elements/1.1/"
   xmlns:cc="http://creativecommons.org/ns#"
   xmlns:rdf="http://www.w3.org/1999/02/22-rdf-syntax-ns#"
   xmlns:svg="http://www.w3.org/2000/svg"
   xmlns="http://www.w3.org/2000/svg"
   xmlns:sodipodi="http://sodipodi.sourceforge.net/DTD/sodipodi-0.dtd"
   xmlns:inkscape="http://www.inkscape.org/namespaces/inkscape"
   width="207.42108mm"
   height="44.833004mm"
   viewBox="0 0 207.42108 44.833004"
   version="1.1"
   id="svg4900"
   inkscape:version="0.92.3 (2405546, 2018-03-11)">
  <defs
     id="defs4894" />
  <sodipodi:namedview
     id="base"
     pagecolor="#ffffff"
     bordercolor="#666666"
     borderopacity="1.0"
     inkscape:pageopacity="0.0"
     inkscape:pageshadow="2"
     inkscape:zoom="0.98994949"
     inkscape:cx="566.36967"
     inkscape:cy="-167.44984"
     inkscape:document-units="mm"
     inkscape:current-layer="layer1"
     showgrid="false"
     inkscape:window-width="2400"
     inkscape:window-height="1271"
     inkscape:window-x="-9"
     inkscape:window-y="-9"
     inkscape:window-maximized="1" />
  <metadata
     id="metadata4897">
    <rdf:RDF>
      <cc:Work
         rdf:about="">
        <dc:format>image/svg+xml</dc:format>
        <dc:type
           rdf:resource="http://purl.org/dc/dcmitype/StillImage" />
        <dc:title></dc:title>
      </cc:Work>
    </rdf:RDF>
  </metadata>
  <g
     inkscape:label="Capa 1"
     inkscape:groupmode="layer"
     id="layer1"
     transform="translate(-1.5936216,-2.5918313)">
    <g
       id="g4069"
       transform="matrix(0.35277777,0,0,-0.35277777,194.10226,24.54621)">
      <path
         d="M 0,0 -36.635,52.56 H -69.712 L -33.458,-0.364 -74.782,-62.492 H -42.73"
         style="fill:#009df5;fill-opacity:1;fill-rule:nonzero;stroke:none"
         id="path4071"
         inkscape:connector-curvature="0" />
    </g>
    <g
       id="g4073"
       transform="matrix(0.35277777,0,0,-0.35277777,209.01471,2.5918313)">
      <path
         d="M 0,0 H -33.057 L -55.827,-33.598 -38.69,-57.24"
         style="fill:#009df5;fill-opacity:1;fill-rule:nonzero;stroke:none"
         id="path4075"
         inkscape:connector-curvature="0" />
    </g>
    <g
       id="g4077"
       transform="matrix(0.35277777,0,0,-0.35277777,195.23983,26.2653)">
      <path
         d="M 0,0 33.058,-48.083 H 26.441 -0.021 l -16.759,24.336"
         style="fill:#009df5;fill-opacity:1;fill-rule:nonzero;stroke:none"
         id="path4079"
         inkscape:connector-curvature="0" />
    </g>
    <g
       id="g4081"
       transform="matrix(0.35277777,0,0,-0.35277777,17.033999,18.42598)">
      <path
         d="M 0,0 H -16.725 V -46.989 H -27.044 V 0 H -43.768 V 8.476 H 0 Z"
         style="fill:#ffffff;fill-opacity:1;fill-rule:nonzero;stroke:none"
         id="path4083"
         inkscape:connector-curvature="0" />
    </g>
    <g
       id="g4085"
       transform="matrix(0.35277777,0,0,-0.35277777,25.517879,24.74567)">
      <path
         d="m 0,0 c 1.943,0 3.639,0.243 5.083,0.729 1.444,0.485 2.633,1.157 3.567,2.013 0.933,0.857 1.631,1.874 2.092,3.05 0.459,1.176 0.69,2.468 0.69,3.875 0,2.812 -0.927,4.973 -2.782,6.481 -1.854,1.51 -4.687,2.264 -8.496,2.264 H -6.443 V 0 Z m 26.543,-29.075 h -9.32 c -1.764,0 -3.043,0.69 -3.836,2.071 L 1.727,-9.245 c -0.435,0.665 -0.915,1.139 -1.438,1.419 -0.525,0.283 -1.299,0.423 -2.322,0.423 h -4.41 V -29.075 H -16.762 V 26.39 H 0.154 c 3.76,0 6.987,-0.39 9.686,-1.169 2.696,-0.78 4.908,-1.874 6.636,-3.281 1.725,-1.406 2.999,-3.086 3.817,-5.043 0.818,-1.957 1.227,-4.111 1.227,-6.463 0,-1.868 -0.276,-3.632 -0.825,-5.295 C 20.145,3.478 19.352,1.969 18.317,0.614 17.281,-0.741 16.002,-1.93 14.48,-2.954 12.959,-3.977 11.227,-4.782 9.283,-5.37 c 0.664,-0.383 1.278,-0.838 1.842,-1.361 0.563,-0.526 1.073,-1.146 1.533,-1.861 z"
         style="fill:#ffffff;fill-opacity:1;fill-rule:nonzero;stroke:none"
         id="path4087"
         inkscape:connector-curvature="0" />
    </g>
    <g
       id="g4089"
       transform="matrix(0.35277777,0,0,-0.35277777,47.344629,27.61439)">
      <path
         d="m 0,0 -6.75,18.451 c -0.334,0.817 -0.679,1.788 -1.037,2.915 -0.358,1.124 -0.717,2.339 -1.074,3.644 -0.332,-1.305 -0.677,-2.526 -1.035,-3.664 -0.359,-1.137 -0.704,-2.128 -1.036,-2.972 L -17.645,0 Z m 18.221,-20.943 h -7.979 c -0.896,0 -1.624,0.224 -2.186,0.67 -0.562,0.448 -0.985,1.004 -1.267,1.669 L 2.646,-7.289 h -22.975 l -4.143,-11.315 c -0.206,-0.588 -0.602,-1.126 -1.19,-1.611 -0.588,-0.486 -1.317,-0.728 -2.187,-0.728 h -8.053 l 21.824,55.465 h 10.512 z"
         style="fill:#ffffff;fill-opacity:1;fill-rule:nonzero;stroke:none"
         id="path4091"
         inkscape:connector-curvature="0" />
    </g>
    <g
       id="g4093"
       transform="matrix(0.35277777,0,0,-0.35277777,71.011749,15.43583)">
      <path
         d="m 0,0 -22.401,-55.465 h -9.321 L -54.123,0 h 8.285 c 0.896,0 1.623,-0.217 2.186,-0.652 0.562,-0.435 0.984,-0.997 1.266,-1.687 l 13.081,-33.832 c 0.434,-1.1 0.849,-2.308 1.245,-3.626 0.397,-1.316 0.774,-2.69 1.133,-4.122 0.306,1.432 0.638,2.806 0.997,4.122 0.358,1.318 0.754,2.526 1.19,3.626 l 13.004,33.832 c 0.204,0.588 0.607,1.124 1.207,1.611 C -9.93,-0.243 -9.193,0 -8.322,0 Z"
         style="fill:#ffffff;fill-opacity:1;fill-rule:nonzero;stroke:none"
         id="path4095"
         inkscape:connector-curvature="0" />
    </g>
    <g
       id="g4097"
       transform="matrix(0.35277777,0,0,-0.35277777,76.694789,18.33161)">
      <path
         d="m 0,0 v -15.382 h 19.41 v -7.939 H 0 v -15.69 h 24.627 v -8.245 H -10.355 V 8.208 H 24.627 V 0 Z"
         style="fill:#ffffff;fill-opacity:1;fill-rule:nonzero;stroke:none"
         id="path4099"
         inkscape:connector-curvature="0" />
    </g>
    <g
       id="g4101"
       transform="matrix(0.35277777,0,0,-0.35277777,100.06423,31.99882)">
      <path
         d="M 0,0 V -8.515 H -32.488 V 46.95 h 10.317 V 0 Z"
         style="fill:#ffffff;fill-opacity:1;fill-rule:nonzero;stroke:none"
         id="path4103"
         inkscape:connector-curvature="0" />
    </g>
    <g
       id="g4105"
       transform="matrix(0.35277777,0,0,-0.35277777,118.10172,25.19197)">
      <path
         d="m 0,0 v -22.44 c -2.813,-2.072 -5.81,-3.586 -8.995,-4.545 -3.184,-0.96 -6.591,-1.439 -10.221,-1.439 -4.527,0 -8.625,0.703 -12.295,2.11 -3.67,1.406 -6.802,3.362 -9.398,5.869 -2.595,2.505 -4.596,5.497 -6.002,8.975 -1.407,3.477 -2.11,7.275 -2.11,11.393 0,4.168 0.677,7.991 2.034,11.47 1.355,3.477 3.279,6.468 5.772,8.975 2.493,2.506 5.517,4.448 9.071,5.829 3.554,1.383 7.543,2.073 11.967,2.073 2.251,0 4.356,-0.18 6.312,-0.537 1.956,-0.359 3.771,-0.851 5.447,-1.478 1.674,-0.626 3.203,-1.387 4.583,-2.281 1.381,-0.896 2.646,-1.88 3.798,-2.955 L -2.992,16.34 c -0.459,-0.742 -1.06,-1.195 -1.803,-1.361 -0.741,-0.167 -1.547,0.018 -2.415,0.556 -0.844,0.485 -1.688,0.971 -2.532,1.456 -0.845,0.487 -1.784,0.909 -2.821,1.267 -1.034,0.357 -2.199,0.652 -3.489,0.883 -1.292,0.23 -2.781,0.344 -4.469,0.344 -2.736,0 -5.21,-0.461 -7.422,-1.381 -2.212,-0.919 -4.098,-2.237 -5.658,-3.95 -1.56,-1.714 -2.762,-3.773 -3.605,-6.175 -0.844,-2.404 -1.267,-5.09 -1.267,-8.056 0,-3.171 0.454,-6.003 1.363,-8.497 0.906,-2.493 2.185,-4.602 3.836,-6.329 1.649,-1.725 3.637,-3.043 5.963,-3.951 2.327,-0.908 4.922,-1.361 7.788,-1.361 2.045,0 3.874,0.216 5.485,0.651 1.611,0.435 3.184,1.023 4.718,1.766 V -7.75 h -6.982 c -0.665,0 -1.182,0.186 -1.552,0.558 -0.372,0.369 -0.556,0.823 -0.556,1.361 V 0 Z"
         style="fill:#ffffff;fill-opacity:1;fill-rule:nonzero;stroke:none"
         id="path4107"
         inkscape:connector-curvature="0" />
    </g>
    <g
       id="g4109"
       transform="matrix(0.35277777,0,0,-0.35277777,131.72847,27.61439)">
      <path
         d="m 0,0 -6.75,18.451 c -0.334,0.817 -0.679,1.788 -1.036,2.915 -0.359,1.124 -0.716,2.339 -1.073,3.644 -0.334,-1.305 -0.679,-2.526 -1.037,-3.664 -0.359,-1.137 -0.704,-2.128 -1.036,-2.972 L -17.645,0 Z m 18.221,-20.943 h -7.979 c -0.895,0 -1.624,0.224 -2.186,0.67 -0.562,0.448 -0.985,1.004 -1.266,1.669 L 2.647,-7.289 h -22.976 l -4.143,-11.315 c -0.206,-0.588 -0.6,-1.126 -1.188,-1.611 -0.59,-0.486 -1.319,-0.728 -2.187,-0.728 h -8.055 l 21.826,55.465 h 10.51 z"
         style="fill:#ffffff;fill-opacity:1;fill-rule:nonzero;stroke:none"
         id="path4111"
         inkscape:connector-curvature="0" />
    </g>
    <g
       id="g4113"
       transform="matrix(0.35277777,0,0,-0.35277777,151.94496,18.42598)">
      <path
         d="M 0,0 H -16.724 V -46.989 H -27.041 V 0 H -43.767 V 8.476 H 0 Z"
         style="fill:#ffffff;fill-opacity:1;fill-rule:nonzero;stroke:none"
         id="path4115"
         inkscape:connector-curvature="0" />
    </g>
    <g
       id="g4117"
       transform="matrix(0.35277777,0,0,-0.35277777,158.16923,18.33161)">
      <path
         d="m 0,0 v -15.382 h 19.41 v -7.939 H 0 v -15.69 h 24.627 v -8.245 H -10.356 V 8.208 H 24.627 V 0 Z"
         style="fill:#ffffff;fill-opacity:1;fill-rule:nonzero;stroke:none"
         id="path4119"
         inkscape:connector-curvature="0" />
    </g>
    <g
       id="g4121"
       transform="matrix(0.35277777,0,0,-0.35277777,13.407689,38.34003)">
      <path
         d="m 0,0 v -20.778 h -1.407 c -0.222,0 -0.408,0.038 -0.558,0.116 -0.15,0.077 -0.298,0.207 -0.442,0.391 l -12.021,15.66 c 0.02,-0.242 0.034,-0.478 0.043,-0.71 0.01,-0.232 0.015,-0.45 0.015,-0.653 v -14.804 h -2.465 V 0 h 1.45 c 0.126,0 0.233,-0.007 0.32,-0.021 0.086,-0.015 0.164,-0.04 0.231,-0.073 0.067,-0.034 0.136,-0.082 0.203,-0.145 0.068,-0.063 0.14,-0.143 0.218,-0.24 l 12.02,-15.645 c -0.019,0.251 -0.036,0.496 -0.05,0.732 -0.015,0.237 -0.022,0.462 -0.022,0.675 V 0 Z"
         style="fill:#ffffff;fill-opacity:1;fill-rule:nonzero;stroke:none"
         id="path4123"
         inkscape:connector-curvature="0" />
    </g>
    <g
       id="g4125"
       transform="matrix(0.35277777,0,0,-0.35277777,18.374839,42.5141)">
      <path
         d="m 0,0 c 0,0.6 -0.085,1.148 -0.254,1.646 -0.17,0.498 -0.416,0.928 -0.74,1.291 -0.323,0.362 -0.718,0.642 -1.182,0.84 -0.464,0.199 -0.99,0.298 -1.58,0.298 -1.237,0 -2.217,-0.361 -2.936,-1.08 C -7.412,2.274 -7.859,1.276 -8.033,0 Z M 2.088,-6.887 C 1.769,-7.274 1.387,-7.61 0.942,-7.895 0.497,-8.18 0.021,-8.415 -0.486,-8.598 -0.994,-8.782 -1.519,-8.92 -2.06,-9.012 c -0.541,-0.092 -1.078,-0.137 -1.609,-0.137 -1.015,0 -1.95,0.171 -2.806,0.514 -0.855,0.343 -1.594,0.846 -2.218,1.509 -0.623,0.662 -1.11,1.48 -1.457,2.457 -0.348,0.977 -0.523,2.098 -0.523,3.364 0,1.025 0.157,1.982 0.472,2.871 0.313,0.89 0.765,1.661 1.355,2.313 0.59,0.652 1.31,1.165 2.161,1.537 0.851,0.372 1.807,0.558 2.871,0.558 0.879,0 1.694,-0.147 2.443,-0.442 C -0.622,5.237 0.026,4.812 0.572,4.256 1.118,3.7 1.546,3.014 1.855,2.197 2.165,1.38 2.319,0.45 2.319,-0.594 2.319,-1 2.276,-1.271 2.189,-1.406 2.102,-1.542 1.937,-1.609 1.696,-1.609 H -8.12 c 0.028,-0.928 0.156,-1.736 0.384,-2.422 0.227,-0.686 0.544,-1.259 0.95,-1.718 0.405,-0.459 0.889,-0.803 1.449,-1.029 0.561,-0.228 1.19,-0.341 1.886,-0.341 0.647,0 1.205,0.075 1.675,0.224 0.468,0.15 0.872,0.312 1.21,0.486 0.338,0.174 0.621,0.336 0.848,0.486 0.228,0.15 0.423,0.225 0.587,0.225 0.213,0 0.377,-0.083 0.493,-0.247 z"
         style="fill:#ffffff;fill-opacity:1;fill-rule:nonzero;stroke:none"
         id="path4127"
         inkscape:connector-curvature="0" />
    </g>
    <g
       id="g4129"
       transform="matrix(0.35277777,0,0,-0.35277777,21.862999,45.75197)">
      <path
         d="M 0,0 C -1.16,0 -2.052,0.324 -2.675,0.971 -3.299,1.619 -3.61,2.552 -3.61,3.77 v 8.99 h -1.769 c -0.155,0 -0.285,0.046 -0.392,0.137 -0.106,0.092 -0.16,0.235 -0.16,0.428 v 1.03 l 2.408,0.305 0.594,4.538 c 0.03,0.145 0.095,0.263 0.196,0.355 0.101,0.092 0.234,0.138 0.399,0.138 h 1.305 V 14.63 H 3.22 V 12.76 H -1.029 V 3.944 c 0,-0.619 0.149,-1.078 0.449,-1.378 0.3,-0.299 0.686,-0.449 1.16,-0.449 0.271,0 0.505,0.036 0.703,0.109 0.198,0.072 0.37,0.152 0.515,0.239 0.145,0.087 0.268,0.167 0.37,0.239 0.102,0.073 0.19,0.109 0.269,0.109 0.134,0 0.255,-0.083 0.362,-0.247 L 3.553,1.334 C 3.108,0.918 2.571,0.592 1.943,0.355 1.314,0.119 0.667,0 0,0"
         style="fill:#ffffff;fill-opacity:1;fill-rule:nonzero;stroke:none"
         id="path4131"
         inkscape:connector-curvature="0" />
    </g>
    <g
       id="g4133"
       transform="matrix(0.35277777,0,0,-0.35277777,31.085839,40.48838)">
      <path
         d="M 0,0 -4.756,-14.688 H -6.8 c -0.252,0 -0.426,0.164 -0.522,0.493 l -3.248,9.961 c -0.077,0.222 -0.141,0.447 -0.189,0.674 -0.049,0.227 -0.096,0.452 -0.144,0.675 -0.049,-0.223 -0.098,-0.448 -0.146,-0.675 -0.049,-0.227 -0.111,-0.457 -0.188,-0.689 l -3.306,-9.946 c -0.087,-0.329 -0.281,-0.493 -0.58,-0.493 h -1.943 L -21.822,0 h 2.03 c 0.203,0 0.374,-0.053 0.515,-0.16 0.139,-0.106 0.234,-0.232 0.282,-0.377 l 2.813,-9.453 c 0.164,-0.697 0.295,-1.354 0.392,-1.972 0.087,0.318 0.176,0.642 0.268,0.971 0.091,0.328 0.191,0.662 0.297,1.001 l 3.103,9.511 c 0.049,0.146 0.133,0.266 0.254,0.363 0.121,0.096 0.268,0.145 0.442,0.145 h 1.131 c 0.193,0 0.353,-0.049 0.479,-0.145 0.126,-0.097 0.212,-0.217 0.26,-0.363 l 3.032,-9.511 c 0.105,-0.339 0.202,-0.673 0.29,-1.001 0.087,-0.329 0.169,-0.653 0.246,-0.971 0.048,0.318 0.108,0.64 0.181,0.964 0.073,0.324 0.153,0.66 0.24,1.008 l 2.87,9.453 c 0.049,0.155 0.14,0.283 0.276,0.385 C -2.286,-0.051 -2.127,0 -1.942,0 Z"
         style="fill:#ffffff;fill-opacity:1;fill-rule:nonzero;stroke:none"
         id="path4135"
         inkscape:connector-curvature="0" />
    </g>
    <g
       id="g4137"
       transform="matrix(0.35277777,0,0,-0.35277777,34.088939,45.03075)">
      <path
         d="M 0,0 C 1.449,0 2.532,0.486 3.248,1.457 3.963,2.429 4.32,3.785 4.32,5.524 4.32,7.274 3.963,8.637 3.248,9.613 2.532,10.59 1.449,11.078 0,11.078 c -0.735,0 -1.376,-0.126 -1.922,-0.377 -0.546,-0.251 -1,-0.614 -1.362,-1.088 C -3.647,9.14 -3.918,8.557 -4.097,7.866 -4.275,7.175 -4.365,6.395 -4.365,5.524 c 0,-1.739 0.36,-3.095 1.081,-4.067 C -2.564,0.486 -1.47,0 0,0 m 0,13.108 c 1.072,0 2.039,-0.179 2.899,-0.537 C 3.76,12.214 4.495,11.706 5.104,11.049 5.713,10.392 6.179,9.597 6.503,8.664 6.827,7.731 6.988,6.689 6.988,5.539 6.988,4.379 6.827,3.335 6.503,2.407 6.179,1.479 5.713,0.686 5.104,0.029 4.495,-0.628 3.76,-1.133 2.899,-1.486 2.039,-1.839 1.072,-2.016 0,-2.016 c -1.083,0 -2.057,0.177 -2.922,0.53 -0.865,0.353 -1.602,0.858 -2.212,1.515 -0.608,0.657 -1.075,1.45 -1.398,2.378 -0.324,0.928 -0.487,1.972 -0.487,3.132 0,1.15 0.163,2.192 0.487,3.125 0.323,0.933 0.79,1.728 1.398,2.385 0.61,0.657 1.347,1.165 2.212,1.522 0.865,0.358 1.839,0.537 2.922,0.537"
         style="fill:#ffffff;fill-opacity:1;fill-rule:nonzero;stroke:none"
         id="path4139"
         inkscape:connector-curvature="0" />
    </g>
    <g
       id="g4141"
       transform="matrix(0.35277777,0,0,-0.35277777,38.569639,41.52675)">
      <path
         d="M 0,0 C 0.464,1.005 1.034,1.791 1.711,2.356 2.388,2.922 3.214,3.205 4.19,3.205 4.5,3.205 4.797,3.17 5.082,3.103 5.367,3.035 5.621,2.929 5.844,2.784 L 5.655,0.855 C 5.597,0.614 5.452,0.493 5.22,0.493 5.084,0.493 4.887,0.522 4.625,0.58 4.364,0.638 4.069,0.667 3.741,0.667 3.277,0.667 2.863,0.599 2.501,0.464 2.139,0.329 1.814,0.128 1.529,-0.138 1.244,-0.404 0.988,-0.732 0.761,-1.124 0.534,-1.515 0.328,-1.962 0.145,-2.465 v -9.28 H -2.45 V 2.943 h 1.478 c 0.281,0 0.474,-0.053 0.58,-0.159 0.107,-0.107 0.179,-0.29 0.218,-0.551 z"
         style="fill:#ffffff;fill-opacity:1;fill-rule:nonzero;stroke:none"
         id="path4143"
         inkscape:connector-curvature="0" />
    </g>
    <g
       id="g4145"
       transform="matrix(0.35277777,0,0,-0.35277777,42.344429,38.13539)">
      <path
         d="m 0,0 v -12.571 h 0.667 c 0.193,0 0.355,0.026 0.486,0.079 0.13,0.054 0.268,0.162 0.413,0.326 l 4.64,4.974 c 0.136,0.164 0.278,0.293 0.428,0.384 0.15,0.092 0.35,0.138 0.602,0.138 H 9.57 L 4.162,-12.426 C 3.9,-12.755 3.62,-13.011 3.321,-13.195 c 0.174,-0.116 0.331,-0.249 0.471,-0.399 0.14,-0.15 0.273,-0.321 0.398,-0.514 l 5.743,-7.25 H 7.627 c -0.222,0 -0.413,0.036 -0.572,0.108 -0.159,0.073 -0.297,0.206 -0.413,0.399 l -4.83,6.018 c -0.144,0.203 -0.287,0.335 -0.427,0.398 -0.14,0.063 -0.355,0.095 -0.645,0.095 H 0 v -7.018 H -2.595 V 0 Z"
         style="fill:#ffffff;fill-opacity:1;fill-rule:nonzero;stroke:none"
         id="path4147"
         inkscape:connector-curvature="0" />
    </g>
    <path
       d="m 52.774299,45.67016 h -0.99236 v -7.33002 h 0.99236 z"
       style="fill:#ffffff;fill-opacity:1;fill-rule:nonzero;stroke:none;stroke-width:0.35277775"
       id="path4153"
       inkscape:connector-curvature="0" />
    <g
       id="g4155"
       transform="matrix(0.35277777,0,0,-0.35277777,55.214289,41.24029)">
      <path
         d="M 0,0 C 0.319,0.357 0.657,0.681 1.015,0.971 1.372,1.261 1.752,1.51 2.153,1.718 2.555,1.926 2.979,2.085 3.43,2.197 3.879,2.308 4.364,2.363 4.887,2.363 5.688,2.363 6.396,2.23 7.011,1.965 7.625,1.699 8.137,1.322 8.548,0.833 8.959,0.345 9.271,-0.242 9.483,-0.928 9.695,-1.615 9.802,-2.374 9.802,-3.205 v -9.352 H 7.206 v 9.352 c 0,1.112 -0.253,1.975 -0.761,2.589 C 5.937,-0.002 5.167,0.304 4.133,0.304 3.369,0.304 2.656,0.121 1.994,-0.247 1.331,-0.614 0.72,-1.112 0.159,-1.74 V -12.557 H -2.436 V 2.131 h 1.551 c 0.367,0 0.595,-0.179 0.682,-0.536 z"
         style="fill:#ffffff;fill-opacity:1;fill-rule:nonzero;stroke:none"
         id="path4157"
         inkscape:connector-curvature="0" />
    </g>
    <g
       id="g4159"
       transform="matrix(0.35277777,0,0,-0.35277777,60.922799,41.24029)">
      <path
         d="M 0,0 C 0.319,0.357 0.657,0.681 1.015,0.971 1.372,1.261 1.752,1.51 2.153,1.718 2.555,1.926 2.979,2.085 3.43,2.197 3.879,2.308 4.364,2.363 4.887,2.363 5.688,2.363 6.396,2.23 7.011,1.965 7.625,1.699 8.137,1.322 8.548,0.833 8.959,0.345 9.271,-0.242 9.483,-0.928 9.695,-1.615 9.802,-2.374 9.802,-3.205 v -9.352 H 7.206 v 9.352 c 0,1.112 -0.253,1.975 -0.761,2.589 C 5.937,-0.002 5.167,0.304 4.133,0.304 3.369,0.304 2.656,0.121 1.994,-0.247 1.331,-0.614 0.72,-1.112 0.159,-1.74 V -12.557 H -2.436 V 2.131 h 1.551 c 0.367,0 0.595,-0.179 0.682,-0.536 z"
         style="fill:#ffffff;fill-opacity:1;fill-rule:nonzero;stroke:none"
         id="path4161"
         inkscape:connector-curvature="0" />
    </g>
    <g
       id="g4163"
       transform="matrix(0.35277777,0,0,-0.35277777,67.956309,45.03075)">
      <path
         d="M 0,0 C 1.449,0 2.532,0.486 3.248,1.457 3.963,2.429 4.32,3.785 4.32,5.524 4.32,7.274 3.963,8.637 3.248,9.613 2.532,10.59 1.449,11.078 0,11.078 c -0.735,0 -1.376,-0.126 -1.922,-0.377 -0.546,-0.251 -1,-0.614 -1.362,-1.088 C -3.647,9.14 -3.918,8.557 -4.097,7.866 -4.275,7.175 -4.365,6.395 -4.365,5.524 c 0,-1.739 0.36,-3.095 1.081,-4.067 C -2.564,0.486 -1.47,0 0,0 m 0,13.108 c 1.072,0 2.039,-0.179 2.899,-0.537 C 3.76,12.214 4.495,11.706 5.104,11.049 5.713,10.392 6.179,9.597 6.503,8.664 6.827,7.731 6.988,6.689 6.988,5.539 6.988,4.379 6.827,3.335 6.503,2.407 6.179,1.479 5.713,0.686 5.104,0.029 4.495,-0.628 3.76,-1.133 2.899,-1.486 2.039,-1.839 1.072,-2.016 0,-2.016 c -1.083,0 -2.057,0.177 -2.922,0.53 -0.865,0.353 -1.602,0.858 -2.212,1.515 -0.608,0.657 -1.075,1.45 -1.398,2.378 -0.324,0.928 -0.487,1.972 -0.487,3.132 0,1.15 0.163,2.192 0.487,3.125 0.323,0.933 0.79,1.728 1.398,2.385 0.61,0.657 1.347,1.165 2.212,1.522 0.865,0.358 1.839,0.537 2.922,0.537"
         style="fill:#ffffff;fill-opacity:1;fill-rule:nonzero;stroke:none"
         id="path4165"
         inkscape:connector-curvature="0" />
    </g>
    <g
       id="g4167"
       transform="matrix(0.35277777,0,0,-0.35277777,75.869679,40.48838)">
      <path
         d="m 0,0 -5.989,-14.688 h -2.32 L -14.297,0 h 2.102 c 0.213,0 0.386,-0.053 0.522,-0.16 0.135,-0.106 0.227,-0.232 0.276,-0.377 l 3.726,-9.453 c 0.116,-0.358 0.218,-0.706 0.305,-1.045 0.087,-0.338 0.169,-0.676 0.246,-1.014 0.077,0.338 0.16,0.676 0.247,1.014 0.087,0.339 0.193,0.687 0.318,1.045 l 3.771,9.453 c 0.057,0.155 0.154,0.283 0.29,0.385 C -2.359,-0.051 -2.199,0 -2.016,0 Z"
         style="fill:#ffffff;fill-opacity:1;fill-rule:nonzero;stroke:none"
         id="path4169"
         inkscape:connector-curvature="0" />
    </g>
    <g
       id="g4171"
       transform="matrix(0.35277777,0,0,-0.35277777,79.404369,43.33766)">
      <path
         d="m 0,0 c -1.188,-0.039 -2.201,-0.133 -3.038,-0.283 -0.836,-0.15 -1.518,-0.345 -2.044,-0.587 -0.527,-0.241 -0.909,-0.527 -1.146,-0.855 -0.237,-0.329 -0.355,-0.696 -0.355,-1.102 0,-0.387 0.062,-0.72 0.188,-1.001 0.126,-0.28 0.298,-0.51 0.515,-0.689 0.218,-0.178 0.474,-0.309 0.769,-0.391 0.295,-0.082 0.611,-0.123 0.95,-0.123 0.454,0 0.87,0.046 1.247,0.137 0.377,0.092 0.731,0.225 1.065,0.399 0.334,0.174 0.653,0.382 0.957,0.624 0.305,0.241 0.602,0.517 0.892,0.826 z m -8.337,6.003 c 0.812,0.783 1.687,1.368 2.624,1.755 0.938,0.386 1.977,0.58 3.117,0.58 0.823,0 1.552,-0.136 2.19,-0.406 C 0.232,7.661 0.769,7.284 1.204,6.801 1.639,6.317 1.967,5.732 2.189,5.046 2.412,4.36 2.523,3.605 2.523,2.784 V -6.612 H 1.378 c -0.252,0 -0.445,0.041 -0.58,0.123 -0.136,0.082 -0.242,0.244 -0.319,0.486 l -0.291,1.392 c -0.386,-0.358 -0.763,-0.674 -1.13,-0.95 -0.368,-0.275 -0.754,-0.507 -1.161,-0.695 -0.406,-0.189 -0.838,-0.334 -1.297,-0.435 -0.459,-0.102 -0.969,-0.153 -1.53,-0.153 -0.57,0 -1.107,0.08 -1.609,0.24 -0.503,0.159 -0.94,0.398 -1.313,0.717 -0.372,0.319 -0.667,0.722 -0.884,1.211 -0.218,0.488 -0.327,1.066 -0.327,1.733 0,0.58 0.16,1.138 0.479,1.674 0.319,0.537 0.836,1.013 1.552,1.429 0.715,0.415 1.647,0.756 2.799,1.022 C -3.084,1.448 -1.673,1.6 0,1.639 V 2.784 C 0,3.925 -0.246,4.788 -0.739,5.373 -1.232,5.957 -1.952,6.25 -2.899,6.25 -3.538,6.25 -4.072,6.17 -4.502,6.01 -4.933,5.851 -5.305,5.672 -5.618,5.474 -5.933,5.276 -6.204,5.097 -6.431,4.937 -6.658,4.778 -6.883,4.698 -7.104,4.698 c -0.175,0 -0.325,0.046 -0.451,0.138 -0.125,0.092 -0.231,0.205 -0.318,0.341 z"
         style="fill:#ffffff;fill-opacity:1;fill-rule:nonzero;stroke:none"
         id="path4173"
         inkscape:connector-curvature="0" />
    </g>
    <g
       id="g4175"
       transform="matrix(0.35277777,0,0,-0.35277777,86.647669,38.82595)">
      <path
         d="M 0,0 C 0,-0.251 -0.051,-0.486 -0.152,-0.703 -0.254,-0.92 -0.39,-1.112 -0.559,-1.276 -0.728,-1.44 -0.923,-1.571 -1.146,-1.667 c -0.222,-0.097 -0.458,-0.145 -0.71,-0.145 -0.251,0 -0.486,0.048 -0.704,0.145 -0.216,0.096 -0.408,0.227 -0.572,0.391 -0.165,0.164 -0.295,0.356 -0.391,0.573 -0.097,0.217 -0.146,0.452 -0.146,0.703 0,0.251 0.049,0.491 0.146,0.718 0.096,0.227 0.226,0.425 0.391,0.594 0.164,0.169 0.356,0.302 0.572,0.399 0.218,0.097 0.453,0.145 0.704,0.145 0.252,0 0.488,-0.048 0.71,-0.145 0.223,-0.097 0.418,-0.23 0.587,-0.399 C -0.39,1.143 -0.254,0.945 -0.152,0.718 -0.051,0.491 0,0.251 0,0 m -0.638,-19.401 h -2.581 v 12.528 h -7.569 v -8.816 c 0,-0.619 0.149,-1.078 0.449,-1.377 0.3,-0.3 0.687,-0.45 1.16,-0.45 0.271,0 0.505,0.037 0.703,0.109 0.199,0.073 0.371,0.152 0.515,0.239 0.146,0.087 0.269,0.167 0.37,0.239 0.102,0.073 0.191,0.109 0.269,0.109 0.135,0 0.256,-0.082 0.362,-0.246 l 0.754,-1.233 c -0.444,-0.416 -0.981,-0.742 -1.609,-0.979 -0.629,-0.236 -1.277,-0.355 -1.944,-0.355 -1.16,0 -2.052,0.324 -2.675,0.971 -0.624,0.648 -0.935,1.581 -0.935,2.799 v 8.99 h -1.769 c -0.155,0 -0.285,0.046 -0.391,0.138 -0.107,0.091 -0.16,0.234 -0.16,0.427 v 1.03 l 2.407,0.319 0.594,4.524 c 0.03,0.145 0.095,0.264 0.196,0.355 0.101,0.092 0.234,0.138 0.399,0.138 h 1.305 v -5.06 h 10.15 z"
         style="fill:#ffffff;fill-opacity:1;fill-rule:nonzero;stroke:none"
         id="path4177"
         inkscape:connector-curvature="0" />
    </g>
    <g
       id="g4179"
       transform="matrix(0.35277777,0,0,-0.35277777,90.100699,45.03075)">
      <path
         d="M 0,0 C 1.449,0 2.532,0.486 3.248,1.457 3.963,2.429 4.32,3.785 4.32,5.524 4.32,7.274 3.963,8.637 3.248,9.613 2.532,10.59 1.449,11.078 0,11.078 c -0.735,0 -1.376,-0.126 -1.922,-0.377 -0.546,-0.251 -1,-0.614 -1.362,-1.088 C -3.647,9.14 -3.918,8.557 -4.097,7.866 -4.275,7.175 -4.365,6.395 -4.365,5.524 c 0,-1.739 0.36,-3.095 1.081,-4.067 C -2.564,0.486 -1.47,0 0,0 m 0,13.108 c 1.072,0 2.039,-0.179 2.899,-0.537 C 3.76,12.214 4.495,11.706 5.104,11.049 5.713,10.392 6.179,9.597 6.503,8.664 6.827,7.731 6.988,6.689 6.988,5.539 6.988,4.379 6.827,3.335 6.503,2.407 6.179,1.479 5.713,0.686 5.104,0.029 4.495,-0.628 3.76,-1.133 2.899,-1.486 2.039,-1.839 1.072,-2.016 0,-2.016 c -1.083,0 -2.057,0.177 -2.922,0.53 -0.865,0.353 -1.602,0.858 -2.212,1.515 -0.608,0.657 -1.075,1.45 -1.398,2.378 -0.324,0.928 -0.487,1.972 -0.487,3.132 0,1.15 0.163,2.192 0.487,3.125 0.323,0.933 0.79,1.728 1.398,2.385 0.61,0.657 1.347,1.165 2.212,1.522 0.865,0.358 1.839,0.537 2.922,0.537"
         style="fill:#ffffff;fill-opacity:1;fill-rule:nonzero;stroke:none"
         id="path4181"
         inkscape:connector-curvature="0" />
    </g>
    <g
       id="g4183"
       transform="matrix(0.35277777,0,0,-0.35277777,94.576209,41.24029)">
      <path
         d="M 0,0 C 0.319,0.357 0.657,0.681 1.015,0.971 1.372,1.261 1.752,1.51 2.153,1.718 2.555,1.926 2.979,2.085 3.43,2.197 3.879,2.308 4.364,2.363 4.887,2.363 5.688,2.363 6.396,2.23 7.011,1.965 7.625,1.699 8.137,1.322 8.548,0.833 8.959,0.345 9.271,-0.242 9.483,-0.928 9.695,-1.615 9.802,-2.374 9.802,-3.205 v -9.352 H 7.206 v 9.352 c 0,1.112 -0.253,1.975 -0.761,2.589 C 5.937,-0.002 5.167,0.304 4.133,0.304 3.369,0.304 2.656,0.121 1.994,-0.247 1.331,-0.614 0.72,-1.112 0.159,-1.74 V -12.557 H -2.436 V 2.131 h 1.551 c 0.367,0 0.595,-0.179 0.682,-0.536 z"
         style="fill:#ffffff;fill-opacity:1;fill-rule:nonzero;stroke:none"
         id="path4185"
         inkscape:connector-curvature="0" />
    </g>
    <g
       id="g4191"
       transform="matrix(0.35277777,0,0,-0.35277777,106.74531,42.14065)">
      <path
         d="m 0,0 c 0.802,0 1.51,0.106 2.124,0.319 0.614,0.213 1.131,0.51 1.552,0.892 0.42,0.382 0.737,0.838 0.949,1.37 0.213,0.532 0.319,1.117 0.319,1.754 0,1.325 -0.408,2.359 -1.225,3.103 C 2.902,8.183 1.662,8.555 0,8.555 H -3.335 V 0 Z m 0,10.773 c 1.314,0 2.458,-0.151 3.429,-0.456 C 4.4,10.012 5.205,9.58 5.844,9.019 6.481,8.458 6.957,7.782 7.271,6.989 7.586,6.196 7.743,5.312 7.743,4.335 7.743,3.369 7.573,2.484 7.235,1.682 6.896,0.879 6.401,0.188 5.749,-0.392 5.097,-0.971 4.289,-1.423 3.328,-1.747 2.365,-2.071 1.257,-2.233 0,-2.233 h -3.335 v -7.772 h -2.799 v 20.778 z"
         style="fill:#ffffff;fill-opacity:1;fill-rule:nonzero;stroke:none"
         id="path4193"
         inkscape:connector-curvature="0" />
    </g>
    <g
       id="g4195"
       transform="matrix(0.35277777,0,0,-0.35277777,113.15458,43.33766)">
      <path
         d="m 0,0 c -1.188,-0.039 -2.201,-0.133 -3.038,-0.283 -0.836,-0.15 -1.518,-0.345 -2.044,-0.587 -0.527,-0.241 -0.909,-0.527 -1.146,-0.855 -0.237,-0.329 -0.355,-0.696 -0.355,-1.102 0,-0.387 0.062,-0.72 0.188,-1.001 0.126,-0.28 0.298,-0.51 0.515,-0.689 0.218,-0.178 0.474,-0.309 0.769,-0.391 0.295,-0.082 0.611,-0.123 0.95,-0.123 0.454,0 0.87,0.046 1.247,0.137 0.377,0.092 0.731,0.225 1.065,0.399 0.334,0.174 0.653,0.382 0.957,0.624 0.305,0.241 0.602,0.517 0.892,0.826 z m -8.337,6.003 c 0.812,0.783 1.687,1.368 2.624,1.755 0.938,0.386 1.977,0.58 3.117,0.58 0.823,0 1.552,-0.136 2.19,-0.406 C 0.232,7.661 0.769,7.284 1.204,6.801 1.639,6.317 1.967,5.732 2.189,5.046 2.412,4.36 2.523,3.605 2.523,2.784 V -6.612 H 1.378 c -0.252,0 -0.445,0.041 -0.58,0.123 -0.136,0.082 -0.242,0.244 -0.319,0.486 l -0.291,1.392 c -0.386,-0.358 -0.763,-0.674 -1.13,-0.95 -0.368,-0.275 -0.754,-0.507 -1.161,-0.695 -0.406,-0.189 -0.838,-0.334 -1.297,-0.435 -0.459,-0.102 -0.969,-0.153 -1.53,-0.153 -0.57,0 -1.107,0.08 -1.609,0.24 -0.503,0.159 -0.94,0.398 -1.313,0.717 -0.372,0.319 -0.667,0.722 -0.884,1.211 -0.218,0.488 -0.327,1.066 -0.327,1.733 0,0.58 0.16,1.138 0.479,1.674 0.319,0.537 0.836,1.013 1.552,1.429 0.715,0.415 1.647,0.756 2.799,1.022 C -3.084,1.448 -1.673,1.6 0,1.639 V 2.784 C 0,3.925 -0.246,4.788 -0.739,5.373 -1.232,5.957 -1.952,6.25 -2.899,6.25 -3.538,6.25 -4.072,6.17 -4.502,6.01 -4.933,5.851 -5.305,5.672 -5.618,5.474 -5.933,5.276 -6.204,5.097 -6.431,4.937 -6.658,4.778 -6.883,4.698 -7.104,4.698 c -0.175,0 -0.325,0.046 -0.451,0.138 -0.125,0.092 -0.231,0.205 -0.318,0.341 z"
         style="fill:#ffffff;fill-opacity:1;fill-rule:nonzero;stroke:none"
         id="path4197"
         inkscape:connector-curvature="0" />
    </g>
    <g
       id="g4199"
       transform="matrix(0.35277777,0,0,-0.35277777,116.29547,41.52675)">
      <path
         d="M 0,0 C 0.464,1.005 1.034,1.791 1.711,2.356 2.388,2.922 3.214,3.205 4.19,3.205 4.5,3.205 4.797,3.17 5.082,3.103 5.367,3.035 5.621,2.929 5.844,2.784 L 5.655,0.855 C 5.597,0.614 5.452,0.493 5.22,0.493 5.084,0.493 4.887,0.522 4.625,0.58 4.364,0.638 4.069,0.667 3.741,0.667 3.277,0.667 2.863,0.599 2.501,0.464 2.139,0.329 1.814,0.128 1.529,-0.138 1.244,-0.404 0.988,-0.732 0.761,-1.124 0.534,-1.515 0.328,-1.962 0.145,-2.465 v -9.28 H -2.45 V 2.943 h 1.478 c 0.281,0 0.474,-0.053 0.58,-0.159 0.107,-0.107 0.179,-0.29 0.218,-0.551 z"
         style="fill:#ffffff;fill-opacity:1;fill-rule:nonzero;stroke:none"
         id="path4201"
         inkscape:connector-curvature="0" />
    </g>
    <g
       id="g4203"
       transform="matrix(0.35277777,0,0,-0.35277777,120.74551,45.75197)">
      <path
         d="M 0,0 C -1.16,0 -2.052,0.324 -2.675,0.971 -3.299,1.619 -3.61,2.552 -3.61,3.77 v 8.99 h -1.769 c -0.155,0 -0.285,0.046 -0.392,0.137 -0.106,0.092 -0.16,0.235 -0.16,0.428 v 1.03 l 2.408,0.305 0.594,4.538 c 0.03,0.145 0.095,0.263 0.196,0.355 0.101,0.092 0.234,0.138 0.399,0.138 h 1.305 V 14.63 H 3.22 V 12.76 H -1.029 V 3.944 c 0,-0.619 0.149,-1.078 0.449,-1.378 0.3,-0.299 0.686,-0.449 1.16,-0.449 0.271,0 0.505,0.036 0.703,0.109 0.198,0.072 0.37,0.152 0.515,0.239 0.145,0.087 0.268,0.167 0.37,0.239 0.102,0.073 0.19,0.109 0.269,0.109 0.134,0 0.255,-0.083 0.362,-0.247 L 3.553,1.334 C 3.108,0.918 2.571,0.592 1.943,0.355 1.314,0.119 0.667,0 0,0"
         style="fill:#ffffff;fill-opacity:1;fill-rule:nonzero;stroke:none"
         id="path4205"
         inkscape:connector-curvature="0" />
    </g>
    <g
       id="g4207"
       transform="matrix(0.35277777,0,0,-0.35277777,123.68175,41.24029)">
      <path
         d="M 0,0 C 0.319,0.357 0.657,0.681 1.015,0.971 1.372,1.261 1.752,1.51 2.153,1.718 2.555,1.926 2.979,2.085 3.43,2.197 3.879,2.308 4.364,2.363 4.887,2.363 5.688,2.363 6.396,2.23 7.011,1.965 7.625,1.699 8.137,1.322 8.548,0.833 8.959,0.345 9.271,-0.242 9.483,-0.928 9.695,-1.615 9.802,-2.374 9.802,-3.205 v -9.352 H 7.206 v 9.352 c 0,1.112 -0.253,1.975 -0.761,2.589 C 5.937,-0.002 5.167,0.304 4.133,0.304 3.369,0.304 2.656,0.121 1.994,-0.247 1.331,-0.614 0.72,-1.112 0.159,-1.74 V -12.557 H -2.436 V 2.131 h 1.551 c 0.367,0 0.595,-0.179 0.682,-0.536 z"
         style="fill:#ffffff;fill-opacity:1;fill-rule:nonzero;stroke:none"
         id="path4209"
         inkscape:connector-curvature="0" />
    </g>
    <g
       id="g4211"
       transform="matrix(0.35277777,0,0,-0.35277777,131.99926,42.5141)">
      <path
         d="m 0,0 c 0,0.6 -0.085,1.148 -0.254,1.646 -0.17,0.498 -0.416,0.928 -0.74,1.291 -0.323,0.362 -0.718,0.642 -1.182,0.84 -0.464,0.199 -0.99,0.298 -1.58,0.298 -1.237,0 -2.217,-0.361 -2.936,-1.08 C -7.412,2.274 -7.859,1.276 -8.033,0 Z M 2.088,-6.887 C 1.769,-7.274 1.387,-7.61 0.942,-7.895 0.497,-8.18 0.021,-8.415 -0.486,-8.598 -0.994,-8.782 -1.519,-8.92 -2.06,-9.012 c -0.541,-0.092 -1.078,-0.137 -1.609,-0.137 -1.015,0 -1.95,0.171 -2.806,0.514 -0.855,0.343 -1.594,0.846 -2.218,1.509 -0.623,0.662 -1.11,1.48 -1.457,2.457 -0.348,0.977 -0.523,2.098 -0.523,3.364 0,1.025 0.157,1.982 0.472,2.871 0.313,0.89 0.765,1.661 1.355,2.313 0.59,0.652 1.31,1.165 2.161,1.537 0.851,0.372 1.807,0.558 2.871,0.558 0.879,0 1.694,-0.147 2.443,-0.442 C -0.622,5.237 0.026,4.812 0.572,4.256 1.118,3.7 1.546,3.014 1.855,2.197 2.165,1.38 2.319,0.45 2.319,-0.594 2.319,-1 2.276,-1.271 2.189,-1.406 2.102,-1.542 1.937,-1.609 1.696,-1.609 H -8.12 c 0.028,-0.928 0.156,-1.736 0.384,-2.422 0.227,-0.686 0.544,-1.259 0.95,-1.718 0.405,-0.459 0.889,-0.803 1.449,-1.029 0.561,-0.228 1.19,-0.341 1.886,-0.341 0.647,0 1.205,0.075 1.675,0.224 0.468,0.15 0.872,0.312 1.21,0.486 0.338,0.174 0.621,0.336 0.848,0.486 0.228,0.15 0.423,0.225 0.587,0.225 0.213,0 0.377,-0.083 0.493,-0.247 z"
         style="fill:#ffffff;fill-opacity:1;fill-rule:nonzero;stroke:none"
         id="path4213"
         inkscape:connector-curvature="0" />
    </g>
    <g
       id="g4215"
       transform="matrix(0.35277777,0,0,-0.35277777,134.797,41.52675)">
      <path
         d="M 0,0 C 0.464,1.005 1.034,1.791 1.711,2.356 2.388,2.922 3.214,3.205 4.19,3.205 4.5,3.205 4.797,3.17 5.082,3.103 5.367,3.035 5.621,2.929 5.844,2.784 L 5.655,0.855 C 5.597,0.614 5.452,0.493 5.22,0.493 5.084,0.493 4.887,0.522 4.625,0.58 4.364,0.638 4.069,0.667 3.741,0.667 3.277,0.667 2.863,0.599 2.501,0.464 2.139,0.329 1.814,0.128 1.529,-0.138 1.244,-0.404 0.988,-0.732 0.761,-1.124 0.534,-1.515 0.328,-1.962 0.145,-2.465 v -9.28 H -2.45 V 2.943 h 1.478 c 0.281,0 0.474,-0.053 0.58,-0.159 0.107,-0.107 0.179,-0.29 0.218,-0.551 z"
         style="fill:#ffffff;fill-opacity:1;fill-rule:nonzero;stroke:none"
         id="path4217"
         inkscape:connector-curvature="0" />
    </g>
    <g
       id="g4219"
       transform="matrix(0.35277777,0,0,-0.35277777,140.64369,41.3426)">
      <path
         d="m 0,0 c -0.116,-0.213 -0.295,-0.319 -0.536,-0.319 -0.146,0 -0.31,0.053 -0.493,0.159 -0.184,0.107 -0.409,0.225 -0.675,0.356 -0.266,0.13 -0.582,0.251 -0.949,0.362 -0.368,0.111 -0.803,0.167 -1.306,0.167 -0.435,0 -0.826,-0.056 -1.174,-0.167 -0.348,-0.111 -0.645,-0.264 -0.891,-0.456 -0.247,-0.194 -0.436,-0.419 -0.567,-0.675 -0.13,-0.256 -0.195,-0.534 -0.195,-0.834 0,-0.377 0.108,-0.691 0.326,-0.942 0.218,-0.252 0.505,-0.469 0.863,-0.652 0.358,-0.185 0.763,-0.346 1.218,-0.486 0.454,-0.14 0.921,-0.29 1.4,-0.45 0.478,-0.159 0.944,-0.336 1.398,-0.529 0.455,-0.194 0.86,-0.435 1.219,-0.725 0.357,-0.29 0.644,-0.645 0.862,-1.066 0.218,-0.42 0.326,-0.926 0.326,-1.515 0,-0.677 -0.121,-1.303 -0.362,-1.878 -0.242,-0.575 -0.6,-1.073 -1.073,-1.494 -0.474,-0.42 -1.054,-0.751 -1.74,-0.993 -0.686,-0.241 -1.479,-0.362 -2.379,-0.362 -1.024,0 -1.952,0.166 -2.783,0.5 -0.832,0.333 -1.537,0.761 -2.117,1.283 l 0.608,0.987 c 0.079,0.125 0.17,0.222 0.277,0.29 0.105,0.067 0.241,0.101 0.405,0.101 0.174,0 0.358,-0.068 0.552,-0.203 0.192,-0.136 0.428,-0.285 0.703,-0.45 0.275,-0.164 0.611,-0.314 1.008,-0.449 0.395,-0.136 0.888,-0.203 1.478,-0.203 0.503,0 0.943,0.065 1.32,0.196 0.377,0.13 0.691,0.306 0.942,0.529 0.252,0.222 0.438,0.479 0.559,0.769 0.121,0.29 0.181,0.599 0.181,0.927 0,0.407 -0.109,0.742 -0.326,1.008 -0.218,0.266 -0.506,0.493 -0.863,0.682 -0.358,0.188 -0.767,0.352 -1.226,0.492 -0.459,0.141 -0.927,0.288 -1.406,0.443 -0.479,0.155 -0.947,0.331 -1.406,0.529 -0.459,0.198 -0.868,0.447 -1.226,0.747 -0.357,0.3 -0.644,0.669 -0.862,1.109 -0.218,0.44 -0.326,0.974 -0.326,1.603 0,0.56 0.115,1.099 0.347,1.616 0.233,0.517 0.571,0.972 1.015,1.363 0.445,0.392 0.991,0.703 1.639,0.935 0.647,0.233 1.387,0.348 2.218,0.348 0.967,0 1.834,-0.152 2.603,-0.456 C -0.646,1.892 0.02,1.474 0.58,0.942 Z"
         style="fill:#ffffff;fill-opacity:1;fill-rule:nonzero;stroke:none"
         id="path4221"
         inkscape:connector-curvature="0" />
    </g>
    <g
       id="g4223"
       transform="matrix(0.35277777,0,0,-0.35277777,142.97083,41.17894)">
      <path
         d="m 0,0 c 0.629,0.667 1.324,1.199 2.088,1.595 0.764,0.396 1.643,0.594 2.64,0.594 0.801,0 1.509,-0.132 2.124,-0.398 C 7.466,1.525 7.978,1.148 8.389,0.66 8.8,0.171 9.111,-0.416 9.324,-1.102 9.536,-1.789 9.643,-2.547 9.643,-3.378 v -9.353 H 7.047 v 9.353 c 0,1.111 -0.253,1.974 -0.761,2.588 C 5.778,-0.176 5.008,0.13 3.974,0.13 3.21,0.13 2.497,-0.053 1.835,-0.42 1.172,-0.788 0.561,-1.286 0,-1.914 V -12.731 H -2.595 V 8.627 H 0 Z"
         style="fill:#ffffff;fill-opacity:1;fill-rule:nonzero;stroke:none"
         id="path4225"
         inkscape:connector-curvature="0" />
    </g>
    <path
       d="m 148.72562,45.67016 h -0.91052 v -5.1816 h 0.91052 z M 148.92,38.8619 c 0,0.0885 -0.018,0.1711 -0.054,0.248 -0.0356,0.0766 -0.0833,0.14499 -0.14288,0.20461 -0.06,0.0596 -0.12982,0.10654 -0.2099,0.14041 -0.0801,0.0342 -0.16475,0.0512 -0.2533,0.0512 -0.0889,0 -0.17145,-0.0169 -0.248,-0.0512 -0.0765,-0.0339 -0.14428,-0.0808 -0.20214,-0.14041 -0.0579,-0.0596 -0.10407,-0.12806 -0.13829,-0.20461 -0.0339,-0.0769 -0.0508,-0.15945 -0.0508,-0.248 0,-0.0889 0.0169,-0.17322 0.0508,-0.2533 0.0342,-0.0801 0.0804,-0.14993 0.13829,-0.2099 0.0579,-0.0596 0.12559,-0.10654 0.20214,-0.14076 0.0765,-0.0339 0.1591,-0.0508 0.248,-0.0508 0.0886,0 0.17322,0.0169 0.2533,0.0508 0.0801,0.0342 0.14993,0.0811 0.2099,0.14076 0.0596,0.06 0.10725,0.12982 0.14288,0.2099 0.036,0.0801 0.054,0.1644 0.054,0.2533"
       style="fill:#ffffff;fill-opacity:1;fill-rule:nonzero;stroke:none;stroke-width:0.35277775"
       id="path4227"
       inkscape:connector-curvature="0" />
    <g
       id="g4229"
       transform="matrix(0.35277777,0,0,-0.35277777,151.13467,44.42199)">
      <path
         d="m 0,0 c 0.474,-0.638 0.991,-1.087 1.552,-1.349 0.56,-0.26 1.189,-0.391 1.885,-0.391 1.373,0 2.426,0.488 3.161,1.465 C 7.332,0.701 7.7,2.093 7.7,3.9 7.7,4.857 7.615,5.679 7.446,6.365 7.277,7.052 7.033,7.615 6.714,8.055 6.395,8.495 6.003,8.816 5.539,9.019 5.075,9.222 4.549,9.323 3.959,9.323 3.118,9.323 2.381,9.13 1.748,8.744 1.114,8.356 0.532,7.811 0,7.105 Z m -0.13,8.874 c 0.618,0.763 1.334,1.377 2.146,1.841 0.812,0.464 1.74,0.697 2.784,0.697 0.85,0 1.619,-0.162 2.305,-0.486 C 7.792,10.602 8.376,10.123 8.859,9.49 9.343,8.857 9.716,8.071 9.977,7.134 10.237,6.196 10.368,5.119 10.368,3.9 10.368,2.818 10.223,1.81 9.933,0.877 9.643,-0.056 9.225,-0.863 8.679,-1.544 8.133,-2.226 7.466,-2.762 6.678,-3.154 5.89,-3.545 5.003,-3.741 4.017,-3.741 c -0.899,0 -1.67,0.152 -2.313,0.457 C 1.062,-2.98 0.493,-2.557 0,-2.016 V -8.512 H -2.595 V 11.15 h 1.551 c 0.367,0 0.595,-0.179 0.682,-0.536 z"
         style="fill:#ffffff;fill-opacity:1;fill-rule:nonzero;stroke:none"
         id="path4231"
         inkscape:connector-curvature="0" />
    </g>
    <ellipse
       id="path4769"
       cx="47.205299"
       cy="45.192146"
       rx="0.60461426"
       ry="0.62011719"
       style="fill:#ffffff;fill-opacity:1;stroke-width:0.28669995" />
    <ellipse
       id="path4769-0"
       cx="99.891479"
       cy="45.192146"
       rx="0.60461426"
       ry="0.62011719"
       style="fill:#ffffff;fill-opacity:1;stroke-width:0.28669995" />
    <ellipse
       id="path4769-0-4"
       cx="156.11545"
       cy="45.192146"
       rx="0.60461426"
       ry="0.62011719"
       style="fill:#ffffff;fill-opacity:1;stroke-width:0.28669995" />
  </g>
</svg>
