<?xml version="1.0" encoding="UTF-8" standalone="no"?>
<svg width="158px" height="59px" viewBox="0 0 158 59" version="1.1" xmlns="http://www.w3.org/2000/svg" xmlns:xlink="http://www.w3.org/1999/xlink">
    <!-- Generator: Sketch 41 (35326) - http://www.bohemiancoding.com/sketch -->
    <title>Group 5</title>
    <desc>Created with Sketch.</desc>
    <defs></defs>
    <g id="Page-1" stroke="none" stroke-width="1" fill="none" fill-rule="evenodd">
        <g id="Artboard" transform="translate(-42.000000, -33.000000)">
            <g id="Group-5" transform="translate(42.000000, 33.000000)">
                <g id="Group">
                    <g id="Group-13">
                        <path d="M46.12982,11.7714667 C45.8775533,10.9200667 45.5240867,10.1955333 45.0796867,9.6184 C44.6191533,9.01926667 43.9811533,8.51913333 43.18622,8.1312 C42.39422,7.74546667 41.4533533,7.54893333 40.3907533,7.54893333 C39.0252867,7.54893333 37.7294867,7.88846667 36.53782,8.558 C35.7883533,8.97893333 35.1400867,9.53553333 34.5981533,10.2234 C34.24322,9.6206 33.7936867,9.10726667 33.2524867,8.68706667 C32.2822867,7.93173333 31.0348867,7.54893333 29.5454867,7.54893333 C28.29662,7.54893333 27.10642,7.83053333 26.0071533,8.3864 C25.5451533,8.62033333 25.1139533,8.91293333 24.7186867,9.26053333 L24.70402,8.7208 C24.69302,8.2698 24.3248867,7.90973333 23.8731533,7.90973333 L21.5191533,7.90973333 C21.05862,7.90973333 20.68682,8.28226667 20.68682,8.74133333 L20.68682,16.6958 C20.6090867,16.4963333 20.53062,16.2998 20.4418867,16.1216 C20.1998867,15.6383333 19.85302,15.1748667 19.40862,14.7444 C19.0008867,14.3498667 18.5909533,14.0059333 18.1912867,13.7243333 C17.7879533,13.4398 17.27902,13.1464667 16.6417533,12.8274667 C16.0286867,12.5216667 15.4603533,12.2606 14.9499533,12.0538 C14.4534867,11.8514 13.8191533,11.6006 13.0381533,11.2977333 C12.6626867,11.1562 12.12882,10.9743333 11.4365533,10.7514 C10.7618867,10.5350667 10.19942,10.3517333 9.74842,10.2028667 C9.33262,10.0664667 8.85302,9.86626667 8.32135333,9.60886667 C7.82048667,9.36613333 7.42228667,9.12046667 7.13848667,8.88066667 C6.88182,8.66286667 6.65595333,8.3732 6.46528667,8.0212 C6.28928667,7.69413333 6.20348667,7.3392 6.20348667,6.9366 C6.20348667,5.85493333 6.61415333,5.1106 7.49415333,4.59506667 C8.49368667,4.00913333 9.83275333,3.71213333 11.4739533,3.71213333 C12.7132867,3.71213333 13.8572867,3.99373333 14.87442,4.54666667 C15.8915533,5.10106667 16.6791533,5.88793333 17.2819533,6.952 C17.3992867,7.1588 17.60022,7.30546667 17.83342,7.35533333 C17.89062,7.36706667 17.94782,7.37293333 18.00502,7.37293333 C18.1817533,7.37293333 18.3562867,7.31646667 18.4992867,7.2094 L20.3560867,5.8344 C20.71102,5.5726 20.7982867,5.0798 20.5577533,4.71093333 C19.4804867,3.06606667 18.15682,1.85753333 16.6219533,1.1176 C15.1105533,0.390133333 13.25742,0.0212666667 11.1131533,0.0212666667 C9.96035333,0.0212666667 8.84568667,0.156933333 7.80288667,0.425333333 C6.74615333,0.6974 5.77082,1.11026667 4.90548667,1.65146667 C3.99542,2.222 3.26208667,2.98833333 2.72528667,3.92993333 C2.18482,4.87813333 1.91128667,5.95906667 1.91128667,7.1434 C1.91128667,7.47413333 1.93108667,7.79753333 1.97288667,8.1268 C2.26548667,10.0488667 3.46375333,11.605 5.53468667,12.7504667 C6.38682,13.2256667 7.82488667,13.8123333 9.97282,14.5596 C10.0373533,14.5779333 10.12902,14.6109333 10.2734867,14.6659333 C11.1989533,14.9864 11.82962,15.2056667 12.1654867,15.3259333 C12.49842,15.444 13.0007533,15.6376 13.6739533,15.9074667 C14.49602,16.236 14.7966867,16.4076 14.90302,16.4809333 C15.14062,16.6452 15.46182,16.8732667 15.8680867,17.1673333 C16.2750867,17.4606667 16.3982867,17.6564667 16.43422,17.7268667 C16.55302,17.9703333 16.6703533,18.2717333 16.7847533,18.6222667 C16.8822867,18.9273333 16.9321533,19.2756667 16.9321533,19.6555333 C16.9321533,20.2678667 16.8265533,20.8164 16.61902,21.285 C16.4129533,21.747 16.1430867,22.1217333 15.8167533,22.3996667 C15.4603533,22.7025333 15.0276867,22.9614 14.5319533,23.1674667 C14.0149533,23.3823333 13.4847533,23.5348667 12.9552867,23.6214 C12.4067533,23.7108667 11.82082,23.7570667 11.2165533,23.7570667 C9.27102,23.7570667 7.70682,23.3456667 6.56722,22.5360667 C5.44522,21.7374667 4.64222,20.4754 4.18168667,18.7836 C4.11862,18.5511333 3.95655333,18.3582667 3.74022,18.2534 C3.62582,18.1984 3.50262,18.1712667 3.37942,18.1712667 C3.26795333,18.1712667 3.15575333,18.1932667 3.05015333,18.2387333 L0.935953333,19.1502667 C0.58102,19.3035333 0.377153333,19.6812 0.447553333,20.0625333 C0.647753333,21.1691333 1.03055333,22.1804 1.58202,23.0677333 C2.13055333,23.9506667 2.77808667,24.684 3.50702,25.2464667 C4.21762,25.7942667 5.02428667,26.2540667 5.91088667,26.6134 C6.78062,26.9668667 7.65402,27.2206 8.50468667,27.3672667 C9.34435333,27.5117333 10.2052867,27.5858 11.06182,27.5858 C14.07362,27.5858 16.52882,26.8906 18.3577533,25.52 C19.44602,24.7045333 20.2167533,23.694 20.68682,22.5118667 L20.68682,26.3244667 C20.68682,26.7835333 21.05862,27.1560667 21.5191533,27.1560667 L23.9596867,27.1560667 C24.41802,27.1560667 24.78982,26.7835333 24.78982,26.3244667 L24.78982,16.3042 C24.78982,15.4036667 24.97022,14.5354 25.3229533,13.7221333 C25.6712867,12.9220667 26.1721533,12.2752667 26.8585533,11.7450667 C27.50462,11.2427333 28.2144867,10.9992667 29.0299533,10.9992667 C29.9634867,10.9992667 30.5706867,11.3278 30.9402867,12.0310667 C31.38982,12.892 31.6178867,14.1907333 31.6178867,15.8913333 L31.6178867,26.3244667 C31.6178867,26.7835333 31.99042,27.1560667 32.45022,27.1560667 L34.8907533,27.1560667 C35.3490867,27.1560667 35.72162,26.7835333 35.72162,26.3244667 L35.72162,16.1663333 C35.72162,15.3046667 35.9049533,14.4635333 36.26722,13.6649333 C36.62362,12.8758667 37.1310867,12.2415333 37.81382,11.726 C38.46282,11.2376 39.16462,10.9992667 39.96102,10.9992667 C40.45822,10.9992667 40.8747533,11.0982667 41.19962,11.2940667 C41.52082,11.4854667 41.76722,11.7656 41.9549533,12.1491333 C42.17642,12.6008667 42.33702,13.1244667 42.43162,13.706 C42.5335533,14.3227333 42.58342,15.0582667 42.58342,15.8913333 L42.58342,26.3244667 C42.58342,26.7835333 42.9559533,27.1560667 43.4157533,27.1560667 L45.8562867,27.1560667 C46.31462,27.1560667 46.6871533,26.7835333 46.6871533,26.3244667 L46.6871533,16.4244667 C46.6871533,15.554 46.6541533,14.762 46.58962,14.069 C46.5221533,13.3481333 46.3659533,12.5759333 46.12982,11.7714667" id="Fill-5" fill="#6CAAE4"></path>
                        <path d="M64.0377467,8.27376 C63.8830133,8.04569333 63.6256133,7.91002667 63.3506133,7.91002667 L60.9438133,7.91002667 C60.6013467,7.91002667 60.2948133,8.11902667 60.1694133,8.43729333 C58.10948,13.6820933 56.5379467,17.6978267 55.48268,20.42216 C55.0991467,19.4534267 54.6503467,18.3116267 54.1392133,16.9982267 L51.78448,10.9672933 L50.8047467,8.44096 C50.6815467,8.12049333 50.3735467,7.91002667 50.0296133,7.91002667 L47.52088,7.91002667 C47.2429467,7.91002667 46.9848133,8.04789333 46.83008,8.27816 C46.6753467,8.50769333 46.64528,8.79956 46.7501467,9.05549333 L53.3699467,25.2496933 L53.0751467,26.1076933 C52.21568,28.6376933 50.7974133,28.9302933 49.80668,28.9302933 C49.3696133,28.9302933 48.90248,28.8928933 48.41848,28.81956 C48.3774133,28.81296 48.3356133,28.8100267 48.2938133,28.8100267 C48.11488,28.8100267 47.93888,28.86796 47.7944133,28.97576 C47.6162133,29.1106933 47.49888,29.31016 47.4688133,29.5316267 L47.2114133,31.4742267 C47.1564133,31.8878267 47.41748,32.27796 47.82008,32.3864933 C48.4830133,32.5654267 49.1635467,32.6556267 49.8411467,32.6556267 C50.6991467,32.6556267 51.4926133,32.5302267 52.1966133,32.2816267 C52.8991467,32.0344933 53.5144133,31.70376 54.02628,31.2982267 C54.5359467,30.8948933 55.0346133,30.3214267 55.5054133,29.5954267 C55.9483467,28.91416 56.3333467,28.2240933 56.6516133,27.5450267 C56.96108,26.88576 57.3299467,26.0160267 57.7472133,24.9622267 C58.2400133,23.7140933 59.2263467,21.2522933 60.7091467,17.5768267 C62.1941467,13.89696 63.3315467,11.0530933 64.1235467,9.04669333 C64.2240133,8.79002667 64.19248,8.50109333 64.0377467,8.27376" id="Fill-7" fill="#6CAAE4"></path>
                        <path d="M73.5936667,7.89279333 C72.8170667,7.89279333 72.0639333,7.99986 71.3540667,8.21106 C70.609,8.43252667 69.8786,8.84686 69.1848667,9.44232667 C69.1782667,9.44819333 69.1724,9.45332667 69.1658,9.45919333 L69.1658,8.74126 C69.1658,8.28219333 68.7932667,7.90966 68.3342,7.90966 L65.9626,7.90966 C65.5035333,7.90966 65.131,8.28219333 65.131,8.74126 L65.131,26.3243933 C65.131,26.78346 65.5035333,27.1559933 65.9626,27.1559933 L68.4031333,27.1559933 C68.8622,27.1559933 69.2347333,26.78346 69.2347333,26.3243933 L69.2347333,17.18046 C69.2347333,16.4155933 69.3161333,15.7027933 69.476,15.06186 C69.6314667,14.4407267 69.8800667,13.8569933 70.2144667,13.32826 C70.5180667,12.8471933 70.9375333,12.47906 71.4970667,12.20186 C72.0712667,11.9173267 72.7767333,11.77286 73.5936667,11.77286 C74.0527333,11.77286 74.4252667,11.4003267 74.4252667,10.94126 L74.4252667,8.72439333 C74.4252667,8.26532667 74.0527333,7.89279333 73.5936667,7.89279333" id="Fill-9" fill="#FFFFFF"></path>
                        <path d="M83.0643,7.54908 C80.5460333,7.54908 78.4875667,8.42908 76.9424333,10.16488 C75.4237,11.8735467 74.6522333,14.3610133 74.6522333,17.5583467 C74.6522333,20.6933467 75.4061,23.16248 76.8896333,24.8968133 C78.4054333,26.66928 80.4778333,27.5683467 83.0474333,27.5683467 C85.6163,27.5683467 87.6901667,26.6634133 89.2059667,24.8770133 C90.6880333,23.1324133 91.4411667,20.65228 91.4411667,17.5070133 C91.4411667,14.33168 90.6697,11.8581467 89.1502333,10.1553467 C87.6043667,8.42614667 85.5569,7.54908 83.0643,7.54908 M79.3932333,21.3900133 C79.1739667,20.7901467 79.0207,20.17488 78.9378333,19.56108 C78.8520333,18.92528 78.8073,18.2337467 78.8073,17.5070133 C78.8073,16.6028133 78.8843,15.7609467 79.0331667,15.0041467 C79.1776333,14.26568 79.4174333,13.5543467 79.7459667,12.8899467 C80.0371,12.2959467 80.4499667,11.84348 81.0029,11.5061467 C81.5551,11.1695467 82.2437,10.9994133 83.0474333,10.9994133 C83.6869,10.9994133 84.2574333,11.1167467 84.7429,11.34848 C85.2276333,11.57948 85.6207,11.88088 85.9133,12.24388 C86.2264333,12.63548 86.4933667,13.1209467 86.7016333,13.68708 C86.9209,14.2825467 87.0771,14.8963467 87.1658333,15.5116133 C87.2567667,16.1452133 87.3022333,16.8279467 87.3022333,17.54148 C87.3022333,18.2682133 87.2597,18.9597467 87.1731667,19.5955467 C87.0888333,20.2086133 86.9363,20.8202133 86.7177667,21.41348 C86.5095,21.97888 86.2447667,22.4643467 85.9294333,22.85668 C85.6390333,23.21968 85.2459667,23.52108 84.7605,23.7513467 C84.2735667,23.98308 83.7030333,24.1004133 83.0643,24.1004133 C82.4123667,24.1004133 81.8359667,23.98308 81.3497667,23.7513467 C80.8599,23.5181467 80.4793,23.22408 80.1830333,22.8515467 C79.8691667,22.45408 79.6015,21.9620133 79.3932333,21.3900133" id="Fill-11" fill="#FFFFFF"></path>
                        <path d="M101.3518,7.54908 C98.8335333,7.54908 96.7750667,8.42908 95.2299333,10.16488 C93.7104667,11.8735467 92.9397333,14.3610133 92.9397333,17.5583467 C92.9397333,20.6933467 93.6936,23.16248 95.1764,24.8968133 C96.6929333,26.66928 98.7653333,27.5683467 101.334933,27.5683467 C103.9038,27.5683467 105.977667,26.6634133 107.493467,24.8770133 C108.975533,23.1324133 109.728667,20.65228 109.728667,17.5070133 C109.728667,14.33168 108.9572,11.8581467 107.437733,10.1553467 C105.891867,8.42614667 103.8444,7.54908 101.3518,7.54908 M97.6807333,21.3900133 C97.4614667,20.7901467 97.3082,20.17488 97.2253333,19.56108 C97.1395333,18.92528 97.0948,18.2337467 97.0948,17.5070133 C97.0948,16.6028133 97.1718,15.7609467 97.3206667,15.0041467 C97.4651333,14.26568 97.7049333,13.5543467 98.0334667,12.8899467 C98.3246,12.2959467 98.7374667,11.84348 99.2904,11.5061467 C99.8426,11.1695467 100.5312,10.9994133 101.334933,10.9994133 C101.9744,10.9994133 102.544933,11.1167467 103.0304,11.34848 C103.515133,11.57948 103.9082,11.88088 104.2008,12.24388 C104.513933,12.63548 104.780867,13.1209467 104.989133,13.68708 C105.2084,14.2825467 105.3646,14.8963467 105.453333,15.5116133 C105.544267,16.1452133 105.589733,16.8279467 105.589733,17.54148 C105.589733,18.2682133 105.5472,18.9597467 105.460667,19.5955467 C105.376333,20.2086133 105.2238,20.8202133 105.005267,21.41348 C104.797,21.97888 104.532267,22.4643467 104.216933,22.85668 C103.926533,23.21968 103.533467,23.52108 103.048,23.7513467 C102.561067,23.98308 101.990533,24.1004133 101.3518,24.1004133 C100.699867,24.1004133 100.123467,23.98308 99.6372667,23.7513467 C99.1474,23.5181467 98.7668,23.22408 98.4705333,22.8515467 C98.1566667,22.45408 97.889,21.9620133 97.6807333,21.3900133" id="Fill-13" fill="#FFFFFF"></path>
                        <path d="M137.253673,11.7714667 C137.00214,10.9200667 136.65014,10.1955333 136.204273,9.61766667 C135.743007,9.01926667 135.106473,8.51913333 134.31154,8.13193333 C133.518073,7.74473333 132.57794,7.54893333 131.516073,7.54893333 C130.149873,7.54893333 128.854807,7.88846667 127.66314,8.558 C126.912207,8.9782 126.265407,9.53626667 125.723473,10.2234 C125.36854,9.6206 124.919007,9.10726667 124.377073,8.68706667 C123.406873,7.93173333 122.160207,7.54893333 120.670807,7.54893333 C119.42194,7.54893333 118.231007,7.83053333 117.133207,8.3864 C116.670473,8.62033333 116.240007,8.9122 115.843273,9.26126667 L115.82934,8.7208 C115.819073,8.2698 115.450207,7.90973333 114.99774,7.90973333 L112.643007,7.90973333 C112.18394,7.90973333 111.812873,8.28226667 111.812873,8.74133333 L111.812873,26.3244667 C111.812873,26.7835333 112.18394,27.1560667 112.643007,27.1560667 L115.085007,27.1560667 C115.544073,27.1560667 115.91514,26.7835333 115.91514,26.3244667 L115.91514,16.3042 C115.91514,15.4036667 116.094073,14.5354 116.449007,13.7221333 C116.796607,12.9228 117.297473,12.2752667 117.98314,11.7443333 C118.62994,11.2434667 119.339073,10.9992667 120.155273,10.9992667 C121.088807,10.9992667 121.696007,11.3278 122.06414,12.0318 C122.514407,12.892 122.74394,14.1907333 122.74394,15.8913333 L122.74394,26.3244667 C122.74394,26.7835333 123.116473,27.1560667 123.57554,27.1560667 L126.016073,27.1560667 C126.47514,27.1560667 126.847673,26.7835333 126.847673,26.3244667 L126.847673,16.1663333 C126.847673,15.3046667 127.031007,14.4628 127.39254,13.6649333 C127.74894,12.8751333 128.25494,12.2415333 128.93914,11.726 C129.58814,11.2368667 130.290673,10.9992667 131.08634,10.9992667 C131.58354,10.9992667 132.000807,11.0982667 132.32494,11.2933333 C132.64614,11.4854667 132.893273,11.7656 133.081007,12.1491333 C133.300273,12.6001333 133.460873,13.1244667 133.556207,13.7052667 C133.65814,14.3227333 133.70874,15.0582667 133.70874,15.8913333 L133.70874,26.3244667 C133.70874,26.7835333 134.082007,27.1560667 134.541073,27.1560667 L136.981607,27.1560667 C137.440673,27.1560667 137.813207,26.7835333 137.813207,26.3244667 L137.813207,16.4244667 C137.813207,15.5547333 137.780207,14.762 137.71494,14.069 C137.646007,13.3488667 137.491273,12.5759333 137.253673,11.7714667" id="Fill-15" fill="#FFFFFF"></path>
                        <path d="M152.673693,17.4071333 C151.55536,16.544 149.968427,15.9324 147.829293,15.5393333 C147.246293,15.4264 146.760827,15.3259333 146.37216,15.2357333 C146.019427,15.1536 145.64396,15.0362667 145.260427,14.8852 C144.91796,14.751 144.653227,14.6094667 144.475027,14.4642667 C144.31956,14.3381333 144.19416,14.1775333 144.09296,13.9729333 C143.995427,13.7786 143.949227,13.552 143.949227,13.2792 C143.949227,12.5414667 144.186093,12.0310667 144.695027,11.6732 C145.28316,11.2603333 146.20936,11.0513333 147.44796,11.0513333 C148.443093,11.0513333 149.23656,11.2141333 149.80636,11.5360667 C150.348293,11.8433333 150.767027,12.3478667 151.086027,13.0782667 C151.22096,13.3862667 151.523093,13.5776667 151.84796,13.5776667 C151.903693,13.5776667 151.960893,13.5718 152.01736,13.5600667 C152.13836,13.5351333 152.24616,13.4852667 152.340027,13.4170667 C152.420693,13.3672 152.733827,13.1824 153.925493,12.507 C154.308293,12.2899333 154.456427,11.8125333 154.26136,11.4172667 C153.57716,10.0232 152.65316,9.01413333 151.51136,8.4172 C150.410627,7.84153333 148.99676,7.54893333 147.31156,7.54893333 C145.206893,7.54893333 143.46376,8.02853333 142.129093,8.9738 C140.705693,9.98213333 139.981893,11.4194667 139.981893,13.2447333 C139.981893,14.0154667 140.09556,14.7128667 140.316293,15.3178667 C140.540693,15.9309333 140.837693,16.4457333 141.19996,16.8498 C141.55856,17.2502 142.030827,17.6036667 142.60576,17.9014 C143.132293,18.1742 143.65076,18.392 144.146493,18.5489333 C144.62316,18.7 145.21496,18.8488667 145.905027,18.9918667 C148.51716,19.5330667 149.554093,19.9686667 149.965493,20.2385333 C150.126093,20.3448667 150.621093,20.6704667 150.621093,21.8724 C150.621093,22.4722667 150.621093,24.0665333 146.93316,24.0665333 C145.74736,24.0665333 144.846827,23.8612 144.25796,23.4556667 C143.674227,23.0538 143.199027,22.3666667 142.84996,21.4140667 C142.77076,21.2021333 142.61016,21.0312667 142.404093,20.9403333 C142.298493,20.8926667 142.182627,20.8692 142.068227,20.8692 C141.962627,20.8692 141.854827,20.8897333 141.75436,20.9308 L139.898293,21.6868667 C139.50816,21.8467333 139.298427,22.2742667 139.41136,22.6805333 C139.65776,23.5634667 140.04936,24.3466667 140.574427,25.0103333 C141.103893,25.6776667 141.727227,26.2027333 142.42976,26.5708667 C143.09416,26.9184667 143.794493,27.1751333 144.509493,27.3335333 C145.21276,27.489 145.952693,27.5682 146.70876,27.5682 C149.215293,27.5682 151.14616,27.0482667 152.447827,26.0238 C153.811093,24.9516667 154.50116,23.3984667 154.50116,21.4082 C154.50116,19.6892667 153.885893,18.3428667 152.673693,17.4071333" id="Fill-17" fill="#FFFFFF"></path>
                    </g>
                </g>
                <path d="M82.9543236,43.7967319 C82.6957086,43.7881097 82.3322699,43.900865 81.864,44.135 C81.3119972,44.4110014 80.7140032,44.9399961 80.07,45.722 C79.7786652,46.1360021 79.5563341,46.5078317 79.403,46.8375 C79.2496659,47.1671683 79.1385003,47.4508321 79.0695,47.6885 C79.0004997,47.9261679 78.966,48.1293325 78.966,48.298 C78.966,48.4666675 78.9736666,48.5969995 78.989,48.689 C79.0043334,48.7503336 79.0579995,48.8039998 79.15,48.85 C79.2420005,48.8960002 79.3569993,48.9036668 79.495,48.873 C79.8936687,48.7809995 80.2654983,48.5778349 80.6105,48.2635 C80.9555017,47.9491651 81.2698319,47.5926687 81.5535,47.194 C81.8371681,46.7953313 82.0786657,46.4043353 82.278,46.021 C82.4773343,45.6376647 82.6229995,45.3310011 82.715,45.101 C82.8683341,44.7483316 82.9488333,44.4225015 82.9565,44.1235 C82.9601725,43.9802726 82.959447,43.8713501 82.9543236,43.7967319 L82.9543236,43.7967319 Z M84.0605262,43.3886173 C84.0717468,43.3920105 84.0832381,43.3954714 84.095,43.399 C83.9569993,43.7670018 83.8381672,44.2154974 83.7385,44.7445 C83.6388328,45.2735026 83.5506671,45.8063306 83.474,46.343 C83.397333,46.8796694 83.3321669,47.3894976 83.2785,47.8725 C83.2248331,48.3555024 83.1750002,48.7349986 83.129,49.011 C83.2516673,48.8883327 83.4318321,48.7426675 83.6695,48.574 C83.9071679,48.4053325 84.1409989,48.2366675 84.371,48.068 C84.6470014,47.8839991 84.9383318,47.6923343 85.245,47.493 C85.2756668,47.5236668 85.2718335,47.5773329 85.2335,47.654 C85.1951665,47.7306671 85.1415003,47.8149995 85.0725,47.907 C85.0034997,47.9990005 84.9345003,48.0871662 84.8655,48.1715 C84.7964997,48.2558338 84.7466668,48.3133332 84.716,48.344 C84.3479982,48.7580021 84.0183348,49.1144985 83.727,49.4135 C83.4356652,49.7125015 83.1980009,49.9693323 83.014,50.184 C83.014,50.1993334 83.0101667,50.2874992 83.0025,50.4485 C82.9948333,50.6095008 82.991,50.6976666 82.991,50.713 C82.9603332,51.2343359 82.9488333,51.7594974 82.9565,52.2885 C82.9641667,52.8175026 82.9296671,53.3503307 82.853,53.887 C82.7609995,54.5003364 82.6651672,54.9948315 82.5655,55.3705 C82.4658328,55.7461685 82.3623339,56.0528321 82.255,56.2905 C82.1476661,56.5281679 82.0365006,56.7274992 81.9215,56.8885 C81.8064994,57.0495008 81.6800007,57.2296657 81.542,57.429 C81.4193327,57.5976675 81.2813341,57.7433327 81.128,57.866 C80.9746659,57.9886673 80.767668,58.1343325 80.507,58.303 C80.1543316,58.5176677 79.7863353,58.6786661 79.403,58.786 C79.0196648,58.8933339 78.6670016,58.9125003 78.345,58.8435 C78.0229984,58.7744997 77.7508344,58.6020014 77.5285,58.326 C77.3061656,58.0499986 77.1796668,57.6360028 77.149,57.084 C77.1183332,56.4706636 77.2256654,55.865003 77.471,55.267 C77.7163346,54.668997 78.007665,54.1246691 78.345,53.634 C78.682335,53.1433309 79.0119984,52.729335 79.334,52.392 C79.6560016,52.054665 79.8783327,51.8246673 80.001,51.702 C80.2003343,51.4873323 80.3804992,51.3033341 80.5415,51.15 C80.7025008,50.9966659 80.8673325,50.854834 81.036,50.7245 C81.2046675,50.594166 81.3848324,50.4523341 81.5765,50.299 C81.7681676,50.1456659 81.994332,49.9616677 82.255,49.747 C82.3163336,49.3789982 82.3546666,48.9918354 82.37,48.5855 C82.3853334,48.1791646 82.3853334,47.7613355 82.37,47.332 C82.0939986,47.8993362 81.7988349,48.3439984 81.4845,48.666 C81.1701651,48.9880016 80.8865013,49.2294992 80.6335,49.3905 C80.3804987,49.5515008 80.1735008,49.6511665 80.0125,49.6895 C79.8514992,49.7278335 79.7863332,49.747 79.817,49.747 C79.5256652,49.7930002 79.2918342,49.8045001 79.1155,49.7815 C78.9391658,49.7584999 78.8011672,49.7125003 78.7015,49.6435 C78.6018328,49.5744997 78.5251669,49.4940005 78.4715,49.402 C78.4178331,49.3099995 78.3756668,49.2180005 78.345,49.126 C78.268333,48.7273313 78.2721662,48.3171688 78.3565,47.8955 C78.4408338,47.4738312 78.5673325,47.0713353 78.736,46.688 C78.9046675,46.3046648 79.0886657,45.9520016 79.288,45.63 C79.4873343,45.3079984 79.6713325,45.0473343 79.84,44.848 C79.8706668,44.8173332 79.9434994,44.736834 80.0585,44.6065 C80.1735006,44.476166 80.3229991,44.3305008 80.507,44.1695 C80.6910009,44.0084992 80.9171653,43.8436675 81.1855,43.675 C81.4538347,43.5063325 81.7643316,43.3530007 82.117,43.215 C82.4696684,43.1383329 82.8299982,43.1038333 83.198,43.1115 C83.5660018,43.1191667 83.8649989,43.2073325 84.095,43.376 C84.0840299,43.3801138 84.0725386,43.3843195 84.0605262,43.3886173 L84.0605262,43.3886173 Z M82.9429944,43.7090925 C82.9479238,43.7293119 82.9517002,43.758525 82.9543236,43.7967319 C83.0005674,43.7982736 83.0434595,43.8036964 83.083,43.813 C83.0523332,43.813 83.037,43.7900002 83.037,43.744 L83.037,43.698 C83.1136671,43.6673332 83.2784987,43.6175003 83.5315,43.5485 C83.7618754,43.4856703 83.9382161,43.4323765 84.0605262,43.3886173 C83.9254701,43.3477746 83.8296289,43.3167358 83.773,43.2955 C83.7116664,43.2724999 83.6695001,43.261 83.6465,43.261 C83.6234999,43.261 83.6043334,43.2686666 83.589,43.284 C83.5736666,43.2993334 83.5353336,43.3223332 83.474,43.353 L83.405,43.399 L83.267,43.445 C83.190333,43.4756668 83.152,43.5063332 83.152,43.537 C83.1213332,43.537 83.0945001,43.5484999 83.0715,43.5715 C83.0484999,43.5945001 83.0446666,43.6136666 83.06,43.629 C83.0293332,43.6443334 82.9986668,43.6558333 82.968,43.6635 C82.9577777,43.6660556 82.9475555,43.6698889 82.9373333,43.675 C82.9349029,43.6762152 82.9324726,43.6775026 82.9300423,43.6788622 C82.9120282,43.6889399 82.8940142,43.7029858 82.876,43.721 C82.9015952,43.7167341 82.9239266,43.712765 82.9429944,43.7090925 C82.9924645,43.6995646 83.0199662,43.6920338 83.0255,43.6865 C83.0331667,43.6788333 83.0293334,43.675 83.014,43.675 L82.922,43.675 C82.9248458,43.675 82.9275266,43.6762874 82.9300423,43.6788622 C82.9350009,43.6839373 82.9393183,43.694014 82.9429944,43.7090925 L82.9429944,43.7090925 Z M82.347,51.472 C82.3930002,51.1193316 82.3853336,50.9046671 82.324,50.828 C82.2933332,50.7819998 82.2550002,50.7666666 82.209,50.782 C81.7949979,51.119335 81.457668,51.4029989 81.197,51.633 C80.936332,51.8630012 80.7600005,52.0163329 80.668,52.093 C79.9319963,52.7830034 79.3838351,53.3924974 79.0235,53.9215 C78.6631649,54.4505026 78.4216673,54.9373311 78.299,55.382 C78.1303325,55.8726691 78.0345001,56.3058315 78.0115,56.6815 C77.9884999,57.0571685 78.0843323,57.4213316 78.299,57.774 C78.6823353,58.0653348 79.1001644,58.1228342 79.5525,57.9465 C80.0048356,57.7701658 80.4226648,57.4980018 80.806,57.13 C81.2506689,56.6239975 81.6109986,55.9148379 81.887,55.0025 C82.1630014,54.0901621 82.3163332,52.9133405 82.347,51.472 Z M86.51,45.239 C86.51,45.2850002 86.5329998,45.4996648 86.579,45.883 C86.6250002,46.2663352 86.6786664,46.7339972 86.74,47.286 C86.8013336,47.8380028 86.8741662,48.4321635 86.9585,49.0685 C87.0428338,49.7048365 87.1194997,50.3104971 87.1885,50.8855 C87.2575003,51.4605029 87.3226664,51.9664978 87.384,52.4035 C87.4453336,52.8405022 87.4836666,53.1203327 87.499,53.243 C87.4069995,53.2276666 87.3303336,53.2123334 87.269,53.197 C87.2076664,53.1816666 87.1463336,53.1433336 87.085,53.082 C87.0236664,53.0206664 86.9508338,52.9325006 86.8665,52.8175 C86.7821662,52.7024994 86.6633341,52.5376677 86.51,52.323 C86.3106657,50.9123263 86.1535006,49.6818386 86.0385,48.6315 C85.9234994,47.5811614 85.8276671,46.7263366 85.751,46.067 C85.4749986,46.4350018 85.2756673,46.6803327 85.153,46.803 C85.0303327,46.9256673 84.9536668,46.987 84.923,46.987 C84.8769998,46.987 84.8693332,46.9180007 84.9,46.78 L84.946,46.55 C84.9613334,46.4733329 84.9766666,46.4043336 84.992,46.343 C85.0073334,46.2816664 85.0303332,46.2280002 85.061,46.182 C85.1683339,46.0286659 85.2641662,45.8753341 85.3485,45.722 C85.4328338,45.5686659 85.4979998,45.4306673 85.544,45.308 C85.6053336,45.1546659 85.6513332,45.0090007 85.682,44.871 C85.6666666,44.7023325 85.6551667,44.5566673 85.6475,44.434 C85.6398333,44.3113327 85.636,44.184834 85.636,44.0545 C85.636,43.924166 85.6321667,43.7900007 85.6245,43.652 C85.6168333,43.5139993 85.613,43.3376677 85.613,43.123 L85.613,40.8575 C85.613,40.3591642 85.6206666,39.8340028 85.636,39.282 C85.6513334,38.7299972 85.6704999,38.2048358 85.6935,37.7065 C85.7165001,37.2081642 85.7471665,36.7558354 85.7855,36.3495 C85.8238335,35.9431646 85.8659998,35.6326677 85.912,35.418 C86.0193339,34.9733311 86.1841656,34.6321679 86.4065,34.3945 C86.6288344,34.1568321 86.8626654,34.0188335 87.108,33.9805 C87.3533346,33.9421665 87.5948321,34.0034992 87.8325,34.1645 C88.0701679,34.3255008 88.2503327,34.574665 88.373,34.912 C88.5110007,35.249335 88.58,35.6863307 88.58,36.223 C88.58,36.7596693 88.5340005,37.3461635 88.442,37.9825 C88.3499995,38.6188365 88.2235008,39.2819966 88.0625,39.972 C87.9014992,40.6620035 87.7290009,41.3328301 87.545,41.9845 C87.3609991,42.6361699 87.1770009,43.2456638 86.993,43.813 C86.8089991,44.3803362 86.6480007,44.8556648 86.51,45.239 Z M86.326,43.928 C86.7093353,42.8086611 87.0236654,41.7085054 87.269,40.6275 C87.5143346,39.5464946 87.6944994,38.576671 87.8095,37.718 C87.9245006,36.859329 87.9628335,36.1655026 87.9245,35.6365 C87.8861665,35.1074974 87.7750009,34.8353334 87.591,34.82 C87.2996652,34.7126661 87.0696675,34.8123318 86.901,35.119 C86.7323325,35.4256682 86.5981672,35.8549972 86.4985,36.407 C86.3988328,36.9590028 86.3336668,37.5914964 86.303,38.3045 C86.2723332,39.0175036 86.2608333,39.7266631 86.2685,40.432 C86.2761667,41.1373369 86.2876666,41.8043302 86.303,42.433 C86.3183334,43.0616698 86.326,43.5599982 86.326,43.928 Z M88.81,43.1 C89.1013348,43.1153334 89.4233316,43.1574997 89.776,43.2265 C90.1286684,43.2955003 90.473665,43.3874994 90.811,43.5025 C91.148335,43.6175006 91.4588319,43.7478326 91.7425,43.8935 C92.0261681,44.0391674 92.2599991,44.2039991 92.444,44.388 C92.6280009,44.5566675 92.7353332,44.8134983 92.766,45.1585 C92.7966668,45.5035017 92.7736671,45.8829979 92.697,46.297 C92.620333,46.7110021 92.5015008,47.1364978 92.3405,47.5735 C92.1794992,48.0105022 91.9993343,48.4053316 91.8,48.758 C91.6006657,49.1106684 91.3860012,49.4019988 91.156,49.632 C90.9259989,49.8620011 90.7113343,49.977 90.512,49.977 C90.174665,49.977 89.8910012,49.8965008 89.661,49.7355 C89.4309989,49.5744992 89.2470007,49.3790012 89.109,49.149 C88.9709993,48.9189989 88.8675003,48.6775013 88.7985,48.4245 C88.7294997,48.1714987 88.6873334,47.9530009 88.672,47.769 C88.6259998,46.9563293 88.6183332,46.2356698 88.649,45.607 C88.6796668,44.9783302 88.733333,44.4570021 88.81,44.043 C88.7639998,43.966333 88.7180002,43.8973336 88.672,43.836 C88.6259998,43.7746664 88.5800002,43.7171669 88.534,43.6635 C88.4879998,43.6098331 88.4343336,43.5600002 88.373,43.514 C88.4343336,43.4833332 88.4956664,43.4373336 88.557,43.376 C88.6796673,43.2839995 88.7639998,43.1920005 88.81,43.1 Z M89.638,48.574 C89.6840002,48.6353336 89.745333,48.7004997 89.822,48.7695 C89.8986671,48.8385003 89.9944994,48.8921665 90.1095,48.9305 C90.2245006,48.9688335 90.3433327,48.9726668 90.466,48.942 C90.5886673,48.9113332 90.7189993,48.8270007 90.857,48.689 C91.2250018,48.3056647 91.5009991,47.9108354 91.685,47.5045 C91.8690009,47.0981646 91.9878331,46.7148351 92.0415,46.3545 C92.0951669,45.9941649 92.0875003,45.6760014 92.0185,45.4 C91.9494997,45.1239986 91.8383341,44.9246673 91.685,44.802 C91.5623327,44.725333 91.4588338,44.6601669 91.3745,44.6065 C91.2901662,44.5528331 91.182834,44.5030002 91.0525,44.457 C90.922166,44.4109998 90.7573343,44.3611669 90.558,44.3075 C90.3586657,44.2538331 90.0980016,44.1810005 89.776,44.089 C89.6226659,44.5796691 89.5153336,45.0703309 89.454,45.561 C89.3926664,46.0516691 89.3658333,46.5001646 89.3735,46.9065 C89.3811667,47.3128354 89.4118331,47.6654985 89.4655,47.9645 C89.5191669,48.2635015 89.5766664,48.4666661 89.638,48.574 Z M92.858,35.234 C92.9040002,35.234 92.9614997,35.2148335 93.0305,35.1765 C93.0995003,35.1381665 93.172333,35.1266666 93.249,35.142 C93.3256671,35.1573334 93.3946664,35.2263327 93.456,35.349 C93.5173336,35.4716673 93.5633332,35.6863318 93.594,35.993 C93.6246668,36.3763352 93.6553332,36.8439972 93.686,37.396 C93.7166668,37.9480028 93.7511665,38.5421635 93.7895,39.1785 C93.8278335,39.8148365 93.8699998,40.4779966 93.916,41.168 C93.9620002,41.8580034 94.0079998,42.5288301 94.054,43.1805 C94.1000002,43.8321699 94.1421665,44.4378305 94.1805,44.9975 C94.2188335,45.5571695 94.2533332,46.0363313 94.284,46.435 C94.3300002,46.2509991 94.4219993,46.0018349 94.56,45.6875 C94.6980007,45.3731651 94.870499,45.0435017 95.0775,44.6985 C95.284501,44.3534983 95.5259986,44.0238349 95.802,43.7095 C96.0780014,43.3951651 96.3769984,43.1536675 96.699,42.985 C96.959668,42.8776661 97.1819991,42.8201667 97.366,42.8125 C97.5500009,42.8048333 97.707166,42.8316664 97.8375,42.893 C97.967834,42.9543336 98.0751662,43.0309995 98.1595,43.123 C98.2438338,43.2150005 98.3089998,43.299333 98.355,43.376 C98.5390009,43.8206689 98.6041669,44.3343304 98.5505,44.917 C98.4968331,45.4996696 98.3511679,46.0784971 98.1135,46.6535 C97.8758321,47.2285029 97.5500021,47.7536643 97.136,48.229 C96.7219979,48.7043357 96.2390028,49.0493323 95.687,49.264 C95.3803318,49.3866673 95.1580007,49.4518333 95.02,49.4595 C94.8819993,49.4671667 94.7440007,49.471 94.606,49.471 C94.6366668,49.7010011 94.6443334,49.8543329 94.629,49.931 C94.6136666,50.0076671 94.5906668,50.0536666 94.56,50.069 C94.4986664,50.1303336 94.3990007,50.1648333 94.261,50.1725 C94.1229993,50.1801667 93.9850007,50.1686668 93.847,50.138 C93.7549995,48.941994 93.6706671,47.7843389 93.594,46.665 C93.5633332,46.1896643 93.5288335,45.6990025 93.4905,45.193 C93.4521665,44.6869975 93.4138335,44.1963357 93.3755,43.721 C93.3371665,43.2456643 93.3026668,42.7971688 93.272,42.3755 C93.2413332,41.9538312 93.2183334,41.5820016 93.203,41.26 C93.1876666,40.6773304 93.1531669,40.0333369 93.0995,39.328 C93.0458331,38.6226631 92.9960002,37.9671697 92.95,37.3615 C92.9039998,36.7558303 92.8656668,36.2460021 92.835,35.832 C92.8043332,35.4179979 92.8119998,35.2186666 92.858,35.234 Z M96.722,43.905 C96.5073323,44.0276673 96.2811679,44.2423318 96.0435,44.549 C95.8058321,44.8556682 95.583501,45.2274978 95.3765,45.6645 C95.169499,46.1015022 94.9931674,46.5806641 94.8475,47.102 C94.7018326,47.6233359 94.6136668,48.1446641 94.583,48.666 C94.8896682,48.7426671 95.2039984,48.7005008 95.526,48.5395 C95.8480016,48.3784992 96.1469986,48.1523348 96.423,47.861 C96.6990014,47.5696652 96.9481656,47.2323352 97.1705,46.849 C97.3928344,46.4656648 97.569166,46.0861685 97.6995,45.7105 C97.829834,45.3348315 97.9026666,44.9821683 97.918,44.6525 C97.9333334,44.3228317 97.8720007,44.0583343 97.734,43.859 C97.6266661,43.6596657 97.4656677,43.5868331 97.251,43.6405 C97.0363323,43.6941669 96.8600007,43.7823327 96.722,43.905 Z M103.898,43.238 C103.882667,43.3300005 103.848167,43.5216652 103.7945,43.813 C103.740833,44.1043348 103.683334,44.445498 103.622,44.8365 C103.560666,45.227502 103.507,45.6376645 103.461,46.067 C103.415,46.4963355 103.388167,46.9026647 103.3805,47.286 C103.372833,47.6693353 103.395833,47.9951653 103.4495,48.2635 C103.503167,48.5318347 103.591333,48.6966664 103.714,48.758 C104.066668,48.9266675 104.426998,48.8691681 104.795,48.5855 C105.163002,48.3018319 105.592331,47.8686696 106.083,47.286 C106.129,47.286 106.132834,47.3473327 106.0945,47.47 C106.056166,47.5926673 105.994834,47.7268326 105.9105,47.8725 L105.6575,48.3095 C105.573166,48.4551674 105.508,48.5509998 105.462,48.597 C105.339333,48.7503341 105.163001,48.9228324 104.933,49.1145 C104.702999,49.3061676 104.457668,49.4594994 104.197,49.5745 C103.936332,49.6895006 103.687168,49.7393334 103.4495,49.724 C103.211832,49.7086666 103.016334,49.570668 102.863,49.31 C102.786333,49.1259991 102.740333,48.8998347 102.725,48.6315 C102.709667,48.3631653 102.709667,48.0910014 102.725,47.815 C102.740333,47.5389986 102.763333,47.2860012 102.794,47.056 C102.824667,46.8259989 102.847667,46.6573339 102.863,46.55 C102.540998,47.148003 102.173002,47.7153306 101.759,48.252 C101.344998,48.7886693 100.938669,49.2103318 100.54,49.517 C100.141331,49.8236682 99.773335,49.9884999 99.436,50.0115 C99.098665,50.0345001 98.8380009,49.8390021 98.654,49.425 C98.5466661,49.0263313 98.5466661,48.5778358 98.654,48.0795 C98.7613339,47.5811642 98.9223323,47.1326687 99.137,46.734 C99.4590016,46.1819972 99.7963316,45.6760023 100.149,45.216 C100.501668,44.7559977 100.877331,44.3650016 101.276,44.043 C101.674669,43.7209984 102.092498,43.4871674 102.5295,43.3415 C102.966502,43.1958326 103.422664,43.161333 103.898,43.238 Z M99.574,49.08 C99.7273341,49.1106668 99.972665,48.995668 100.31,48.735 C100.647335,48.474332 100.999998,48.110169 101.368,47.6425 C101.736002,47.174831 102.069499,46.6305031 102.3685,46.0095 C102.667501,45.3884969 102.863,44.7330034 102.955,44.043 L102.6905,44.043 C102.575499,44.043 102.441334,44.0889995 102.288,44.181 C101.70533,44.5643352 101.207002,45.0128308 100.793,45.5265 C100.378998,46.0401692 100.057001,46.5384976 99.827,47.0215 C99.5969989,47.5045024 99.4590002,47.9376647 99.413,48.321 C99.3669998,48.7043352 99.4206659,48.9573327 99.574,49.08 Z M106.865,45.239 C106.865,45.2850002 106.888,45.4996648 106.934,45.883 C106.98,46.2663352 107.033666,46.7339972 107.095,47.286 C107.156334,47.8380028 107.229166,48.4321635 107.3135,49.0685 C107.397834,49.7048365 107.4745,50.3104971 107.5435,50.8855 C107.6125,51.4605029 107.677666,51.9664978 107.739,52.4035 C107.800334,52.8405022 107.838667,53.1203327 107.854,53.243 C107.762,53.2276666 107.685334,53.2123334 107.624,53.197 C107.562666,53.1816666 107.501334,53.1433336 107.44,53.082 C107.378666,53.0206664 107.305834,52.9325006 107.2215,52.8175 C107.137166,52.7024994 107.018334,52.5376677 106.865,52.323 C106.665666,50.9123263 106.508501,49.6818386 106.3935,48.6315 C106.278499,47.5811614 106.182667,46.7263366 106.106,46.067 C105.829999,46.4350018 105.630667,46.6803327 105.508,46.803 C105.385333,46.9256673 105.308667,46.987 105.278,46.987 C105.232,46.987 105.224333,46.9180007 105.255,46.78 L105.301,46.55 C105.316333,46.4733329 105.331667,46.4043336 105.347,46.343 C105.362333,46.2816664 105.385333,46.2280002 105.416,46.182 C105.523334,46.0286659 105.619166,45.8753341 105.7035,45.722 C105.787834,45.5686659 105.853,45.4306673 105.899,45.308 C105.960334,45.1546659 106.006333,45.0090007 106.037,44.871 C106.021667,44.7023325 106.010167,44.5566673 106.0025,44.434 C105.994833,44.3113327 105.991,44.184834 105.991,44.0545 C105.991,43.924166 105.987167,43.7900007 105.9795,43.652 C105.971833,43.5139993 105.968,43.3376677 105.968,43.123 L105.968,40.8575 C105.968,40.3591642 105.975667,39.8340028 105.991,39.282 C106.006333,38.7299972 106.0255,38.2048358 106.0485,37.7065 C106.0715,37.2081642 106.102166,36.7558354 106.1405,36.3495 C106.178834,35.9431646 106.221,35.6326677 106.267,35.418 C106.374334,34.9733311 106.539166,34.6321679 106.7615,34.3945 C106.983834,34.1568321 107.217665,34.0188335 107.463,33.9805 C107.708335,33.9421665 107.949832,34.0034992 108.1875,34.1645 C108.425168,34.3255008 108.605333,34.574665 108.728,34.912 C108.866001,35.249335 108.935,35.6863307 108.935,36.223 C108.935,36.7596693 108.889,37.3461635 108.797,37.9825 C108.705,38.6188365 108.578501,39.2819966 108.4175,39.972 C108.256499,40.6620035 108.084001,41.3328301 107.9,41.9845 C107.715999,42.6361699 107.532001,43.2456638 107.348,43.813 C107.163999,44.3803362 107.003001,44.8556648 106.865,45.239 Z M106.681,43.928 C107.064335,42.8086611 107.378665,41.7085054 107.624,40.6275 C107.869335,39.5464946 108.049499,38.576671 108.1645,37.718 C108.279501,36.859329 108.317834,36.1655026 108.2795,35.6365 C108.241166,35.1074974 108.130001,34.8353334 107.946,34.82 C107.654665,34.7126661 107.424668,34.8123318 107.256,35.119 C107.087332,35.4256682 106.953167,35.8549972 106.8535,36.407 C106.753833,36.9590028 106.688667,37.5914964 106.658,38.3045 C106.627333,39.0175036 106.615833,39.7266631 106.6235,40.432 C106.631167,41.1373369 106.642667,41.8043302 106.658,42.433 C106.673333,43.0616698 106.681,43.5599982 106.681,43.928 Z M111.626,35.234 C111.672,35.234 111.7295,35.2148335 111.7985,35.1765 C111.8675,35.1381665 111.940333,35.1266666 112.017,35.142 C112.093667,35.1573334 112.162666,35.2263327 112.224,35.349 C112.285334,35.4716673 112.331333,35.6863318 112.362,35.993 C112.392667,36.3763352 112.423333,36.8439972 112.454,37.396 C112.484667,37.9480028 112.519166,38.5421635 112.5575,39.1785 C112.595834,39.8148365 112.638,40.4779966 112.684,41.168 C112.73,41.8580034 112.776,42.5288301 112.822,43.1805 C112.868,43.8321699 112.910166,44.4378305 112.9485,44.9975 C112.986834,45.5571695 113.021333,46.0363313 113.052,46.435 C113.098,46.2509991 113.189999,46.0018349 113.328,45.6875 C113.466001,45.3731651 113.638499,45.0435017 113.8455,44.6985 C114.052501,44.3534983 114.293999,44.0238349 114.57,43.7095 C114.846001,43.3951651 115.144998,43.1536675 115.467,42.985 C115.727668,42.8776661 115.949999,42.8201667 116.134,42.8125 C116.318001,42.8048333 116.475166,42.8316664 116.6055,42.893 C116.735834,42.9543336 116.843166,43.0309995 116.9275,43.123 C117.011834,43.2150005 117.077,43.299333 117.123,43.376 C117.307001,43.8206689 117.372167,44.3343304 117.3185,44.917 C117.264833,45.4996696 117.119168,46.0784971 116.8815,46.6535 C116.643832,47.2285029 116.318002,47.7536643 115.904,48.229 C115.489998,48.7043357 115.007003,49.0493323 114.455,49.264 C114.148332,49.3866673 113.926001,49.4518333 113.788,49.4595 C113.649999,49.4671667 113.512001,49.471 113.374,49.471 C113.404667,49.7010011 113.412333,49.8543329 113.397,49.931 C113.381667,50.0076671 113.358667,50.0536666 113.328,50.069 C113.266666,50.1303336 113.167001,50.1648333 113.029,50.1725 C112.890999,50.1801667 112.753001,50.1686668 112.615,50.138 C112.523,48.941994 112.438667,47.7843389 112.362,46.665 C112.331333,46.1896643 112.296834,45.6990025 112.2585,45.193 C112.220166,44.6869975 112.181834,44.1963357 112.1435,43.721 C112.105166,43.2456643 112.070667,42.7971688 112.04,42.3755 C112.009333,41.9538312 111.986333,41.5820016 111.971,41.26 C111.955667,40.6773304 111.921167,40.0333369 111.8675,39.328 C111.813833,38.6226631 111.764,37.9671697 111.718,37.3615 C111.672,36.7558303 111.633667,36.2460021 111.603,35.832 C111.572333,35.4179979 111.58,35.2186666 111.626,35.234 Z M115.49,43.905 C115.275332,44.0276673 115.049168,44.2423318 114.8115,44.549 C114.573832,44.8556682 114.351501,45.2274978 114.1445,45.6645 C113.937499,46.1015022 113.761167,46.5806641 113.6155,47.102 C113.469833,47.6233359 113.381667,48.1446641 113.351,48.666 C113.657668,48.7426671 113.971998,48.7005008 114.294,48.5395 C114.616002,48.3784992 114.914999,48.1523348 115.191,47.861 C115.467001,47.5696652 115.716166,47.2323352 115.9385,46.849 C116.160834,46.4656648 116.337166,46.0861685 116.4675,45.7105 C116.597834,45.3348315 116.670667,44.9821683 116.686,44.6525 C116.701333,44.3228317 116.640001,44.0583343 116.502,43.859 C116.394666,43.6596657 116.233668,43.5868331 116.019,43.6405 C115.804332,43.6941669 115.628001,43.7823327 115.49,43.905 Z M120.067,43.491 C120.113,43.4756666 120.243332,43.4335003 120.458,43.3645 C120.672668,43.2954997 120.848999,43.2839998 120.987,43.33 C121.431669,43.3146666 121.772832,43.4296654 122.0105,43.675 C122.248168,43.9203346 122.267334,44.3956631 122.068,45.101 C121.776665,45.8830039 121.389502,46.5346641 120.9065,47.056 C120.423498,47.5773359 119.852337,48.0756643 119.193,48.551 C119.346334,48.9496687 119.576332,49.1719998 119.883,49.218 C120.189668,49.2640002 120.511665,49.2141674 120.849,49.0685 C121.186335,48.9228326 121.515998,48.7273346 121.838,48.482 C122.160002,48.2366654 122.420666,48.0220009 122.62,47.838 C122.942002,47.5619986 123.198832,47.3281676 123.3905,47.1365 C123.582168,46.9448324 123.785332,46.7110014 124,46.435 C124.046,46.4043332 124.072833,46.4081665 124.0805,46.4465 C124.088167,46.4848335 124.084333,46.542333 124.069,46.619 C124.053667,46.695667 124.030667,46.8029993 124,46.941 C123.954,47.0483339 123.908,47.1441662 123.862,47.2285 C123.816,47.3128338 123.750834,47.4048328 123.6665,47.5045 C123.582166,47.6041672 123.471001,47.7229993 123.333,47.861 C123.194999,47.9990007 123.026334,48.1829989 122.827,48.413 C122.596999,48.6276677 122.374668,48.838499 122.16,49.0455 C121.945332,49.252501 121.719168,49.4326659 121.4815,49.586 C121.243832,49.7393341 120.983168,49.8466664 120.6995,49.908 C120.415832,49.9693336 120.090002,49.9693336 119.722,49.908 C119.415332,49.8006661 119.170001,49.6856673 118.986,49.563 C118.801999,49.4403327 118.660167,49.313834 118.5605,49.1835 C118.460833,49.053166 118.388,48.9343339 118.342,48.827 C118.296,48.7196661 118.265333,48.627667 118.25,48.551 C118.173333,48.2443318 118.142667,47.8303359 118.158,47.309 C118.173333,46.7876641 118.326665,46.1130041 118.618,45.285 C118.817334,44.8556645 119.031999,44.4915015 119.262,44.1925 C119.492001,43.8934985 119.760332,43.6596675 120.067,43.491 Z M119.055,47.562 C119.254334,47.4546661 119.488165,47.3051676 119.7565,47.1135 C120.024835,46.9218324 120.277832,46.6995013 120.5155,46.4465 C120.753168,46.1934987 120.960166,45.9136682 121.1365,45.607 C121.312834,45.3003318 121.408667,44.978335 121.424,44.641 C121.47,44.4109988 121.462334,44.2500005 121.401,44.158 C121.370333,44.1119998 121.339667,44.089 121.309,44.089 C121.048332,43.9663327 120.787668,44.0046657 120.527,44.204 C120.266332,44.4033343 120.028668,44.6869982 119.814,45.055 C119.599332,45.4230018 119.419167,45.8331644 119.2735,46.2855 C119.127833,46.7378356 119.055,47.1633313 119.055,47.562 Z M131.337,37.902 C131.291,38.1780014 131.237334,38.4693318 131.176,38.776 C131.114666,39.0826682 131.0495,39.3739986 130.9805,39.65 C130.9115,39.9260014 130.854,40.1636657 130.808,40.363 C130.762,40.5623343 130.731333,40.6849998 130.716,40.731 C130.624,40.991668 130.501334,41.3289979 130.348,41.743 C130.194666,42.1570021 130.014501,42.5901644 129.8075,43.0425 C129.600499,43.4948356 129.366668,43.9471644 129.106,44.3995 C128.845332,44.8518356 128.577001,45.2389984 128.301,45.561 C128.301,45.7910011 128.327833,46.1781639 128.3815,46.7225 C128.435167,47.2668361 128.500333,47.8533302 128.577,48.482 C128.653667,49.1106698 128.7265,49.7278303 128.7955,50.3335 C128.8645,50.9391697 128.906667,51.410665 128.922,51.748 C128.845333,51.824667 128.776334,51.8093339 128.715,51.702 C128.653666,51.5946661 128.561667,51.410668 128.439,51.15 C128.347,50.7513313 128.274167,50.383335 128.2205,50.046 C128.166833,49.708665 128.117,49.3675017 128.071,49.0225 C128.025,48.6774983 127.975167,48.3133352 127.9215,47.93 C127.867833,47.5466647 127.787334,47.1096691 127.68,46.619 C127.388665,46.9870018 127.039835,47.404831 126.6335,47.8725 C126.227165,48.340169 125.805502,48.7541649 125.3685,49.1145 C124.931498,49.4748351 124.502169,49.7278326 124.0805,49.8735 C123.658831,50.0191674 123.294668,49.9540014 122.988,49.678 C122.803999,49.4326654 122.7235,49.1451683 122.7465,48.8155 C122.7695,48.4858317 122.861499,48.1485017 123.0225,47.8035 C123.183501,47.4584983 123.390499,47.117335 123.6435,46.78 C123.896501,46.442665 124.153332,46.1283348 124.414,45.837 C124.674668,45.5456652 124.919999,45.2926677 125.15,45.078 C125.380001,44.8633323 125.548666,44.7100005 125.656,44.618 C125.870668,44.4799993 126.050833,44.3688338 126.1965,44.2845 C126.342167,44.2001662 126.472499,44.1311669 126.5875,44.0775 C126.702501,44.0238331 126.821333,43.9855001 126.944,43.9625 C127.066667,43.9394999 127.219999,43.9356666 127.404,43.951 C127.373333,43.5983316 127.354167,43.1766691 127.3465,42.686 C127.338833,42.1953309 127.338833,41.7008358 127.3465,41.2025 C127.354167,40.7041642 127.3695,40.2403355 127.3925,39.811 C127.4155,39.3816645 127.45,39.0520012 127.496,38.822 C127.526667,38.484665 127.599499,38.1320018 127.7145,37.764 C127.829501,37.3959982 127.975166,37.0395017 128.1515,36.6945 C128.327834,36.3494983 128.523332,36.0428347 128.738,35.7745 C128.952668,35.5061653 129.186499,35.3145006 129.4395,35.1995 C129.692501,35.0844994 129.953165,35.0576664 130.2215,35.119 C130.489835,35.1803336 130.754332,35.3719984 131.015,35.694 C131.229668,35.954668 131.337,36.280498 131.337,36.6715 L131.337,37.902 Z M128.301,44.043 C128.577001,43.7363318 128.806999,43.4105017 128.991,43.0655 C129.175001,42.7204983 129.381999,42.3103357 129.612,41.835 C129.811334,41.4209979 129.991499,40.8920032 130.1525,40.248 C130.313501,39.6039968 130.424666,38.9715031 130.486,38.3505 C130.547334,37.7294969 130.547334,37.1890023 130.486,36.729 C130.424666,36.2689977 130.271335,36.0236668 130.026,35.993 C129.811332,35.9623332 129.612001,36.0428324 129.428,36.2345 C129.243999,36.4261676 129.075334,36.6638319 128.922,36.9475 C128.768666,37.2311681 128.638334,37.5339984 128.531,37.856 C128.423666,38.1780016 128.347,38.4616654 128.301,38.707 C128.239666,39.0136682 128.1975,39.2896654 128.1745,39.535 C128.1515,39.7803346 128.136167,40.0371653 128.1285,40.3055 C128.120833,40.5738347 128.109333,40.8651651 128.094,41.1795 C128.078667,41.4938349 128.048,41.8809977 128.002,42.341 C128.002,42.5710012 128.0135,42.8009988 128.0365,43.031 C128.0595,43.2610011 128.090166,43.4564992 128.1285,43.6175 C128.166834,43.7785008 128.201333,43.9011662 128.232,43.9855 C128.262667,44.0698338 128.285667,44.0890002 128.301,44.043 Z M124.966,46.182 C124.551998,46.6113355 124.249168,47.0061649 124.0575,47.3665 C123.865832,47.7268351 123.708667,48.0603318 123.586,48.367 L123.586,48.5855 C123.586,48.6851672 123.5975,48.7809995 123.6205,48.873 C123.6435,48.9650005 123.6895,49.0454997 123.7585,49.1145 C123.8275,49.1835003 123.938666,49.2026668 124.092,49.172 C124.245334,49.1106664 124.371833,49.0493336 124.4715,48.988 C124.571167,48.9266664 124.663166,48.8615003 124.7475,48.7925 C124.831834,48.7234997 124.923833,48.650667 125.0235,48.574 C125.123167,48.497333 125.249666,48.3976673 125.403,48.275 C125.617668,48.0449988 125.882165,47.7843348 126.1965,47.493 C126.510835,47.2016652 126.786832,46.8950016 127.0245,46.573 C127.262168,46.2509984 127.419333,45.921335 127.496,45.584 C127.572667,45.246665 127.473001,44.9170016 127.197,44.595 C127.089666,44.595 126.978501,44.6103332 126.8635,44.641 C126.748499,44.6716668 126.606668,44.7444994 126.438,44.8595 C126.269332,44.9745006 126.066168,45.135499 125.8285,45.3425 C125.590832,45.549501 125.303335,45.8293316 124.966,46.182 Z M132.418,35.234 C132.464,35.234 132.5215,35.2148335 132.5905,35.1765 C132.6595,35.1381665 132.732333,35.1266666 132.809,35.142 C132.885667,35.1573334 132.954666,35.2263327 133.016,35.349 C133.077334,35.4716673 133.123333,35.6863318 133.154,35.993 C133.184667,36.3763352 133.215333,36.8439972 133.246,37.396 C133.276667,37.9480028 133.311166,38.5421635 133.3495,39.1785 C133.387834,39.8148365 133.43,40.4779966 133.476,41.168 C133.522,41.8580034 133.568,42.5288301 133.614,43.1805 C133.66,43.8321699 133.702166,44.4378305 133.7405,44.9975 C133.778834,45.5571695 133.813333,46.0363313 133.844,46.435 C133.89,46.2509991 133.981999,46.0018349 134.12,45.6875 C134.258001,45.3731651 134.430499,45.0435017 134.6375,44.6985 C134.844501,44.3534983 135.085999,44.0238349 135.362,43.7095 C135.638001,43.3951651 135.936998,43.1536675 136.259,42.985 C136.519668,42.8776661 136.741999,42.8201667 136.926,42.8125 C137.110001,42.8048333 137.267166,42.8316664 137.3975,42.893 C137.527834,42.9543336 137.635166,43.0309995 137.7195,43.123 C137.803834,43.2150005 137.869,43.299333 137.915,43.376 C138.099001,43.8206689 138.164167,44.3343304 138.1105,44.917 C138.056833,45.4996696 137.911168,46.0784971 137.6735,46.6535 C137.435832,47.2285029 137.110002,47.7536643 136.696,48.229 C136.281998,48.7043357 135.799003,49.0493323 135.247,49.264 C134.940332,49.3866673 134.718001,49.4518333 134.58,49.4595 C134.441999,49.4671667 134.304001,49.471 134.166,49.471 C134.196667,49.7010011 134.204333,49.8543329 134.189,49.931 C134.173667,50.0076671 134.150667,50.0536666 134.12,50.069 C134.058666,50.1303336 133.959001,50.1648333 133.821,50.1725 C133.682999,50.1801667 133.545001,50.1686668 133.407,50.138 C133.315,48.941994 133.230667,47.7843389 133.154,46.665 C133.123333,46.1896643 133.088834,45.6990025 133.0505,45.193 C133.012166,44.6869975 132.973834,44.1963357 132.9355,43.721 C132.897166,43.2456643 132.862667,42.7971688 132.832,42.3755 C132.801333,41.9538312 132.778333,41.5820016 132.763,41.26 C132.747667,40.6773304 132.713167,40.0333369 132.6595,39.328 C132.605833,38.6226631 132.556,37.9671697 132.51,37.3615 C132.464,36.7558303 132.425667,36.2460021 132.395,35.832 C132.364333,35.4179979 132.372,35.2186666 132.418,35.234 Z M136.282,43.905 C136.067332,44.0276673 135.841168,44.2423318 135.6035,44.549 C135.365832,44.8556682 135.143501,45.2274978 134.9365,45.6645 C134.729499,46.1015022 134.553167,46.5806641 134.4075,47.102 C134.261833,47.6233359 134.173667,48.1446641 134.143,48.666 C134.449668,48.7426671 134.763998,48.7005008 135.086,48.5395 C135.408002,48.3784992 135.706999,48.1523348 135.983,47.861 C136.259001,47.5696652 136.508166,47.2323352 136.7305,46.849 C136.952834,46.4656648 137.129166,46.0861685 137.2595,45.7105 C137.389834,45.3348315 137.462667,44.9821683 137.478,44.6525 C137.493333,44.3228317 137.432001,44.0583343 137.294,43.859 C137.186666,43.6596657 137.025668,43.5868331 136.811,43.6405 C136.596332,43.6941669 136.420001,43.7823327 136.282,43.905 Z M143.458,43.238 C143.442667,43.3300005 143.408167,43.5216652 143.3545,43.813 C143.300833,44.1043348 143.243334,44.445498 143.182,44.8365 C143.120666,45.227502 143.067,45.6376645 143.021,46.067 C142.975,46.4963355 142.948167,46.9026647 142.9405,47.286 C142.932833,47.6693353 142.955833,47.9951653 143.0095,48.2635 C143.063167,48.5318347 143.151333,48.6966664 143.274,48.758 C143.626668,48.9266675 143.986998,48.8691681 144.355,48.5855 C144.723002,48.3018319 145.152331,47.8686696 145.643,47.286 C145.689,47.286 145.692834,47.3473327 145.6545,47.47 C145.616166,47.5926673 145.554834,47.7268326 145.4705,47.8725 L145.2175,48.3095 C145.133166,48.4551674 145.068,48.5509998 145.022,48.597 C144.899333,48.7503341 144.723001,48.9228324 144.493,49.1145 C144.262999,49.3061676 144.017668,49.4594994 143.757,49.5745 C143.496332,49.6895006 143.247168,49.7393334 143.0095,49.724 C142.771832,49.7086666 142.576334,49.570668 142.423,49.31 C142.346333,49.1259991 142.300333,48.8998347 142.285,48.6315 C142.269667,48.3631653 142.269667,48.0910014 142.285,47.815 C142.300333,47.5389986 142.323333,47.2860012 142.354,47.056 C142.384667,46.8259989 142.407667,46.6573339 142.423,46.55 C142.100998,47.148003 141.733002,47.7153306 141.319,48.252 C140.904998,48.7886693 140.498669,49.2103318 140.1,49.517 C139.701331,49.8236682 139.333335,49.9884999 138.996,50.0115 C138.658665,50.0345001 138.398001,49.8390021 138.214,49.425 C138.106666,49.0263313 138.106666,48.5778358 138.214,48.0795 C138.321334,47.5811642 138.482332,47.1326687 138.697,46.734 C139.019002,46.1819972 139.356332,45.6760023 139.709,45.216 C140.061668,44.7559977 140.437331,44.3650016 140.836,44.043 C141.234669,43.7209984 141.652498,43.4871674 142.0895,43.3415 C142.526502,43.1958326 142.982664,43.161333 143.458,43.238 Z M139.134,49.08 C139.287334,49.1106668 139.532665,48.995668 139.87,48.735 C140.207335,48.474332 140.559998,48.110169 140.928,47.6425 C141.296002,47.174831 141.629499,46.6305031 141.9285,46.0095 C142.227501,45.3884969 142.423,44.7330034 142.515,44.043 L142.2505,44.043 C142.135499,44.043 142.001334,44.0889995 141.848,44.181 C141.26533,44.5643352 140.767002,45.0128308 140.353,45.5265 C139.938998,46.0401692 139.617001,46.5384976 139.387,47.0215 C139.156999,47.5045024 139.019,47.9376647 138.973,48.321 C138.927,48.7043352 138.980666,48.9573327 139.134,49.08 Z M146.333,42.985 C146.333,43.4143355 146.329167,43.8436645 146.3215,44.273 C146.313833,44.7023355 146.306167,45.1163313 146.2985,45.515 C146.290833,45.9136687 146.283167,46.2893316 146.2755,46.642 C146.267833,46.9946684 146.256333,47.3089986 146.241,47.585 C146.241,47.5236664 146.2755,47.3741679 146.3445,47.1365 C146.4135,46.8988321 146.509333,46.6266682 146.632,46.32 C146.754667,46.0133318 146.888833,45.6875017 147.0345,45.3425 C147.180167,44.9974983 147.337332,44.6908347 147.506,44.4225 C147.674668,44.1541653 147.847166,43.9433341 148.0235,43.79 C148.199834,43.6366659 148.364666,43.5906664 148.518,43.652 C148.855335,43.8053341 149.092999,44.0276652 149.231,44.319 C149.369001,44.6103348 149.468666,44.9438315 149.53,45.3195 C149.591334,45.6951685 149.652666,46.1129977 149.714,46.573 C149.775334,47.0330023 149.913332,47.5159975 150.128,48.022 C150.22,48.2520011 150.354166,48.4206661 150.5305,48.528 C150.706834,48.6353339 150.875499,48.7119998 151.0365,48.758 C151.197501,48.8040002 151.327833,48.8308333 151.4275,48.8385 C151.527167,48.8461667 151.561667,48.8729998 151.531,48.919 C151.147665,49.2103348 150.818001,49.3100005 150.542,49.218 C150.265999,49.1259995 150.032168,48.9228349 149.8405,48.6085 C149.648832,48.2941651 149.491667,47.9185022 149.369,47.4815 C149.246333,47.0444978 149.135167,46.6228354 149.0355,46.2165 C148.935833,45.8101646 148.847667,45.4651681 148.771,45.1815 C148.694333,44.8978319 148.61,44.756 148.518,44.756 C148.379999,44.7713334 148.230501,44.9016654 148.0695,45.147 C147.908499,45.3923346 147.743668,45.6989982 147.575,46.067 C147.406332,46.4350018 147.245334,46.8374978 147.092,47.2745 C146.938666,47.7115022 146.796834,48.1216648 146.6665,48.505 C146.536166,48.8883352 146.432667,49.2179986 146.356,49.494 C146.279333,49.7700014 146.233333,49.9386664 146.218,50 C145.987999,50 145.846167,50.0076666 145.7925,50.023 C145.738833,50.0383334 145.650667,49.9616675 145.528,49.793 C145.604667,48.4436599 145.6315,47.1671727 145.6085,45.9635 C145.5855,44.7598273 145.551,43.7133378 145.505,42.824 C145.505,42.6859993 145.5395,42.617 145.6085,42.617 C145.6775,42.617 145.754166,42.6476664 145.8385,42.709 C145.922834,42.7703336 146.011,42.8316664 146.103,42.893 C146.195,42.9543336 146.271666,42.985 146.333,42.985 Z M152.888,45.492 C153.240668,45.5686671 153.558832,45.6299998 153.8425,45.676 C154.126168,45.7220002 154.409832,45.7641665 154.6935,45.8025 C154.977168,45.8408335 155.291498,45.8753332 155.6365,45.906 C155.981502,45.9366668 156.391664,45.9749998 156.867,46.021 C157.005001,46.1743341 157.097,46.3008328 157.143,46.4005 C157.189,46.5001672 157.250333,46.6573323 157.327,46.872 C156.836331,46.7799995 156.391669,46.7110002 155.993,46.665 C155.594331,46.6189998 155.199502,46.5806668 154.8085,46.55 C154.417498,46.5193332 154.015002,46.4925001 153.601,46.4695 C153.186998,46.4464999 152.727003,46.4120002 152.221,46.366 C152.205667,47.1480039 152.221,47.8418303 152.267,48.4475 C152.313,49.0531697 152.313,49.6013309 152.267,50.092 C152.175,50.1073334 152.102167,50.0920002 152.0485,50.046 C151.994833,49.9999998 151.945,49.9463336 151.899,49.885 C151.853,49.8236664 151.803167,49.7585003 151.7495,49.6895 C151.695833,49.6204997 151.623,49.5706668 151.531,49.54 C151.577,47.4239894 151.569334,45.4766756 151.508,43.698 C151.446666,41.9193244 151.431333,40.2173415 151.462,38.592 C151.462,38.2853318 151.465833,37.936502 151.4735,37.5455 C151.481167,37.154498 151.485,36.7711685 151.485,36.3955 C151.485,36.0198315 151.477333,35.6825015 151.462,35.3835 C151.446667,35.0844985 151.416,34.8813339 151.37,34.774 C151.477334,34.6513327 151.580833,34.5746668 151.6805,34.544 C151.780167,34.5133332 151.960332,34.4903334 152.221,34.475 C152.251667,36.345676 152.251667,38.1933242 152.221,40.018 C152.190333,41.8426758 152.190333,43.5753251 152.221,45.216 C152.481668,45.0166657 152.757665,44.7713348 153.049,44.48 C153.340335,44.1886652 153.612499,43.9050014 153.8655,43.629 C154.118501,43.3529986 154.336999,43.111501 154.521,42.9045 C154.705001,42.697499 154.82,42.5863334 154.866,42.571 C155.004001,42.6936673 155.145833,42.7971662 155.2915,42.8815 C155.437167,42.9658338 155.51,43.0003334 155.51,42.985 C155.126665,43.4143355 154.728002,43.8704976 154.314,44.3535 C153.899998,44.8365024 153.424669,45.2159986 152.888,45.492 Z" id="global-bedbank" fill="#FFFFFF"></path>
            </g>
        </g>
    </g>
</svg>