<?xml version="1.0" encoding="UTF-8" standalone="no"?>
<svg width="216px" height="46px" viewBox="0 0 216 46" version="1.1" xmlns="http://www.w3.org/2000/svg" xmlns:xlink="http://www.w3.org/1999/xlink">
    <!-- Generator: Sketch 41 (35326) - http://www.bohemiancoding.com/sketch -->
    <title>Group Copy</title>
    <desc>Created with Sketch.</desc>
    <defs></defs>
    <g id="Page-1" stroke="none" stroke-width="1" fill="none" fill-rule="evenodd">
        <g id="Home_Smyrooms" transform="translate(-352.000000, -6380.000000)">
            <g id="Group-27" transform="translate(352.000000, 6380.000000)">
                <g id="Group-Copy">
                    <g id="Group-13">
                        <g id="Group-19">
                            <g id="Group-5">
                                <path d="M63.9486063,16.3790667 C63.5955761,15.1922667 63.1009233,14.1823111 62.4790154,13.3778222 C61.83453,12.5426667 60.9416919,11.8455111 59.8292362,11.3047556 C58.7208855,10.7670667 57.4042059,10.4931111 55.9171686,10.4931111 C54.0062899,10.4931111 52.192905,10.9664 50.5252477,11.8996889 C49.4764195,12.4864444 48.5692139,13.2623111 47.8108147,14.2211556 C47.3141094,13.3808889 46.6850177,12.6653333 45.9276447,12.0796 C44.5699151,11.0267111 42.8242627,10.4931111 40.7399476,10.4931111 C38.9922427,10.4931111 37.3266379,10.8856444 35.7882882,11.6604889 C35.1417503,11.9865778 34.5383149,12.3944444 33.9851658,12.8789778 L33.9646408,12.1266222 C33.949247,11.4979556 33.4340692,10.9960444 32.8018988,10.9960444 L29.5076341,10.9960444 C28.8631487,10.9960444 28.3428396,11.5153333 28.3428396,12.1552444 L28.3428396,23.2432889 C28.2340571,22.9652444 28.1242482,22.6912889 28.0000719,22.4428889 C27.6614092,21.7692444 27.1759926,21.1232 26.5540847,20.5231556 C25.9834894,19.9732 25.4098152,19.4937778 24.8505086,19.1012444 C24.2860708,18.7046222 23.5738528,18.2957333 22.682041,17.8510667 C21.8240954,17.4248 21.0287512,17.0608889 20.3144807,16.7726222 C19.619709,16.4904889 18.7320022,16.1408889 17.6390452,15.7187111 C17.1136049,15.5214222 16.3664944,15.2679111 15.3977138,14.9571556 C14.4535632,14.6556 13.6664289,14.4000444 13.0352848,14.1925333 C12.4534007,14.0024 11.7822327,13.7233333 11.038201,13.3645333 C10.3372718,13.0261778 9.78001768,12.6837333 9.38285867,12.3494667 C9.02367094,12.0458667 8.70758574,11.6420889 8.44076057,11.1514222 C8.19446041,10.6955111 8.07438908,10.2007556 8.07438908,9.63955556 C8.07438908,8.13177778 8.64908945,7.09422222 9.88059024,6.3756 C11.2793699,5.55884444 13.1533036,5.14484444 15.4500526,5.14484444 C17.1844162,5.14484444 18.7853672,5.53737778 20.2087769,6.30813333 C21.6321866,7.08093333 22.7343798,8.17777778 23.5779578,9.66102222 C23.7421579,9.94928889 24.0233506,10.1537333 24.3496983,10.2232444 C24.4297459,10.2396 24.5097934,10.2477778 24.589841,10.2477778 C24.8371674,10.2477778 25.081415,10.1690667 25.2815339,10.0198222 L27.8800006,8.10315556 C28.3767059,7.73822222 28.4988297,7.05128889 28.1622195,6.53711111 C26.6546573,4.24426667 24.8022749,2.55964444 22.6543322,1.52822222 C20.5392296,0.514177778 17.9458942,0 14.9451373,0 C13.3318712,0 11.7719702,0.189111111 10.3126418,0.563244444 C8.83381457,0.942488889 7.46890119,1.518 6.25792541,2.2724 C4.98434834,3.06768889 3.95809768,4.13591111 3.20688219,5.44844444 C2.45053546,6.77017778 2.06774396,8.27693333 2.06774396,9.92782222 C2.06774396,10.3888444 2.09545273,10.8396444 2.15394902,11.2986222 C2.56342303,13.9778667 4.24031661,16.1470222 7.13844848,17.7437333 C8.33095175,18.4061333 10.3434293,19.2239111 13.3493175,20.2655556 C13.4396275,20.2911111 13.5679089,20.3371111 13.7700802,20.4137778 C15.0652086,20.8604889 15.9477842,21.1661333 16.417807,21.3337778 C16.8837248,21.4983556 17.5867065,21.7682222 18.5288046,22.1444 C19.6792316,22.6023556 20.0999943,22.8415556 20.2488007,22.9437778 C20.5813059,23.1727556 21.0308037,23.4906667 21.5993465,23.9005778 C22.1689157,24.3094667 22.3413258,24.5824 22.3916121,24.6805333 C22.5578647,25.0199111 22.7220648,25.4400444 22.8821599,25.9286667 C23.0186512,26.3539111 23.0884363,26.8394667 23.0884363,27.3689778 C23.0884363,28.2225333 22.9406562,28.9871556 22.6502272,29.6403556 C22.3618508,30.2843556 21.9841905,30.8067111 21.527509,31.1941333 C21.0287512,31.6163111 20.4232633,31.9771556 19.7295178,32.2644 C19.0060111,32.5639111 18.2640319,32.7765333 17.5230789,32.8971556 C16.7554434,33.0218667 15.9354691,33.0862667 15.0898386,33.0862667 C12.3671956,33.0862667 10.1782029,32.5128 8.58340941,31.3842667 C7.0132459,30.2710667 5.88950142,28.5118222 5.24501601,26.1535556 C5.15675845,25.8295111 4.92995705,25.5606667 4.62721311,25.4144889 C4.46711801,25.3378222 4.2947079,25.3 4.12229778,25.3 C3.96630768,25.3 3.80929133,25.3306667 3.66151124,25.3940444 L0.702830582,26.6646667 C0.206125262,26.8783111 -0.0791724219,27.4047556 0.0193476416,27.9363111 C0.299514072,29.4788444 0.835216917,30.8884889 1.60695741,32.1253778 C2.37459291,33.3561333 3.28077224,34.3783556 4.3008654,35.1624 C5.29530229,35.926 6.42417802,36.5669333 7.66491507,37.0678222 C8.88204835,37.5605333 10.1043129,37.9142222 11.2947637,38.1186667 C12.4698207,38.3200444 13.6746389,38.4232889 14.8732997,38.4232889 C19.0881112,38.4232889 22.5239984,37.4542222 25.0834675,35.5436889 C26.6064235,34.4069778 27.685013,32.9983556 28.3428396,31.3505333 L28.3428396,36.6650667 C28.3428396,37.3049778 28.8631487,37.8242667 29.5076341,37.8242667 L32.9229963,37.8242667 C33.564403,37.8242667 34.0847121,37.3049778 34.0847121,36.6650667 L34.0847121,22.6974222 C34.0847121,21.4421333 34.3371697,20.2318222 34.8307963,19.0981778 C35.3182654,17.9829333 36.0191946,17.0813333 36.9797652,16.3422667 C37.883892,15.6420444 38.8773027,15.3026667 40.0184934,15.3026667 C41.3249105,15.3026667 42.174646,15.7606222 42.6918764,16.7409333 C43.320968,17.9410222 43.640132,19.7513778 43.640132,22.1219111 L43.640132,36.6650667 C43.640132,37.3049778 44.1614673,37.8242667 44.8049265,37.8242667 L48.2202887,37.8242667 C48.8616954,37.8242667 49.3830307,37.3049778 49.3830307,36.6650667 L49.3830307,22.5052444 C49.3830307,21.3041333 49.6395934,20.1316444 50.1465612,19.0184444 C50.645319,17.9185333 51.3554845,17.0343111 52.3109238,16.3156889 C53.2191557,15.6348889 54.2012775,15.3026667 55.3157858,15.3026667 C56.0115837,15.3026667 56.5944941,15.4406667 57.0491231,15.7136 C57.4986209,15.9804 57.8434411,16.3708889 58.1061613,16.9055111 C58.416089,17.5352 58.6408379,18.2650667 58.7732242,19.0756889 C58.9158731,19.9353778 58.9856581,20.9606667 58.9856581,22.1219111 L58.9856581,36.6650667 C58.9856581,37.3049778 59.5069935,37.8242667 60.1504526,37.8242667 L63.5658148,37.8242667 C64.2072215,37.8242667 64.7285568,37.3049778 64.7285568,36.6650667 L64.7285568,22.8650667 C64.7285568,21.6516889 64.6823755,20.5476889 64.5920655,19.5816889 C64.4976504,18.5768444 64.279059,17.5004444 63.9486063,16.3790667" id="Fill-5" fill="#6CAAE4"></path>
                                <path d="M88.6531404,11.6585374 C88.4366015,11.3406263 88.0763876,11.1515152 87.6915436,11.1515152 L84.3233889,11.1515152 C83.8441298,11.1515152 83.4151571,11.4428485 83.2396682,11.8864929 C80.3569301,19.1974263 78.1576749,24.7951152 76.6809002,28.5926707 C76.1441711,27.2423152 75.5161057,25.6507152 74.800809,23.8199152 L71.5055181,15.4131596 L70.1344473,11.891604 C69.9620371,11.4448929 69.5310119,11.1515152 69.0497003,11.1515152 L65.5388968,11.1515152 C65.1499478,11.1515152 64.7887076,11.3436929 64.5721687,11.6646707 C64.3556298,11.9846263 64.3135535,12.3914707 64.4603073,12.7482263 L73.7242721,35.3219596 L73.3117193,36.5179596 C72.1089535,40.0446263 70.1241847,40.4524929 68.7377201,40.4524929 C68.1260747,40.4524929 67.472353,40.4003596 66.7950276,40.2981374 C66.7375576,40.2889374 66.6790613,40.2848485 66.620565,40.2848485 C66.3701598,40.2848485 66.1238597,40.365604 65.9216883,40.5158707 C65.6723094,40.7039596 65.5081093,40.982004 65.466033,41.2907152 L65.105819,43.9985818 C65.0288502,44.5751152 65.3941954,45.1189374 65.9576071,45.2702263 C66.8853377,45.5196485 67.8376983,45.6453818 68.7859539,45.6453818 C69.9866672,45.6453818 71.0970704,45.4705818 72.082271,45.1240485 C73.0654191,44.7795596 73.9264434,44.3185374 74.6427664,43.7532485 C75.3560106,43.1910263 76.0538611,42.3916485 76.712714,41.3796485 C77.3325694,40.430004 77.871351,39.4680929 78.3167438,38.5215152 C78.7498216,37.6025374 79.2660256,36.3901818 79.8499623,34.9212485 C80.5396027,33.1814263 81.9199098,29.7498263 83.9949887,24.6264485 C86.0731463,19.4969374 87.664861,15.5327596 88.7732118,12.7359596 C88.9138081,12.3781818 88.8696793,11.9754263 88.6531404,11.6585374" id="Fill-7" fill="#6CAAE4"></path>
                                <path d="M102.806059,11.1515152 C101.71926,11.1515152 100.665301,11.3007596 99.6718899,11.5951596 C98.6292192,11.9038707 97.6070736,12.4814263 96.6362404,13.3114707 C96.6270042,13.3196485 96.6187942,13.326804 96.6095579,13.3349818 L96.6095579,12.3342263 C96.6095579,11.6943152 96.0882226,11.1750263 95.4457897,11.1750263 L92.126895,11.1750263 C91.4844621,11.1750263 90.9631268,11.6943152 90.9631268,12.3342263 L90.9631268,36.8440485 C90.9631268,37.4839596 91.4844621,38.0032485 92.126895,38.0032485 L95.5422572,38.0032485 C96.1846901,38.0032485 96.7060255,37.4839596 96.7060255,36.8440485 L96.7060255,24.0979596 C96.7060255,23.0317818 96.8199393,22.0381818 97.0436619,21.1447596 C97.2612271,20.2789374 97.6091261,19.4652485 98.0770964,18.7282263 C98.5019641,18.0576485 99.0889795,17.5444929 99.8720088,17.1580929 C100.675563,16.7614707 101.662816,16.5600929 102.806059,16.5600929 C103.448492,16.5600929 103.969828,16.040804 103.969828,15.4008929 L103.969828,12.3107152 C103.969828,11.670804 103.448492,11.1515152 102.806059,11.1515152" id="Fill-9" fill="#012168"></path>
                                <path d="M115.330143,9.75757576 C111.805998,9.75757576 108.925312,10.9842424 106.763002,13.4038424 C104.637637,15.7856202 103.558021,19.252998 103.558021,23.7098869 C103.558021,28.0798869 104.613007,31.5217091 106.689112,33.9392646 C108.810372,36.4099758 111.710557,37.6632202 115.306539,37.6632202 C118.901495,37.6632202 121.803732,36.401798 123.924992,33.9116646 C125.999044,31.479798 127.053004,28.0226424 127.053004,23.6383313 C127.053004,19.2121091 125.973388,15.7641535 123.846997,13.3905535 C121.68366,10.9801535 118.818369,9.75757576 115.330143,9.75757576 M110.192732,29.050998 C109.885883,28.2148202 109.671396,27.3571758 109.55543,26.5015758 C109.435359,25.6153091 109.372757,24.6513535 109.372757,23.6383313 C109.372757,22.3779313 109.480514,21.2044202 109.688843,20.1494869 C109.891014,19.1201091 110.226598,18.1285535 110.686358,17.2024202 C111.09378,16.3744202 111.671559,15.7437091 112.445352,15.2734869 C113.218119,14.8042869 114.181768,14.5671313 115.306539,14.5671313 C116.201429,14.5671313 116.999852,14.7306869 117.67923,15.0537091 C118.357582,15.3757091 118.907652,15.7958424 119.317126,16.3018424 C119.755335,16.8477091 120.128891,17.5244202 120.420346,18.3135758 C120.727195,19.1436202 120.945786,19.9992202 121.069963,20.8568646 C121.197218,21.7400646 121.260845,22.6917535 121.260845,23.6863758 C121.260845,24.699398 121.201323,25.6633535 121.080225,26.5496202 C120.962206,27.404198 120.748746,28.2567313 120.442923,29.0837091 C120.151468,29.8718424 119.780992,30.5485535 119.339704,31.0954424 C118.933309,31.6014424 118.383238,32.0215758 117.70386,32.3425535 C117.02243,32.6655758 116.224007,32.8291313 115.330143,32.8291313 C114.417806,32.8291313 113.611173,32.6655758 112.930769,32.3425535 C112.245233,32.0174869 111.712609,31.6075758 111.298004,31.0882869 C110.858768,30.5342424 110.484187,29.8483313 110.192732,29.050998" id="Fill-11" fill="#012168"></path>
                                <path d="M141.919364,9.75757576 C138.395219,9.75757576 135.514534,10.9842424 133.352224,13.4038424 C131.225832,15.7856202 130.147243,19.252998 130.147243,23.7098869 C130.147243,28.0798869 131.202229,31.5217091 133.277307,33.9392646 C135.399594,36.4099758 138.299778,37.6632202 141.89576,37.6632202 C145.490717,37.6632202 148.392953,36.401798 150.514214,33.9116646 C152.588266,31.479798 153.642226,28.0226424 153.642226,23.6383313 C153.642226,19.2121091 152.56261,15.7641535 150.436218,13.3905535 C148.272882,10.9801535 145.40759,9.75757576 141.919364,9.75757576 M136.781953,29.050998 C136.475104,28.2148202 136.260618,27.3571758 136.144652,26.5015758 C136.02458,25.6153091 135.961979,24.6513535 135.961979,23.6383313 C135.961979,22.3779313 136.069735,21.2044202 136.278064,20.1494869 C136.480236,19.1201091 136.81582,18.1285535 137.27558,17.2024202 C137.683002,16.3744202 138.260781,15.7437091 139.034574,15.2734869 C139.80734,14.8042869 140.77099,14.5671313 141.89576,14.5671313 C142.790651,14.5671313 143.589074,14.7306869 144.268452,15.0537091 C144.946804,15.3757091 145.496874,15.7958424 145.906348,16.3018424 C146.344557,16.8477091 146.718112,17.5244202 147.009568,18.3135758 C147.316416,19.1436202 147.535008,19.9992202 147.659184,20.8568646 C147.786439,21.7400646 147.850067,22.6917535 147.850067,23.6863758 C147.850067,24.699398 147.790544,25.6633535 147.669447,26.5496202 C147.551428,27.404198 147.337968,28.2567313 147.032145,29.0837091 C146.74069,29.8718424 146.370213,30.5485535 145.928926,31.0954424 C145.52253,31.6014424 144.97246,32.0215758 144.293082,32.3425535 C143.611652,32.6655758 142.813229,32.8291313 141.919364,32.8291313 C141.007027,32.8291313 140.200394,32.6655758 139.51999,32.3425535 C138.834455,32.0174869 138.301831,31.6075758 137.887225,31.0882869 C137.44799,30.5342424 137.073409,29.8483313 136.781953,29.050998" id="Fill-13" fill="#012168"></path>
                                <path d="M190.93972,15.6435313 C190.587716,14.4567313 190.095116,13.4467758 189.471155,12.6412646 C188.825643,11.8071313 187.934858,11.1099758 186.822402,10.5702424 C185.711999,10.0305091 184.396346,9.75757576 182.910335,9.75757576 C180.99843,9.75757576 179.186071,10.2308646 177.518414,11.1641535 C176.467533,11.7498869 175.56238,12.527798 174.803981,13.4856202 C174.307275,12.6453535 173.678184,11.929798 172.919784,11.3440646 C171.562055,10.2911758 169.817429,9.75757576 167.733114,9.75757576 C165.985409,9.75757576 164.318778,10.1501091 162.78248,10.9249535 C162.134916,11.2510424 161.532507,11.6578869 160.977306,12.1444646 L160.957807,11.3910869 C160.943439,10.7624202 160.427235,10.2605091 159.794038,10.2605091 L156.498748,10.2605091 C155.856315,10.2605091 155.337032,10.779798 155.337032,11.4197091 L155.337032,35.9295313 C155.337032,36.5694424 155.856315,37.0887313 156.498748,37.0887313 L159.916162,37.0887313 C160.558595,37.0887313 161.077878,36.5694424 161.077878,35.9295313 L161.077878,21.9618869 C161.077878,20.706598 161.328283,19.4962869 161.824989,18.3626424 C162.311431,17.2484202 163.012361,16.345798 163.971905,15.6057091 C164.877058,14.9075313 165.869442,14.5671313 167.011659,14.5671313 C168.318076,14.5671313 169.167812,15.0250869 169.68299,16.0064202 C170.313108,17.2054869 170.634324,19.0158424 170.634324,21.3863758 L170.634324,35.9295313 C170.634324,36.5694424 171.15566,37.0887313 171.798092,37.0887313 L175.213455,37.0887313 C175.855888,37.0887313 176.377223,36.5694424 176.377223,35.9295313 L176.377223,21.7697091 C176.377223,20.568598 176.633786,19.3950869 177.139727,18.2829091 C177.638485,17.1819758 178.346598,16.2987758 179.30409,15.5801535 C180.212322,14.8983313 181.19547,14.5671313 182.308952,14.5671313 C183.00475,14.5671313 183.588686,14.7051313 184.042289,14.9770424 C184.491787,15.2448646 184.837633,15.6353535 185.100354,16.1699758 C185.407202,16.7986424 185.631951,17.5295313 185.765364,18.3391313 C185.908013,19.1998424 185.978824,20.2251313 185.978824,21.3863758 L185.978824,35.9295313 C185.978824,36.5694424 186.501186,37.0887313 187.143619,37.0887313 L190.558981,37.0887313 C191.201414,37.0887313 191.722749,36.5694424 191.722749,35.9295313 L191.722749,22.1295313 C191.722749,20.9171758 191.676568,19.8121535 191.585231,18.8461535 C191.488764,17.8423313 191.272225,16.7649091 190.93972,15.6435313" id="Fill-15" fill="#012168"></path>
                                <path d="M213.123511,23.4993091 C211.558479,22.2961535 209.337673,21.4436202 206.3441,20.8957091 C205.52823,20.7382869 204.848852,20.5982424 204.304939,20.4725091 C203.811313,20.3580202 203.285873,20.1944646 202.749143,19.9838869 C202.269884,19.7968202 201.899408,19.5995313 201.650029,19.3971313 C201.432464,19.2213091 201.256975,18.9974424 201.115352,18.7122424 C200.978861,18.4413535 200.914207,18.1254869 200.914207,17.7452202 C200.914207,16.7168646 201.245686,16.005398 201.957904,15.5065535 C202.780957,14.9310424 204.077112,14.6397091 205.810449,14.6397091 C207.203071,14.6397091 208.313475,14.8666424 209.110871,15.315398 C209.869271,15.7437091 210.45526,16.446998 210.901679,17.4651313 C211.090509,17.8944646 211.513324,18.1612646 211.967953,18.1612646 C212.045948,18.1612646 212.125996,18.1530869 212.205017,18.1367313 C212.374348,18.1019758 212.525207,18.0324646 212.656567,17.937398 C212.769455,17.8678869 213.207664,17.6102869 214.875321,16.6688202 C215.411024,16.3662424 215.618327,15.7007758 215.345344,15.149798 C214.387852,13.2065535 213.094776,11.7999758 211.496904,10.9678869 C209.956502,10.1654424 207.977891,9.75757576 205.619567,9.75757576 C202.674227,9.75757576 200.234829,10.4261091 198.367053,11.7437535 C196.375101,13.1493091 195.362191,15.1528646 195.362191,17.6971758 C195.362191,18.7715313 195.52126,19.7436646 195.830162,20.586998 C196.144194,21.4415758 196.559826,22.1591758 197.066794,22.7224202 C197.56863,23.2805535 198.229536,23.7732646 199.034116,24.1882869 C199.770964,24.5685535 200.496523,24.8721535 201.190269,25.0909091 C201.857332,25.3014869 202.685516,25.508998 203.651218,25.7083313 C207.306723,26.4627313 208.757841,27.0699313 209.333568,27.4461091 C209.558317,27.5943313 210.251036,28.048198 210.251036,29.7236202 C210.251036,30.559798 210.251036,32.7821091 205.090021,32.7821091 C203.430574,32.7821091 202.170338,32.4958869 201.346259,31.930598 C200.529363,31.3704202 199.864353,30.412598 199.375858,29.0847313 C199.265022,28.7893091 199.040274,28.5511313 198.751897,28.4243758 C198.604117,28.3579313 198.441969,28.3252202 198.281874,28.3252202 C198.134094,28.3252202 197.983235,28.3538424 197.842639,28.4110869 L195.245199,29.464998 C194.699233,29.6878424 194.405726,30.283798 194.563768,30.8501091 C194.908588,32.0808646 195.456606,33.172598 196.191402,34.0977091 C196.932355,35.0279313 197.804668,35.7598424 198.787816,36.272998 C199.717599,36.7575313 200.697668,37.1153091 201.698263,37.3361091 C202.682437,37.5528202 203.717924,37.6632202 204.775989,37.6632202 C208.283713,37.6632202 210.985831,36.9384646 212.807426,35.5104202 C214.715226,34.0159313 215.680928,31.8508646 215.680928,29.0765535 C215.680928,26.6804646 214.819904,24.8036646 213.123511,23.4993091" id="Fill-17" fill="#012168"></path>
                            </g>
                        </g>
                    </g>
                </g>
            </g>
        </g>
    </g>
</svg>