<?xml version="1.0" encoding="UTF-8" standalone="no"?>
<svg width="371px" height="117px" viewBox="0 0 371 117" version="1.1" xmlns="http://www.w3.org/2000/svg" xmlns:xlink="http://www.w3.org/1999/xlink">
    <!-- Generator: Sketch 41 (35326) - http://www.bohemiancoding.com/sketch -->
    <title>Group 4</title>
    <desc>Created with Sketch.</desc>
    <defs></defs>
    <g id="Page-1" stroke="none" stroke-width="1" fill="none" fill-rule="evenodd">
        <g id="Home_Smyrooms" transform="translate(-715.000000, -90.000000)">
            <g id="Group-4" transform="translate(715.000000, 90.000000)">
                <g id="Group">
                    <g id="Group-13">
                        <path d="M107.678728,27.7327774 C107.084405,25.7269367 106.251662,24.0199853 105.204686,22.6602983 C104.1197,21.2487808 102.616615,20.0705006 100.743806,19.1565559 C98.8779081,18.2477944 96.6612901,17.7847751 94.1578765,17.7847751 C90.9409296,17.7847751 87.8881127,18.5846927 85.0806268,20.1620678 C83.3149341,21.1537582 81.7876618,22.4650701 80.5109036,24.0856373 C79.6747047,22.6654814 78.6156347,21.4561028 77.3406042,20.4661401 C75.0548788,18.686626 72.1160889,17.7847751 68.6071635,17.7847751 C65.6649183,17.7847751 62.8608878,18.4482056 60.2710901,19.7577898 C59.1826494,20.3089209 58.1667714,20.9982667 57.2355499,21.8171887 L57.2009963,20.5456136 C57.175081,19.4830881 56.3077838,18.6347955 55.2435307,18.6347955 L49.6976663,18.6347955 C48.612681,18.6347955 47.7367454,19.5124588 47.7367454,20.5939887 L47.7367454,39.3341729 C47.553611,38.8642429 47.3687488,38.4012237 47.1596991,37.9813966 C46.5895635,36.8428531 45.7723692,35.7509571 44.7253929,34.7368068 C43.7648008,33.807313 42.7990256,32.9970294 41.8574381,32.3335989 C40.9072121,31.6632576 39.7081997,30.9721842 38.2068426,30.2206418 C36.7624991,29.5001977 35.4235443,28.8851424 34.2210765,28.3979356 C33.0514347,27.9210949 31.5569884,27.3302271 29.7170053,26.6166938 C28.8324313,26.2832508 27.5746776,25.8547853 25.9437443,25.3295695 C24.3542754,24.8199028 23.029142,24.3879819 21.9666166,24.0372621 C20.98702,23.715913 19.8571149,23.2442554 18.6045443,22.6378384 C17.4245364,22.0659751 16.4864042,21.4872011 15.8177906,20.9222486 C15.2131014,20.4091266 14.6809748,19.7266915 14.2317771,18.8974034 C13.817133,18.1268565 13.614994,17.2906576 13.614994,16.3421593 C13.614994,13.793826 14.5824968,12.0402271 16.6557172,10.8256655 C19.0105499,9.44524633 22.1653002,8.74553446 26.0318562,8.74553446 C28.9516415,8.74553446 31.6468279,9.40896497 34.0431251,10.7116384 C36.4394223,12.0177672 38.2949545,13.8715718 39.7151104,16.3784407 C39.9915398,16.8656475 40.4649251,17.2111842 41.0143285,17.3286667 C41.1490878,17.3563096 41.2838471,17.3701311 41.4186064,17.3701311 C41.8349782,17.3701311 42.2461669,17.2370994 42.5830652,16.9848576 L46.9575601,13.7454508 C47.793759,13.1286678 47.9993533,11.9676644 47.4326731,11.0986395 C44.8947059,7.2234452 41.7762369,4.3762226 38.1601951,2.63298983 C34.5994392,0.919127684 30.2335827,0.0501028249 25.1818358,0.0501028249 C22.4659172,0.0501028249 19.8398381,0.369724294 17.383072,1.0020565 C14.8934799,1.64302712 12.5956607,2.61571299 10.556994,3.8907435 C8.41293864,5.23488136 6.68525503,7.04031073 5.42059062,9.2586565 C4.1472878,11.4925514 3.50286181,14.0391571 3.50286181,16.8293661 C3.50286181,17.6085514 3.54950927,18.3704599 3.64798723,19.1461898 C4.33733299,23.6744486 7.16036802,27.3405932 12.0393466,30.039235 C14.0469149,31.158774 17.4349025,32.5409209 22.4952878,34.3014305 C22.647324,34.3446226 22.8632844,34.4223684 23.2036381,34.5519446 C25.3839748,35.3069424 26.8697827,35.8235198 27.6610618,36.1068599 C28.4454302,36.3850169 29.6288934,36.8411254 31.214907,37.476913 C33.1516403,38.2509153 33.8599906,38.6551932 34.1105047,38.8279616 C34.6702742,39.2149627 35.4269997,39.7522723 36.3841364,40.4450734 C37.3430008,41.1361469 37.6332516,41.5974384 37.7179081,41.763296 C37.9977929,42.336887 38.2742223,43.046965 38.5437409,43.8727977 C38.7735228,44.5915141 38.8910053,45.4121638 38.8910053,46.307104 C38.8910053,47.7497198 38.6422189,49.0420271 38.1532844,50.1460169 C37.6678053,51.2344576 37.0320177,52.117304 36.2631985,52.772096 C35.4235443,53.4856294 34.404211,54.0955017 33.2362968,54.5809808 C32.0182799,55.0871921 30.7691646,55.4465503 29.5217771,55.6504169 C28.2294697,55.8611944 26.8490505,55.9700384 25.4254392,55.9700384 C20.8418946,55.9700384 17.1567454,55.0008079 14.4719251,53.0934452 C11.8285692,51.2119977 9.93675559,48.2386542 8.85177028,44.2528881 C8.70318949,43.7052124 8.32137141,43.2508316 7.81170475,43.0037729 C7.5421861,42.8741966 7.25193525,42.8102723 6.96168441,42.8102723 C6.6990765,42.8102723 6.4347409,42.8621028 6.18595446,42.9692192 L1.2050426,45.1167299 C0.368843729,45.4778158 -0.111452316,46.3675729 0.0544053107,47.2659684 C0.526062938,49.8730429 1.42791379,52.2555186 2.72713186,54.3460158 C4.01943921,56.4261469 5.54498384,58.1538305 7.26230136,59.4789638 C8.93642678,60.7695435 10.8368788,61.8528011 12.9256482,62.6993661 C14.974681,63.5321096 17.0323522,64.1298881 19.0364652,64.4754249 C21.0146629,64.8157785 23.0429635,64.9902746 25.060898,64.9902746 C32.1564946,64.9902746 37.9407793,63.3524305 42.2496223,60.1233898 C44.8135047,58.2022056 46.6293002,55.8214576 47.7367454,53.0364316 L47.7367454,62.0186588 C47.7367454,63.1001887 48.612681,63.977852 49.6976663,63.977852 L55.4473974,63.977852 C56.5271997,63.977852 57.4031353,63.1001887 57.4031353,62.0186588 L57.4031353,38.4115898 C57.4031353,36.2899944 57.8281454,34.2444169 58.6591612,32.3284158 C59.479811,30.443513 60.6598189,28.919696 62.2769307,27.6705808 C63.79902,26.4871175 65.4714177,25.9135266 67.3926019,25.9135266 C69.5919432,25.9135266 71.0224652,26.6875288 71.8932177,28.3443774 C72.9522878,30.372678 73.4895974,33.4324056 73.4895974,37.438904 L73.4895974,62.0186588 C73.4895974,63.1001887 74.3672607,63.977852 75.4505183,63.977852 L81.2002494,63.977852 C82.2800516,63.977852 83.1577149,63.1001887 83.1577149,62.0186588 L83.1577149,38.0867853 C83.1577149,36.0567571 83.5896358,34.075104 84.4431115,32.1936565 C85.2827658,30.3346689 86.4783228,28.8402226 88.0867963,27.625661 C89.6157963,26.4750237 91.2691895,25.9135266 93.1454539,25.9135266 C94.3168234,25.9135266 95.2981477,26.1467638 96.0635115,26.6080554 C96.8202369,27.0589808 97.4007386,27.7189559 97.8430256,28.6225345 C98.3647861,29.6867876 98.7431488,30.9203537 98.96602,32.2904068 C99.206168,33.7433887 99.3236505,35.4762554 99.3236505,37.438904 L99.3236505,62.0186588 C99.3236505,63.1001887 100.201314,63.977852 101.284571,63.977852 L107.034302,63.977852 C108.114105,63.977852 108.991768,63.1001887 108.991768,62.0186588 L108.991768,38.6949299 C108.991768,36.6441695 108.914022,34.7782712 108.761986,33.1456102 C108.603039,31.4472972 108.235043,29.6280463 107.678728,27.7327774" id="Fill-5" fill="#6CAAE4"></path>
                        <path d="M149.86859,19.4924176 C149.504048,18.955108 148.897631,18.6354866 148.24975,18.6354866 L142.579492,18.6354866 C141.772664,18.6354866 141.050492,19.1278764 140.755059,19.8776911 C135.901995,32.2340843 132.199569,41.6948798 129.713433,48.1132244 C128.809854,45.8309544 127.752512,43.140951 126.548316,40.0466696 L121.000724,25.8381995 L118.692539,19.8863295 C118.402288,19.1313318 117.676661,18.6354866 116.866377,18.6354866 L110.955972,18.6354866 C110.301179,18.6354866 109.693035,18.9602911 109.328494,19.5027837 C108.963952,20.0435487 108.893117,20.7311668 109.140176,21.3341284 L124.735976,59.4865656 L124.041447,61.5079555 C122.016602,67.468464 118.675262,68.1578097 116.341161,68.1578097 C115.311462,68.1578097 114.210927,68.0696979 113.070656,67.8969295 C112.973906,67.8813803 112.875428,67.8744696 112.77695,67.8744696 C112.355395,67.8744696 111.940751,68.0109566 111.600398,68.2649261 C111.18057,68.5828199 110.904141,69.0527498 110.833306,69.5745103 L110.226889,74.1511442 C110.097313,75.1255577 110.712368,76.0446854 111.660866,76.3003826 C113.222692,76.7219374 114.825983,76.9344425 116.422362,76.9344425 C118.443752,76.9344425 120.313106,76.6390086 121.971682,76.0533238 C123.626803,75.4710945 125.07633,74.6919092 126.282253,73.7365001 C127.482993,72.7862741 128.657818,71.4352255 129.766991,69.7248188 C130.810512,68.1198007 131.717546,66.4940504 132.46736,64.8942154 C133.196443,63.3410278 134.065468,61.291995 135.04852,58.8093137 C136.209523,55.8687962 138.533257,50.0689623 142.026634,41.409812 C145.525193,32.7402956 148.20483,26.0403385 150.070729,21.3133962 C150.307421,20.7087069 150.233131,20.0279995 149.86859,19.4924176" id="Fill-7" fill="#6CAAE4"></path>
                        <path d="M172.381689,18.594886 C170.552072,18.594886 168.777741,18.8471278 167.105344,19.3447007 C165.350017,19.8664611 163.629244,20.8426024 161.994855,22.2454815 C161.979306,22.2593029 161.965485,22.2713967 161.949936,22.2852182 L161.949936,20.5938159 C161.949936,19.512286 161.072272,18.6346227 159.990742,18.6346227 L154.403414,18.6346227 C153.321884,18.6346227 152.44422,19.512286 152.44422,20.5938159 L152.44422,62.018486 C152.44422,63.1000159 153.321884,63.9776792 154.403414,63.9776792 L160.153145,63.9776792 C161.234675,63.9776792 162.112338,63.1000159 162.112338,62.018486 L162.112338,40.475999 C162.112338,38.674025 162.304111,36.9947165 162.680746,35.484721 C163.047015,34.021373 163.632699,32.6461368 164.420523,31.4004769 C165.135784,30.2671165 166.124019,29.3998193 167.442242,28.7467549 C168.795018,28.0764137 170.45705,27.73606 172.381689,27.73606 C173.463219,27.73606 174.340882,26.8583967 174.340882,25.7768668 L174.340882,20.5540792 C174.340882,19.4725493 173.463219,18.594886 172.381689,18.594886" id="Fill-9" fill="#FFFFFF"></path>
                        <path d="M194.693859,17.7851207 C188.760994,17.7851207 183.911386,19.858341 180.271156,23.9477681 C176.693124,27.973271 174.875601,33.8335738 174.875601,41.3662744 C174.875601,48.7521218 176.651659,54.5692325 180.146763,58.6552043 C183.717885,62.8310156 188.600319,64.9491557 194.654123,64.9491557 C200.706198,64.9491557 205.592088,62.8171941 209.16321,58.6085568 C212.654858,54.4983975 214.429189,48.6553715 214.429189,41.2453365 C214.429189,33.7644664 212.611666,27.9369896 209.031906,23.9253082 C205.389949,19.8514303 200.566256,17.7851207 194.693859,17.7851207 M186.045075,50.3934212 C185.528498,48.980176 185.167412,47.5306495 184.972184,46.0845783 C184.770045,44.5866766 184.664656,42.957471 184.664656,41.2453365 C184.664656,39.1151026 184.846063,37.1317218 185.196782,35.3487523 C185.537136,33.6089749 186.102089,31.9331218 186.876091,30.3678405 C187.561981,28.9684167 188.534667,27.9024359 189.837341,27.1077015 C191.138286,26.3146947 192.760581,25.9138721 194.654123,25.9138721 C196.160663,25.9138721 197.504801,26.1903015 198.648527,26.7362495 C199.790526,27.2804698 200.716564,27.9905478 201.40591,28.8457512 C202.143631,29.7683342 202.772508,30.9120608 203.26317,32.2458325 C203.779747,33.6487116 204.147744,35.0947828 204.356794,36.5443094 C204.571027,38.037028 204.678143,39.6455015 204.678143,41.3265376 C204.678143,43.0386721 204.577937,44.6678777 204.374071,46.1657794 C204.175387,47.6101229 203.816029,49.0510111 203.301179,50.4487071 C202.810517,51.7807512 202.186823,52.9244777 201.443919,53.8487885 C200.759756,54.7039919 199.833718,55.4140698 198.689992,55.9565625 C197.54281,56.5025105 196.198672,56.7789399 194.693859,56.7789399 C193.157949,56.7789399 191.799989,56.5025105 190.654535,55.9565625 C189.500442,55.4071591 188.603775,54.714358 187.90579,53.8366947 C187.166342,52.9002902 186.535737,51.7410145 186.045075,50.3934212" id="Fill-11" fill="#FFFFFF"></path>
                        <path d="M237.777969,17.7851207 C231.845104,17.7851207 226.995496,19.858341 223.355267,23.9477681 C219.775506,27.973271 217.959711,33.8335738 217.959711,41.3662744 C217.959711,48.7521218 219.735769,54.5692325 223.229146,58.6552043 C226.801995,62.8310156 231.684429,64.9491557 237.738233,64.9491557 C243.790308,64.9491557 248.676198,62.8171941 252.24732,58.6085568 C255.738968,54.4983975 257.513299,48.6553715 257.513299,41.2453365 C257.513299,33.7644664 255.695776,27.9369896 252.116016,23.9253082 C248.474059,19.8514303 243.650366,17.7851207 237.777969,17.7851207 M229.129185,50.3934212 C228.612608,48.980176 228.251522,47.5306495 228.056294,46.0845783 C227.854155,44.5866766 227.748766,42.957471 227.748766,41.2453365 C227.748766,39.1151026 227.930173,37.1317218 228.280893,35.3487523 C228.621246,33.6089749 229.186199,31.9331218 229.960201,30.3678405 C230.646092,28.9684167 231.618777,27.9024359 232.921451,27.1077015 C234.222397,26.3146947 235.844692,25.9138721 237.738233,25.9138721 C239.244773,25.9138721 240.588911,26.1903015 241.732637,26.7362495 C242.874636,27.2804698 243.800675,27.9905478 244.49002,28.8457512 C245.227741,29.7683342 245.856618,30.9120608 246.34728,32.2458325 C246.863858,33.6487116 247.231854,35.0947828 247.440904,36.5443094 C247.655137,38.037028 247.762253,39.6455015 247.762253,41.3265376 C247.762253,43.0386721 247.662047,44.6678777 247.458181,46.1657794 C247.259497,47.6101229 246.900139,49.0510111 246.385289,50.4487071 C245.894627,51.7807512 245.270933,52.9244777 244.528029,53.8487885 C243.843867,54.7039919 242.917828,55.4140698 241.774102,55.9565625 C240.62692,56.5025105 239.282782,56.7789399 237.777969,56.7789399 C236.242059,56.7789399 234.884099,56.5025105 233.738645,55.9565625 C232.584553,55.4071591 231.687885,54.714358 230.989901,53.8366947 C230.250452,52.9002902 229.619847,51.7410145 229.129185,50.3934212" id="Fill-13" fill="#FFFFFF"></path>
                        <path d="M322.360349,27.7327774 C321.767754,25.7269367 320.938465,24.0199853 319.888034,22.6585706 C318.801321,21.2487808 317.301691,20.0705006 315.428882,19.1582836 C313.559529,18.2460667 311.344638,17.7847751 308.842952,17.7847751 C305.624278,17.7847751 302.573189,18.5846927 299.765703,20.1620678 C297.996555,21.1520305 296.472738,22.4667977 295.19598,24.0856373 C294.359781,22.6654814 293.300711,21.4561028 292.023952,20.4661401 C289.738227,18.686626 286.801165,17.7847751 283.292239,17.7847751 C280.349994,17.7847751 277.544236,18.4482056 274.957894,19.7577898 C273.867725,20.3089209 272.853575,20.996539 271.918898,21.8189164 L271.886072,20.5456136 C271.861885,19.4830881 270.99286,18.6347955 269.926879,18.6347955 L264.379287,18.6347955 C263.297757,18.6347955 262.423549,19.5124588 262.423549,20.5939887 L262.423549,62.0186588 C262.423549,63.1001887 263.297757,63.977852 264.379287,63.977852 L270.132473,63.977852 C271.214003,63.977852 272.088211,63.1001887 272.088211,62.0186588 L272.088211,38.4115898 C272.088211,36.2899944 272.509766,34.2444169 273.345965,32.3284158 C274.164887,30.4452407 275.344895,28.919696 276.960279,27.6688531 C278.484096,26.4888452 280.154766,25.9135266 282.077678,25.9135266 C284.277019,25.9135266 285.707541,26.6875288 286.574838,28.3461051 C287.635636,30.372678 288.176401,33.4324056 288.176401,37.438904 L288.176401,62.0186588 C288.176401,63.1001887 289.054064,63.977852 290.135594,63.977852 L295.885325,63.977852 C296.966855,63.977852 297.844519,63.1001887 297.844519,62.0186588 L297.844519,38.0867853 C297.844519,36.0567571 298.276439,34.0733763 299.128187,32.1936565 C299.967842,30.3329412 301.159943,28.8402226 302.771872,27.625661 C304.300872,26.473296 305.955993,25.9135266 307.83053,25.9135266 C309.001899,25.9135266 309.984951,26.1467638 310.748587,26.6063277 C311.505313,27.0589808 312.087542,27.7189559 312.529829,28.6225345 C313.046407,29.6850599 313.424769,30.9203537 313.649368,32.2886791 C313.889516,33.7433887 314.008726,35.4762554 314.008726,37.438904 L314.008726,62.0186588 C314.008726,63.1001887 314.888117,63.977852 315.969647,63.977852 L321.719378,63.977852 C322.800908,63.977852 323.678572,63.1001887 323.678572,62.0186588 L323.678572,38.6949299 C323.678572,36.6458972 323.600826,34.7782712 323.447062,33.1456102 C323.28466,31.4490249 322.920119,29.6280463 322.360349,27.7327774" id="Fill-15" fill="#FFFFFF"></path>
                        <path d="M358.688871,41.010026 C356.054153,38.9765424 352.315446,37.5356542 347.275793,36.6096158 C345.902284,36.3435525 344.758558,36.1068599 343.842885,35.8943548 C343.01187,35.7008542 342.127296,35.4244249 341.223717,35.068522 C340.416889,34.7523559 339.793195,34.418913 339.373368,34.0768316 C339.007099,33.7796701 338.711665,33.4013073 338.473245,32.9192836 C338.243463,32.4614475 338.134619,31.9275932 338.134619,31.2848949 C338.134619,29.5468452 338.692661,28.3443774 339.891673,27.5012678 C341.277275,26.5285819 343.45934,26.0361921 346.377397,26.0361921 C348.721864,26.0361921 350.591218,26.4197379 351.933628,27.178191 C353.210386,27.9020904 354.196893,29.0907367 354.948436,30.8115096 C355.266329,31.5371367 355.978135,31.9880621 356.743499,31.9880621 C356.874803,31.9880621 357.009562,31.9742407 357.142594,31.9465977 C357.427662,31.8878565 357.681631,31.770374 357.902775,31.6096994 C358.09282,31.4922169 358.830541,31.0568407 361.638027,29.4656441 C362.539878,28.9542497 362.88887,27.8295277 362.429306,26.8983062 C360.817377,23.6139797 358.640496,21.236687 355.950492,19.8303525 C353.357239,18.4741209 350.026265,17.7847751 346.056048,17.7847751 C341.097596,17.7847751 336.990892,18.9146802 333.846508,21.1416644 C330.493074,23.5172294 328.78785,26.9034893 328.78785,31.2036938 C328.78785,33.0194893 329.055641,34.6625164 329.575674,36.0878554 C330.104345,37.5321989 330.804057,38.7450328 331.657533,39.6969864 C332.50237,40.6403017 333.614998,41.4730452 334.969502,42.1744847 C336.209979,42.8171831 337.431452,43.3303051 338.599366,43.7000294 C339.72236,44.0559322 341.116601,44.406652 342.742351,44.7435503 C348.89636,46.0185808 351.339305,47.0448249 352.308535,47.6806124 C352.686898,47.9311266 353.853084,48.6982181 353.853084,51.5298915 C353.853084,52.9431367 353.853084,56.6991209 345.164563,56.6991209 C342.370899,56.6991209 340.249304,56.2153695 338.861974,55.2599605 C337.486737,54.3131898 336.367198,52.6943503 335.544821,50.4500893 C335.358231,49.9507887 334.979868,49.5482384 334.494389,49.3340056 C334.245603,49.2217062 333.972629,49.1664203 333.70311,49.1664203 C333.454324,49.1664203 333.200354,49.2147955 332.963662,49.3115458 L328.590894,51.0927876 C327.671767,51.4694226 327.177649,52.4766621 327.443713,53.4337989 C328.024214,55.5139299 328.946797,57.359096 330.183819,58.9226497 C331.431206,60.4948418 332.899737,61.7318633 334.554858,62.5991605 C336.12014,63.4180825 337.770078,64.0227718 339.454569,64.3959514 C341.111418,64.7622203 342.85465,64.9488102 344.635892,64.9488102 C350.541115,64.9488102 355.090106,63.7238825 358.156744,61.3103085 C361.368508,58.784435 362.994258,55.1252011 362.994258,50.4362678 C362.994258,46.3865774 361.544732,43.2145503 358.688871,41.010026" id="Fill-17" fill="#FFFFFF"></path>
                    </g>
                </g>
                <path d="M239.395607,90.3733316 C238.939192,90.3581147 238.29778,90.5571103 237.471357,90.9703219 C236.497158,91.4574212 235.441792,92.3910141 234.305227,93.7711286 C233.791067,94.5017775 233.398688,95.1579986 233.128077,95.7398116 C232.857466,96.3216246 232.661276,96.8222469 232.539501,97.2416935 C232.417727,97.6611401 232.35684,98.0196939 232.35684,98.3173656 C232.35684,98.6150374 232.370371,98.845053 232.397432,99.0074195 C232.424493,99.1156637 232.519205,99.2103761 232.681571,99.2915593 C232.843938,99.3727425 233.046893,99.3862728 233.290442,99.3321507 C233.99403,99.1697843 234.650251,98.8112305 235.259125,98.2564785 C235.867999,97.7017266 236.422743,97.0725662 236.923373,96.3689783 C237.424003,95.6653905 237.850208,94.9753436 238.202002,94.2988169 C238.553796,93.6222901 238.810872,93.0810768 238.973239,92.6751608 C239.243849,92.0527562 239.385918,91.4777171 239.399448,90.9500262 C239.40593,90.6972523 239.404649,90.5050211 239.395607,90.3733316 L239.395607,90.3733316 Z M241.347882,89.6530732 C241.367685,89.6590617 241.387965,89.6651697 241.408723,89.6713971 C241.165173,90.3208627 240.955453,91.1123872 240.779556,92.0459941 C240.603659,92.979601 240.44806,93.919959 240.312755,94.8670965 C240.17745,95.8142339 240.062442,96.714001 239.967728,97.5664247 C239.873014,98.4188484 239.785067,99.0885998 239.703884,99.5756991 C239.920372,99.3592105 240.238335,99.1021342 240.657782,98.8044625 C241.077228,98.5067907 241.489904,98.2091234 241.89582,97.9114516 C242.382919,97.5867188 242.897071,97.2484605 243.438293,96.8966666 C243.492415,96.9507887 243.48565,97.045501 243.417997,97.1808064 C243.350344,97.3161117 243.255632,97.4649454 243.133857,97.6273118 C243.012083,97.7896782 242.89031,97.945277 242.768535,98.0941129 C242.64676,98.2429488 242.558813,98.3444263 242.504691,98.3985484 C241.855225,99.1291973 241.273421,99.7583578 240.75926,100.286049 C240.2451,100.813739 239.82566,101.267006 239.500927,101.645861 C239.500927,101.672922 239.494162,101.82852 239.480631,102.112662 C239.467101,102.396803 239.460335,102.552402 239.460335,102.579463 C239.406213,103.499539 239.385918,104.426367 239.399448,105.359974 C239.412979,106.293581 239.352092,107.233939 239.216787,108.181076 C239.054421,109.263519 238.885292,110.136225 238.709395,110.799222 C238.533498,111.462218 238.350838,112.003431 238.161411,112.422878 C237.971983,112.842324 237.775793,113.194113 237.572835,113.478254 C237.369877,113.762395 237.146627,114.080358 236.903077,114.432152 C236.686589,114.729824 236.443043,114.9869 236.172432,115.203389 C235.901821,115.419877 235.536502,115.676954 235.076464,115.974625 C234.45406,116.35348 233.804604,116.637617 233.128077,116.827045 C232.45155,117.016472 231.829155,117.050298 231.260872,116.928523 C230.69259,116.806748 230.212263,116.502316 229.819878,116.015217 C229.427492,115.528118 229.204242,114.79748 229.150119,113.823281 C229.095997,112.740838 229.285422,111.671942 229.718399,110.61656 C230.151376,109.561179 230.665529,108.600525 231.260872,107.734571 C231.856216,106.868617 232.43802,106.137979 233.006303,105.542635 C233.574585,104.947292 233.966965,104.541382 234.183453,104.324893 C234.535247,103.946038 234.85321,103.62131 235.137351,103.350699 C235.421492,103.080089 235.712395,102.829778 236.010066,102.599759 C236.307738,102.369739 236.625701,102.119428 236.963964,101.848818 C237.302228,101.578207 237.701372,101.253479 238.161411,100.874624 C238.269655,100.225158 238.337307,99.5418765 238.364368,98.8247582 C238.391429,98.1076398 238.391429,97.3702367 238.364368,96.6125268 C237.877268,97.6137863 237.356351,98.3985456 236.801599,98.9668281 C236.246847,99.5351105 235.746224,99.961316 235.299717,100.245457 C234.853209,100.529598 234.48789,100.705493 234.203749,100.773145 C233.919608,100.840798 233.8046,100.874624 233.858722,100.874624 C233.344562,100.955807 232.931887,100.976103 232.620684,100.935511 C232.309482,100.894919 232.065936,100.813737 231.890039,100.691963 C231.714142,100.570188 231.578839,100.428119 231.484125,100.265753 C231.389411,100.103386 231.314994,99.9410225 231.260872,99.7786561 C231.125567,99.0750683 231.132332,98.3511955 231.281168,97.6070161 C231.430004,96.8628367 231.653254,96.1524943 231.950926,95.4759675 C232.248598,94.7994408 232.573326,94.1770455 232.92512,93.608763 C233.276914,93.0404806 233.601642,92.5804493 233.899313,92.2286554 C233.953436,92.1745332 234.081974,92.0324648 234.284932,91.8024457 C234.48789,91.5724266 234.751731,91.3153503 235.076464,91.031209 C235.401197,90.7470678 235.800342,90.4561657 236.27391,90.1584939 C236.747479,89.8608221 237.295458,89.5902155 237.917862,89.3466659 C238.540267,89.2113605 239.176192,89.150474 239.825658,89.1640045 C240.475124,89.1775351 241.002807,89.3331339 241.408723,89.6308057 C241.389362,89.6380659 241.369082,89.6454884 241.347882,89.6530732 L241.347882,89.6530732 Z M239.375613,90.2186619 C239.384313,90.2543459 239.390978,90.3059025 239.395607,90.3733316 C239.47722,90.3760526 239.552918,90.3856228 239.622701,90.4020423 C239.568579,90.4020423 239.541518,90.3614513 239.541518,90.2802681 L239.541518,90.1990853 C239.676824,90.1449632 239.967726,90.057016 240.414233,89.9352412 C240.82081,89.8243567 241.132024,89.7303014 241.347882,89.6530732 C241.109529,89.5809923 240.940384,89.5262137 240.840443,89.4887358 C240.732199,89.4481442 240.657782,89.4278487 240.61719,89.4278487 C240.576599,89.4278487 240.542773,89.441379 240.515712,89.4684401 C240.488651,89.4955011 240.420999,89.5360921 240.312755,89.5902143 L240.190981,89.6713971 L239.947432,89.7525799 C239.812127,89.806702 239.744475,89.8608233 239.744475,89.9149455 C239.690353,89.9149455 239.642997,89.935241 239.602405,89.9758326 C239.561814,90.0164242 239.555049,90.05025 239.58211,90.0773111 C239.527988,90.1043722 239.473866,90.1246677 239.419744,90.1381982 C239.401703,90.1427084 239.383663,90.1494736 239.365622,90.1584939 C239.361333,90.1606385 239.357044,90.1629105 239.352755,90.16531 C239.320963,90.1830957 239.289171,90.2078845 239.257378,90.2396767 C239.30255,90.2321481 239.341961,90.2251432 239.375613,90.2186619 C239.46292,90.2018465 239.511456,90.1885558 239.521223,90.1787896 C239.534753,90.1652591 239.527988,90.1584939 239.500927,90.1584939 L239.338561,90.1584939 C239.343584,90.1584939 239.348315,90.1607659 239.352755,90.16531 C239.361506,90.1742668 239.369125,90.1920507 239.375613,90.2186619 L239.375613,90.2186619 Z M238.323776,103.918979 C238.404959,103.296574 238.391429,102.917725 238.283185,102.78242 C238.229063,102.701237 238.161411,102.674176 238.080228,102.701237 C237.349579,103.296581 236.754244,103.797203 236.294206,104.203119 C235.834168,104.609035 235.52297,104.879642 235.360604,105.014947 C234.061673,106.232695 233.094254,107.308356 232.458319,108.241963 C231.822384,109.17557 231.396178,110.034746 231.17969,110.819517 C230.882018,111.685472 230.712889,112.449935 230.672297,113.112932 C230.631705,113.775928 230.800835,114.418619 231.17969,115.041023 C231.856216,115.555183 232.593619,115.656661 233.391921,115.345459 C234.190222,115.034256 234.927626,114.55393 235.604152,113.904464 C236.388923,113.011449 237.024849,111.759893 237.511948,110.149759 C237.999047,108.539626 238.269654,106.46272 238.323776,103.918979 Z M245.67082,92.9187092 C245.67082,92.9998924 245.711411,93.3787417 245.792594,94.0552685 C245.873777,94.7317952 245.96849,95.5571454 246.076734,96.531344 C246.184978,97.5055425 246.313516,98.5541432 246.462352,99.6771776 C246.611188,100.800212 246.746491,101.869108 246.868266,102.883898 C246.990041,103.898688 247.105049,104.79169 247.213293,105.562931 C247.321537,106.334171 247.389189,106.828028 247.41625,107.044517 C247.253884,107.017456 247.11858,106.990395 247.010336,106.963334 C246.902092,106.936273 246.793849,106.868621 246.685605,106.760377 C246.577361,106.652133 246.448823,106.496534 246.299987,106.293576 C246.151151,106.090618 245.941431,105.799716 245.67082,105.420861 C245.319026,102.931243 245.041654,100.759624 244.838696,98.905941 C244.635738,97.0522577 244.466609,95.5436257 244.331304,94.3799997 C243.844204,95.0294653 243.492416,95.462436 243.275927,95.6789245 C243.059439,95.8954131 242.924135,96.0036557 242.870013,96.0036557 C242.78883,96.0036557 242.7753,95.8818827 242.829422,95.6383331 L242.910605,95.2324191 C242.937666,95.0971138 242.964726,94.9753408 242.991787,94.8670965 C243.018849,94.7588522 243.05944,94.6641399 243.113562,94.5829567 C243.302989,94.312346 243.472118,94.0417393 243.620954,93.7711286 C243.76979,93.5005179 243.884798,93.256972 243.965981,93.0404834 C244.074225,92.7698727 244.155407,92.5127964 244.209529,92.2692468 C244.182468,91.971575 244.162173,91.7144987 244.148642,91.4980101 C244.135112,91.2815216 244.128347,91.0582711 244.128347,90.828252 C244.128347,90.5982329 244.121582,90.3614521 244.108051,90.1179025 C244.09452,89.8743529 244.087755,89.5631552 244.087755,89.1843002 L244.087755,85.1860472 C244.087755,84.3065624 244.101286,83.3797347 244.128347,82.4055362 C244.155408,81.4313377 244.189234,80.5045099 244.229825,79.6250251 C244.270417,78.7455404 244.324538,77.9472508 244.392191,77.2301325 C244.459843,76.5130141 244.53426,75.9650357 244.615444,75.5861807 C244.804871,74.8014097 245.095773,74.1993099 245.488159,73.7798633 C245.880544,73.3604167 246.293219,73.1168707 246.726196,73.0492181 C247.159174,72.9815654 247.585379,73.0898081 248.004826,73.3739493 C248.424272,73.6580905 248.742235,74.0978263 248.958723,74.6931698 C249.202273,75.2885134 249.324046,76.0597423 249.324046,77.0068797 C249.324046,77.9540172 249.242864,78.9890876 249.080498,80.112122 C248.918131,81.2351564 248.694881,82.4055301 248.41074,83.6232782 C248.126598,84.8410264 247.822166,86.0249304 247.497433,87.1750259 C247.1727,88.3251213 246.847972,89.4007827 246.523239,90.4020423 C246.198507,91.4033019 245.91437,92.2421825 245.67082,92.9187092 Z M245.346089,90.6049993 C246.022615,88.6295412 246.577359,86.6879386 247.010336,84.7801332 C247.443313,82.8723277 247.761276,81.1607408 247.964234,79.6453209 C248.167192,78.1299009 248.234844,76.9054059 248.167191,75.971799 C248.099538,75.0381921 247.903349,74.5578653 247.578616,74.5308042 C247.064456,74.3413767 246.658546,74.5172711 246.360874,75.0584925 C246.063202,75.5997139 245.826421,76.3574124 245.650524,77.331611 C245.474627,78.3058095 245.359619,79.4220618 245.305497,80.6804016 C245.251375,81.9387413 245.23108,83.190297 245.24461,84.4351063 C245.258141,85.6799155 245.278436,86.8570543 245.305497,87.9665582 C245.332558,89.0760621 245.346089,89.9555336 245.346089,90.6049993 Z M249.72996,89.1437088 C250.24412,89.1707699 250.812394,89.2451867 251.434799,89.3669616 C252.057204,89.4887364 252.666069,89.6511004 253.261412,89.8540584 C253.856756,90.0570164 254.404734,90.287032 254.905364,90.5441122 C255.405994,90.8011924 255.818669,91.0920945 256.143402,91.4168273 C256.468134,91.7144991 256.657559,92.1677652 256.711681,92.7766393 C256.765803,93.3855134 256.725212,94.0552648 256.589907,94.7859137 C256.454602,95.5165626 256.244882,96.267496 255.96074,97.0387365 C255.676599,97.809977 255.358636,98.5067891 255.006842,99.1291937 C254.655048,99.7515983 254.276199,100.265751 253.870283,100.671667 C253.464367,101.077583 253.085518,101.280538 252.733724,101.280538 C252.13838,101.280538 251.637758,101.138469 251.231842,100.854328 C250.825926,100.570187 250.501198,100.225164 250.257648,99.8192475 C250.014099,99.4133314 249.831439,98.987126 249.709664,98.5406183 C249.58789,98.0941107 249.513473,97.7084962 249.486412,97.3837634 C249.405228,95.9495267 249.391698,94.6776755 249.44582,93.5681716 C249.499942,92.4586678 249.594655,91.5386052 249.72996,90.8079563 C249.648777,90.672651 249.567595,90.550878 249.486412,90.4426337 C249.405228,90.3343894 249.324047,90.2329119 249.242863,90.1381982 C249.16168,90.0434844 249.066968,89.9555373 248.958723,89.8743541 C249.066968,89.8202319 249.17521,89.7390499 249.283455,89.6308057 C249.499943,89.4684392 249.648777,89.3060753 249.72996,89.1437088 Z M251.191251,98.8044625 C251.272434,98.9127067 251.380676,99.0277146 251.515982,99.1494894 C251.651287,99.2712642 251.820416,99.3659765 252.023374,99.4336292 C252.226332,99.5012819 252.436052,99.508047 252.652541,99.4539249 C252.86903,99.3998027 253.099045,99.2509691 253.342595,99.0074195 C253.992061,98.3308927 254.479152,97.6340806 254.803885,96.9169623 C255.128618,96.1998439 255.338338,95.5233273 255.433052,94.8873922 C255.527766,94.251457 255.514235,93.6899483 255.392461,93.202849 C255.270686,92.7157498 255.074496,92.3639611 254.803885,92.1474726 C254.587397,92.0121672 254.404737,91.8971594 254.255901,91.8024457 C254.107066,91.7077319 253.917641,91.6197848 253.687622,91.5386015 C253.457603,91.4574183 253.166701,91.3694712 252.814907,91.2747574 C252.463113,91.1800437 252.003081,91.0515055 251.434799,90.8891391 C251.164188,91.7550934 250.974764,92.6210346 250.866519,93.4869888 C250.758275,94.3529431 250.710919,95.1444675 250.724449,95.8615858 C250.73798,96.5787042 250.792101,97.2010994 250.886815,97.7287903 C250.981529,98.2564812 251.083006,98.615035 251.191251,98.8044625 Z M256.874047,75.2614495 C256.95523,75.2614495 257.056708,75.2276236 257.178482,75.159971 C257.300257,75.0923183 257.428795,75.0720228 257.564101,75.0990839 C257.699406,75.1261449 257.821179,75.2479179 257.929423,75.4644065 C258.037668,75.680895 258.11885,76.0597443 258.172972,76.6009657 C258.227094,77.2774925 258.281215,78.1028427 258.335337,79.0770412 C258.389459,80.0512397 258.450346,81.0998405 258.517999,82.2228749 C258.585651,83.3459093 258.660068,84.516283 258.741251,85.7340311 C258.822435,86.9517792 258.903616,88.1356833 258.9848,89.2857788 C259.065983,90.4358742 259.1404,91.5047704 259.208052,92.4924995 C259.275705,93.4802285 259.336592,94.3258743 259.390714,95.0294621 C259.471897,94.7047293 259.634261,94.2649935 259.877811,93.7102415 C260.12136,93.1554896 260.425793,92.5736853 260.791117,91.9648113 C261.156442,91.3559372 261.582647,90.7741329 262.069746,90.219381 C262.556845,89.6646291 263.084528,89.2384236 263.652811,88.9407518 C264.112849,88.7513244 264.505229,88.6498469 264.829962,88.6363163 C265.154694,88.6227858 265.432066,88.670142 265.662085,88.7783862 C265.892104,88.8866305 266.081529,89.0219338 266.230365,89.1843002 C266.379201,89.3466667 266.494209,89.4955003 266.575392,89.6308057 C266.900125,90.4155767 267.015132,91.3221089 266.920419,92.3504296 C266.825705,93.3787502 266.568629,94.4002903 266.149182,95.4150804 C265.729736,96.4298705 265.154696,97.3566983 264.424048,98.1955914 C263.693399,99.0344846 262.840988,99.6433495 261.866789,100.022205 C261.325568,100.238693 260.933188,100.353701 260.689639,100.367231 C260.446089,100.380762 260.202543,100.387527 259.958993,100.387527 C260.013115,100.793443 260.026646,101.06405 259.999585,101.199355 C259.972524,101.33466 259.931933,101.415842 259.877811,101.442904 C259.769566,101.551148 259.593672,101.612034 259.350122,101.625565 C259.106573,101.639095 258.863027,101.6188 258.619477,101.564678 C258.457111,99.4539143 258.308277,97.4108342 258.172972,95.4353761 C258.11885,94.5964829 258.057963,93.7305417 257.99031,92.8375264 C257.922658,91.9445111 257.855006,91.0785699 257.787353,90.2396767 C257.719701,89.4007835 257.658814,88.6092591 257.604692,87.8650797 C257.55057,87.1209003 257.509979,86.4646792 257.482918,85.8963967 C257.455857,84.8680761 257.39497,83.7315282 257.300257,82.486719 C257.205543,81.2419098 257.117596,80.0850664 257.036412,79.0161541 C256.955229,77.9472419 256.887578,77.0474748 256.833455,76.3168259 C256.779333,75.586177 256.792864,75.2343884 256.874047,75.2614495 Z M263.693402,90.5644079 C263.314547,90.7808965 262.915403,91.1597458 262.495956,91.7009672 C262.076509,92.2421885 261.68413,92.8984096 261.318805,93.6696501 C260.953481,94.4408906 260.642283,95.2865364 260.385203,96.2066127 C260.128123,97.1266891 259.972524,98.0467517 259.918402,98.9668281 C260.459623,99.1021334 261.014367,99.0277166 261.582649,98.7435753 C262.150932,98.4594341 262.678615,98.0602893 263.165714,97.546129 C263.652813,97.0319687 264.092549,96.4366341 264.484935,95.7601073 C264.87732,95.0835806 265.188518,94.4138291 265.418537,93.7508329 C265.648556,93.0878367 265.777094,92.4654415 265.804155,91.8836285 C265.831216,91.3018155 265.722974,90.835019 265.479424,90.4832251 C265.289996,90.1314312 265.00586,90.002893 264.627005,90.0976068 C264.24815,90.1923205 263.936952,90.3479193 263.693402,90.5644079 Z M276.35792,89.3872573 C276.330859,89.5496237 276.269972,89.887882 276.175258,90.4020423 C276.080545,90.9162026 275.979067,91.5183024 275.870823,92.2083597 C275.762579,92.898417 275.667866,93.6222897 275.586683,94.3799997 C275.5055,95.1377096 275.458144,95.8548172 275.444613,96.531344 C275.431083,97.2078707 275.471674,97.7829098 275.566387,98.2564785 C275.661101,98.7300472 275.8167,99.0209494 276.033188,99.1291937 C276.655593,99.4268654 277.291519,99.3253879 277.940984,98.8247582 C278.59045,98.3241284 279.348149,97.5596646 280.214103,96.531344 C280.295286,96.531344 280.302051,96.6395866 280.234398,96.8560752 C280.166746,97.0725637 280.058503,97.3093445 279.909667,97.5664247 L279.463162,98.3376613 C279.314326,98.5947415 279.199318,98.7638706 279.118135,98.8450539 C278.901646,99.1156645 278.590449,99.420097 278.184533,99.7583604 C277.778617,100.096624 277.345646,100.36723 276.885608,100.570188 C276.42557,100.773146 275.985834,100.861094 275.566387,100.834033 C275.146941,100.806971 274.801917,100.563425 274.531307,100.103387 C274.396001,99.7786545 274.314819,99.3795097 274.287758,98.905941 C274.260697,98.4323722 274.260697,97.9520455 274.287758,97.4649462 C274.314819,96.9778469 274.35541,96.531346 274.409532,96.1254299 C274.463654,95.7195139 274.504245,95.4218466 274.531307,95.2324191 C273.963024,96.2878008 273.313568,97.2890454 272.582919,98.2361828 C271.85227,99.1833203 271.135163,99.9274885 270.431575,100.46871 C269.727987,101.009931 269.078531,101.300833 268.483188,101.341425 C267.887844,101.382017 267.427813,101.036993 267.10308,100.306344 C266.913653,99.6027565 266.913653,98.8112321 267.10308,97.9317473 C267.292508,97.0522625 267.576645,96.2607381 267.955499,95.5571503 C268.523782,94.5829518 269.119117,93.6899499 269.741521,92.8781178 C270.363926,92.0662857 271.026912,91.3762388 271.7305,90.8079563 C272.434088,90.2396739 273.171491,89.8269987 273.942731,89.5699186 C274.713972,89.3128384 275.519026,89.2519519 276.35792,89.3872573 Z M268.726736,99.6974733 C268.997347,99.7515954 269.430317,99.5486404 270.025661,99.0886023 C270.621004,98.6285641 271.2434,97.9858733 271.892865,97.1605107 C272.542331,96.3351481 273.130901,95.3744945 273.658591,94.2785212 C274.186282,93.1825478 274.531306,92.0257045 274.693672,90.8079563 L274.226871,90.8079563 C274.023913,90.8079563 273.787132,90.8891383 273.516522,91.0515047 C272.488201,91.7280315 271.608729,92.5195559 270.87808,93.4261017 C270.147432,94.3326476 269.579158,95.2121191 269.173242,96.0645428 C268.767325,96.9169665 268.52378,97.6814303 268.442596,98.357957 C268.361413,99.0344838 268.456125,99.4809847 268.726736,99.6974733 Z M281.59421,92.9187092 C281.59421,92.9998924 281.634801,93.3787417 281.715985,94.0552685 C281.797168,94.7317952 281.89188,95.5571454 282.000124,96.531344 C282.108369,97.5055425 282.236907,98.5541432 282.385743,99.6771776 C282.534579,100.800212 282.669882,101.869108 282.791657,102.883898 C282.913432,103.898688 283.028439,104.79169 283.136684,105.562931 C283.244928,106.334171 283.31258,106.828028 283.339641,107.044517 C283.177274,107.017456 283.041971,106.990395 282.933727,106.963334 C282.825482,106.936273 282.71724,106.868621 282.608995,106.760377 C282.500751,106.652133 282.372213,106.496534 282.223377,106.293576 C282.074541,106.090618 281.864821,105.799716 281.59421,105.420861 C281.242417,102.931243 280.965045,100.759624 280.762087,98.905941 C280.559129,97.0522577 280.39,95.5436257 280.254694,94.3799997 C279.767595,95.0294653 279.415806,95.462436 279.199318,95.6789245 C278.982829,95.8954131 278.847526,96.0036557 278.793404,96.0036557 C278.712221,96.0036557 278.69869,95.8818827 278.752812,95.6383331 L278.833995,95.2324191 C278.861056,95.0971138 278.888117,94.9753408 278.915178,94.8670965 C278.942239,94.7588522 278.98283,94.6641399 279.036952,94.5829567 C279.22638,94.312346 279.395509,94.0417393 279.544345,93.7711286 C279.693181,93.5005179 279.808188,93.256972 279.889372,93.0404834 C279.997616,92.7698727 280.078798,92.5127964 280.13292,92.2692468 C280.105859,91.971575 280.085563,91.7144987 280.072033,91.4980101 C280.058502,91.2815216 280.051737,91.0582711 280.051737,90.828252 C280.051737,90.5982329 280.044972,90.3614521 280.031441,90.1179025 C280.017911,89.8743529 280.011146,89.5631552 280.011146,89.1843002 L280.011146,85.1860472 C280.011146,84.3065624 280.024676,83.3797347 280.051737,82.4055362 C280.078798,81.4313377 280.112624,80.5045099 280.153216,79.6250251 C280.193807,78.7455404 280.247929,77.9472508 280.315581,77.2301325 C280.383234,76.5130141 280.457651,75.9650357 280.538834,75.5861807 C280.728261,74.8014097 281.019164,74.1993099 281.411549,73.7798633 C281.803935,73.3604167 282.21661,73.1168707 282.649587,73.0492181 C283.082564,72.9815654 283.508769,73.0898081 283.928216,73.3739493 C284.347663,73.6580905 284.665625,74.0978263 284.882114,74.6931698 C285.125664,75.2885134 285.247437,76.0597423 285.247437,77.0068797 C285.247437,77.9540172 285.166255,78.9890876 285.003888,80.112122 C284.841522,81.2351564 284.618271,82.4055301 284.33413,83.6232782 C284.049989,84.8410264 283.745556,86.0249304 283.420824,87.1750259 C283.096091,88.3251213 282.771363,89.4007827 282.44663,90.4020423 C282.121897,91.4033019 281.83776,92.2421825 281.59421,92.9187092 Z M281.269479,90.6049993 C281.946006,88.6295412 282.50075,86.6879386 282.933727,84.7801332 C283.366704,82.8723277 283.684667,81.1607408 283.887625,79.6453209 C284.090583,78.1299009 284.158234,76.9054059 284.090582,75.971799 C284.022929,75.0381921 283.826739,74.5578653 283.502006,74.5308042 C282.987846,74.3413767 282.581936,74.5172711 282.284264,75.0584925 C281.986593,75.5997139 281.749812,76.3574124 281.573915,77.331611 C281.398018,78.3058095 281.28301,79.4220618 281.228888,80.6804016 C281.174766,81.9387413 281.15447,83.190297 281.168001,84.4351063 C281.181531,85.6799155 281.201827,86.8570543 281.228888,87.9665582 C281.255949,89.0760621 281.269479,89.9555336 281.269479,90.6049993 Z M289.996631,75.2614495 C290.077814,75.2614495 290.179291,75.2276236 290.301066,75.159971 C290.422841,75.0923183 290.551379,75.0720228 290.686684,75.0990839 C290.82199,75.1261449 290.943763,75.2479179 291.052007,75.4644065 C291.160251,75.680895 291.241433,76.0597443 291.295555,76.6009657 C291.349678,77.2774925 291.403799,78.1028427 291.457921,79.0770412 C291.512043,80.0512397 291.57293,81.0998405 291.640582,82.2228749 C291.708235,83.3459093 291.782652,84.516283 291.863835,85.7340311 C291.945018,86.9517792 292.0262,88.1356833 292.107383,89.2857788 C292.188567,90.4358742 292.262984,91.5047704 292.330636,92.4924995 C292.398289,93.4802285 292.459175,94.3258743 292.513298,95.0294621 C292.594481,94.7047293 292.756845,94.2649935 293.000394,93.7102415 C293.243944,93.1554896 293.548376,92.5736853 293.913701,91.9648113 C294.279025,91.3559372 294.705231,90.7741329 295.19233,90.219381 C295.679429,89.6646291 296.207112,89.2384236 296.775395,88.9407518 C297.235433,88.7513244 297.627812,88.6498469 297.952545,88.6363163 C298.277278,88.6227858 298.55465,88.670142 298.784669,88.7783862 C299.014688,88.8866305 299.204113,89.0219338 299.352949,89.1843002 C299.501785,89.3466667 299.616792,89.4955003 299.697976,89.6308057 C300.022708,90.4155767 300.137716,91.3221089 300.043003,92.3504296 C299.948289,93.3787502 299.691212,94.4002903 299.271766,95.4150804 C298.852319,96.4298705 298.27728,97.3566983 297.546631,98.1955914 C296.815982,99.0344846 295.963572,99.6433495 294.989373,100.022205 C294.448152,100.238693 294.055772,100.353701 293.812222,100.367231 C293.568673,100.380762 293.325127,100.387527 293.081577,100.387527 C293.135699,100.793443 293.14923,101.06405 293.122169,101.199355 C293.095107,101.33466 293.054516,101.415842 293.000394,101.442904 C292.89215,101.551148 292.716256,101.612034 292.472706,101.625565 C292.229156,101.639095 291.98561,101.6188 291.742061,101.564678 C291.579694,99.4539143 291.430861,97.4108342 291.295555,95.4353761 C291.241433,94.5964829 291.180547,93.7305417 291.112894,92.8375264 C291.045241,91.9445111 290.97759,91.0785699 290.909937,90.2396767 C290.842284,89.4007835 290.781398,88.6092591 290.727276,87.8650797 C290.673154,87.1209003 290.632563,86.4646792 290.605502,85.8963967 C290.578441,84.8680761 290.517554,83.7315282 290.42284,82.486719 C290.328127,81.2419098 290.240179,80.0850664 290.158996,79.0161541 C290.077813,77.9472419 290.010161,77.0474748 289.956039,76.3168259 C289.901917,75.586177 289.915447,75.2343884 289.996631,75.2614495 Z M296.815986,90.5644079 C296.437131,90.7808965 296.037986,91.1597458 295.61854,91.7009672 C295.199093,92.2421885 294.806714,92.8984096 294.441389,93.6696501 C294.076065,94.4408906 293.764867,95.2865364 293.507787,96.2066127 C293.250707,97.1266891 293.095108,98.0467517 293.040986,98.9668281 C293.582207,99.1021334 294.136951,99.0277166 294.705233,98.7435753 C295.273516,98.4594341 295.801199,98.0602893 296.288298,97.546129 C296.775397,97.0319687 297.215133,96.4366341 297.607518,95.7601073 C297.999904,95.0835806 298.311102,94.4138291 298.541121,93.7508329 C298.77114,93.0878367 298.899678,92.4654415 298.926739,91.8836285 C298.9538,91.3018155 298.845557,90.835019 298.602008,90.4832251 C298.41258,90.1314312 298.128443,90.002893 297.749588,90.0976068 C297.370733,90.1923205 297.059536,90.3479193 296.815986,90.5644079 Z M304.893675,89.8337627 C304.974858,89.8067016 305.204874,89.7322848 305.583729,89.61051 C305.962584,89.4887352 306.273781,89.4684397 306.517331,89.5496229 C307.302102,89.5225618 307.904202,89.7255168 308.323648,90.1584939 C308.743095,90.591471 308.776921,91.4303516 308.425127,92.6751608 C307.910967,94.0552754 307.227685,95.2053536 306.375261,96.1254299 C305.522837,97.0455063 304.514828,97.9249779 303.351202,98.763871 C303.621812,99.4674589 304.027722,99.8598385 304.568944,99.9410217 C305.110165,100.022205 305.678439,99.9342577 306.273783,99.6771776 C306.869126,99.4200974 307.45093,99.075074 308.019213,98.6420968 C308.587495,98.2091197 309.047527,97.8302704 309.399321,97.5055376 C309.967603,97.0184383 310.420869,96.6057632 310.759133,96.2674998 C311.097396,95.9292365 311.45595,95.5165613 311.834805,95.0294621 C311.915988,94.97534 311.963344,94.9821051 311.976875,95.0497578 C311.990405,95.1174105 311.98364,95.218888 311.956579,95.3541933 C311.929518,95.4894987 311.888927,95.6789233 311.834805,95.9224729 C311.753621,96.1119004 311.67244,96.2810296 311.591256,96.4298655 C311.510073,96.5787013 311.395065,96.7410653 311.246229,96.9169623 C311.097394,97.0928592 310.901204,97.3025794 310.657654,97.546129 C310.414104,97.7896786 310.116437,98.1144066 309.764643,98.5203226 C309.358727,98.8991776 308.966348,99.2712617 308.587493,99.6365862 C308.208638,100.001911 307.809493,100.319873 307.390046,100.590484 C306.9706,100.861095 306.510568,101.050519 306.009939,101.158764 C305.509309,101.267008 304.93427,101.267008 304.284804,101.158764 C303.743583,100.969336 303.310612,100.766381 302.985879,100.549893 C302.661146,100.333404 302.410835,100.110154 302.234938,99.8801346 C302.059041,99.6501155 301.930503,99.4403954 301.84932,99.2509679 C301.768137,99.0615404 301.714015,98.8991764 301.686954,98.763871 C301.551649,98.2226497 301.497528,97.4920117 301.524589,96.5719354 C301.55165,95.651859 301.822256,94.4611898 302.336417,92.999892 C302.688211,92.2421821 303.06706,91.5994913 303.472976,91.0718004 C303.878892,90.5441096 304.352454,90.1314344 304.893675,89.8337627 Z M303.107653,97.0184408 C303.459447,96.8290133 303.872122,96.5651718 304.345691,96.2269084 C304.81926,95.8886451 305.265761,95.4962654 305.685207,95.0497578 C306.104654,94.6032501 306.469973,94.109393 306.781175,93.5681716 C307.092377,93.0269502 307.261507,92.4586763 307.288568,91.8633328 C307.369751,91.4574167 307.356221,91.1732797 307.247976,91.0109133 C307.193854,90.9297301 307.139733,90.8891391 307.085611,90.8891391 C306.625573,90.6726506 306.165541,90.7403022 305.705503,91.0920961 C305.245465,91.44389 304.826025,91.9445123 304.44717,92.593978 C304.068315,93.2434437 303.750352,93.9673164 303.493272,94.765618 C303.236191,95.5639195 303.107653,96.314853 303.107653,97.0184408 Z M324.783462,79.9700521 C324.702279,80.4571513 324.607566,80.9713039 324.499322,81.5125253 C324.391078,82.0537467 324.27607,82.5678993 324.154295,83.0549986 C324.03252,83.5420978 323.931043,83.9615381 323.84986,84.313332 C323.768676,84.665126 323.714555,84.8816113 323.687494,84.9627945 C323.525128,85.4228327 323.308642,86.0181673 323.038032,86.7488161 C322.767421,87.479465 322.449458,88.2439288 322.084134,89.0422303 C321.718809,89.8405319 321.306134,90.6388215 320.846096,91.437123 C320.386058,92.2354246 319.912496,92.9187064 319.425397,93.4869888 C319.425397,93.8929049 319.472753,94.5761866 319.567467,95.5368546 C319.66218,96.4975226 319.777188,97.532593 319.912494,98.6420968 C320.047799,99.7516007 320.176337,100.840792 320.298112,101.909705 C320.419887,102.978617 320.494304,103.810732 320.521365,104.406076 C320.386059,104.541381 320.264286,104.514321 320.156042,104.324893 C320.047798,104.135466 319.885434,103.810738 319.668945,103.350699 C319.506579,102.647112 319.378041,101.997656 319.283327,101.402312 C319.188613,100.806969 319.100666,100.204869 319.019483,99.5959948 C318.9383,98.9871207 318.850352,98.3444299 318.755639,97.6679032 C318.660925,96.9913765 318.518856,96.2201475 318.329429,95.3541933 C317.815269,96.003659 317.199639,96.7410621 316.48252,97.5664247 C315.765402,98.3917873 315.021234,99.1224253 314.249993,99.7583604 C313.478753,100.394296 312.721054,100.840796 311.976875,101.097877 C311.232695,101.354957 310.590004,101.239949 310.048783,100.75285 C309.72405,100.319873 309.581982,99.8124852 309.622573,99.2306722 C309.663165,98.6488592 309.825529,98.0535246 310.10967,97.4446505 C310.393811,96.8357764 310.75913,96.2336767 311.205638,95.6383331 C311.652146,95.0429896 312.105412,94.488246 312.56545,93.9740856 C313.025488,93.4599253 313.458459,93.0134244 313.864375,92.6345694 C314.270291,92.2557144 314.567958,91.9851078 314.757386,91.8227414 C315.136241,91.5791917 315.454203,91.3830019 315.711284,91.234166 C315.968364,91.0853302 316.198379,90.9635572 316.401337,90.8688434 C316.604295,90.7741297 316.814016,90.706478 317.030504,90.6658864 C317.246993,90.6252948 317.517599,90.6185296 317.842332,90.6455907 C317.78821,90.0231861 317.754384,89.2790178 317.740854,88.4130636 C317.727323,87.5471094 317.727323,86.674403 317.740854,85.7949182 C317.754384,84.9154334 317.781445,84.0968484 317.822036,83.3391384 C317.862628,82.5814285 317.923515,81.9996242 318.004698,81.5937081 C318.05882,80.9983646 318.187358,80.3759693 318.390316,79.7265037 C318.593274,79.077038 318.85035,78.4478775 319.161553,77.8390035 C319.472755,77.2301294 319.817778,76.6889161 320.196633,76.2153474 C320.575488,75.7417787 320.988164,75.4035204 321.434671,75.2005624 C321.881179,74.9976043 322.34121,74.9502482 322.814779,75.0584925 C323.288348,75.1667367 323.755144,75.504995 324.215182,76.0732775 C324.594037,76.5333157 324.783462,77.1083548 324.783462,77.7984121 L324.783462,79.9700521 Z M319.425397,90.8079563 C319.912496,90.2667349 320.318406,89.6916958 320.643139,89.0828217 C320.967872,88.4739477 321.333191,87.7500749 321.739107,86.9111818 C322.090901,86.1805329 322.408863,85.24694 322.693005,84.110375 C322.977146,82.9738101 323.173336,81.8575577 323.28158,80.7615844 C323.389824,79.6656111 323.389824,78.7117227 323.28158,77.8998906 C323.173336,77.0880585 322.902729,76.6550879 322.469752,76.6009657 C322.090897,76.5468436 321.739108,76.6889121 321.414376,77.0271754 C321.089643,77.3654388 320.791975,77.7848791 320.521365,78.2855089 C320.250754,78.7861387 320.020738,79.3205868 319.831311,79.8888693 C319.641883,80.4571517 319.50658,80.957774 319.425397,81.3907511 C319.317153,81.9319725 319.242736,82.4190645 319.202144,82.8520416 C319.161553,83.2850187 319.134492,83.7382848 319.120961,84.2118535 C319.107431,84.6854223 319.087135,85.1995749 319.060074,85.7543268 C319.033013,86.3090787 318.978892,86.9923605 318.897709,87.8041926 C318.897709,88.2101086 318.918004,88.6160186 318.958596,89.0219346 C318.999187,89.4278507 319.053309,89.7728742 319.120961,90.0570154 C319.188614,90.3411566 319.2495,90.5576419 319.303623,90.7064778 C319.357745,90.8553137 319.398336,90.8891395 319.425397,90.8079563 Z M313.539644,94.5829567 C312.808995,95.3406666 312.274547,96.0374787 311.936283,96.6734139 C311.59802,97.309349 311.320648,97.8979184 311.104159,98.4391398 L311.104159,98.8247582 C311.104159,99.0006551 311.124455,99.1697843 311.165047,99.3321507 C311.205638,99.4945171 311.28682,99.6365856 311.408595,99.7583604 C311.53037,99.8801352 311.72656,99.913961 311.99717,99.8598389 C312.267781,99.7515946 312.491031,99.643352 312.666928,99.5351077 C312.842825,99.4268634 313.005189,99.3118556 313.154025,99.1900808 C313.302861,99.068306 313.465225,98.9397678 313.641122,98.8044625 C313.817019,98.6691571 314.04027,98.4932628 314.31088,98.2767742 C314.689735,97.8708582 315.156532,97.4108269 315.711284,96.8966666 C316.266036,96.3825062 316.753127,95.841293 317.172574,95.2730105 C317.592021,94.704728 317.869392,94.1229238 318.004698,93.5275802 C318.140003,92.9322367 317.964109,92.3504324 317.47701,91.78215 C317.287582,91.78215 317.091392,91.8092106 316.888434,91.8633328 C316.685476,91.9174549 316.435165,92.0459931 316.137493,92.2489511 C315.839822,92.4519091 315.481268,92.7360461 315.061821,93.1013705 C314.642375,93.466695 314.134987,93.9605521 313.539644,94.5829567 Z M326.691258,75.2614495 C326.772441,75.2614495 326.873918,75.2276236 326.995693,75.159971 C327.117468,75.0923183 327.246006,75.0720228 327.381312,75.0990839 C327.516617,75.1261449 327.63839,75.2479179 327.746634,75.4644065 C327.854878,75.680895 327.93606,76.0597443 327.990183,76.6009657 C328.044305,77.2774925 328.098426,78.1028427 328.152548,79.0770412 C328.20667,80.0512397 328.267557,81.0998405 328.335209,82.2228749 C328.402862,83.3459093 328.477279,84.516283 328.558462,85.7340311 C328.639645,86.9517792 328.720827,88.1356833 328.802011,89.2857788 C328.883194,90.4358742 328.957611,91.5047704 329.025263,92.4924995 C329.092916,93.4802285 329.153802,94.3258743 329.207925,95.0294621 C329.289108,94.7047293 329.451472,94.2649935 329.695021,93.7102415 C329.938571,93.1554896 330.243004,92.5736853 330.608328,91.9648113 C330.973652,91.3559372 331.399858,90.7741329 331.886957,90.219381 C332.374056,89.6646291 332.901739,89.2384236 333.470022,88.9407518 C333.93006,88.7513244 334.32244,88.6498469 334.647172,88.6363163 C334.971905,88.6227858 335.249277,88.670142 335.479296,88.7783862 C335.709315,88.8866305 335.89874,89.0219338 336.047576,89.1843002 C336.196412,89.3466667 336.31142,89.4955003 336.392603,89.6308057 C336.717336,90.4155767 336.832343,91.3221089 336.73763,92.3504296 C336.642916,93.3787502 336.38584,94.4002903 335.966393,95.4150804 C335.546946,96.4298705 334.971907,97.3566983 334.241258,98.1955914 C333.51061,99.0344846 332.658199,99.6433495 331.684,100.022205 C331.142779,100.238693 330.750399,100.353701 330.506849,100.367231 C330.2633,100.380762 330.019754,100.387527 329.776204,100.387527 C329.830326,100.793443 329.843857,101.06405 329.816796,101.199355 C329.789735,101.33466 329.749144,101.415842 329.695021,101.442904 C329.586777,101.551148 329.410883,101.612034 329.167333,101.625565 C328.923784,101.639095 328.680238,101.6188 328.436688,101.564678 C328.274322,99.4539143 328.125488,97.4108342 327.990183,95.4353761 C327.93606,94.5964829 327.875174,93.7305417 327.807521,92.8375264 C327.739869,91.9445111 327.672217,91.0785699 327.604564,90.2396767 C327.536912,89.4007835 327.476025,88.6092591 327.421903,87.8650797 C327.367781,87.1209003 327.32719,86.4646792 327.300129,85.8963967 C327.273068,84.8680761 327.212181,83.7315282 327.117467,82.486719 C327.022754,81.2419098 326.934807,80.0850664 326.853623,79.0161541 C326.77244,77.9472419 326.704788,77.0474748 326.650666,76.3168259 C326.596544,75.586177 326.610075,75.2343884 326.691258,75.2614495 Z M333.510613,90.5644079 C333.131758,90.7808965 332.732613,91.1597458 332.313167,91.7009672 C331.89372,92.2421885 331.501341,92.8984096 331.136016,93.6696501 C330.770692,94.4408906 330.459494,95.2865364 330.202414,96.2066127 C329.945334,97.1266891 329.789735,98.0467517 329.735613,98.9668281 C330.276834,99.1021334 330.831578,99.0277166 331.39986,98.7435753 C331.968143,98.4594341 332.495826,98.0602893 332.982925,97.546129 C333.470024,97.0319687 333.90976,96.4366341 334.302146,95.7601073 C334.694531,95.0835806 335.005729,94.4138291 335.235748,93.7508329 C335.465767,93.0878367 335.594305,92.4654415 335.621366,91.8836285 C335.648427,91.3018155 335.540185,90.835019 335.296635,90.4832251 C335.107207,90.1314312 334.82307,90.002893 334.444215,90.0976068 C334.06536,90.1923205 333.754163,90.3479193 333.510613,90.5644079 Z M346.175131,89.3872573 C346.148069,89.5496237 346.087183,89.887882 345.992469,90.4020423 C345.897755,90.9162026 345.796278,91.5183024 345.688034,92.2083597 C345.579789,92.898417 345.485077,93.6222897 345.403894,94.3799997 C345.322711,95.1377096 345.275355,95.8548172 345.261824,96.531344 C345.248293,97.2078707 345.288884,97.7829098 345.383598,98.2564785 C345.478312,98.7300472 345.633911,99.0209494 345.850399,99.1291937 C346.472804,99.4268654 347.10873,99.3253879 347.758195,98.8247582 C348.407661,98.3241284 349.165359,97.5596646 350.031314,96.531344 C350.112497,96.531344 350.119262,96.6395866 350.051609,96.8560752 C349.983957,97.0725637 349.875714,97.3093445 349.726878,97.5664247 L349.280373,98.3376613 C349.131537,98.5947415 349.016529,98.7638706 348.935346,98.8450539 C348.718857,99.1156645 348.40766,99.420097 348.001744,99.7583604 C347.595828,100.096624 347.162857,100.36723 346.702819,100.570188 C346.242781,100.773146 345.803045,100.861094 345.383598,100.834033 C344.964152,100.806971 344.619128,100.563425 344.348517,100.103387 C344.213212,99.7786545 344.13203,99.3795097 344.104969,98.905941 C344.077908,98.4323722 344.077908,97.9520455 344.104969,97.4649462 C344.13203,96.9778469 344.172621,96.531346 344.226743,96.1254299 C344.280865,95.7195139 344.321456,95.4218466 344.348517,95.2324191 C343.780235,96.2878008 343.130779,97.2890454 342.40013,98.2361828 C341.669481,99.1833203 340.952374,99.9274885 340.248786,100.46871 C339.545198,101.009931 338.895742,101.300833 338.300399,101.341425 C337.705055,101.382017 337.245024,101.036993 336.920291,100.306344 C336.730863,99.6027565 336.730863,98.8112321 336.920291,97.9317473 C337.109718,97.0522625 337.393855,96.2607381 337.77271,95.5571503 C338.340993,94.5829518 338.936327,93.6899499 339.558732,92.8781178 C340.181137,92.0662857 340.844123,91.3762388 341.547711,90.8079563 C342.251299,90.2396739 342.988702,89.8269987 343.759942,89.5699186 C344.531183,89.3128384 345.336237,89.2519519 346.175131,89.3872573 Z M338.543947,99.6974733 C338.814558,99.7515954 339.247528,99.5486404 339.842872,99.0886023 C340.438215,98.6285641 341.060611,97.9858733 341.710076,97.1605107 C342.359542,96.3351481 342.948111,95.3744945 343.475802,94.2785212 C344.003493,93.1825478 344.348517,92.0257045 344.510883,90.8079563 L344.044082,90.8079563 C343.841124,90.8079563 343.604343,90.8891383 343.333732,91.0515047 C342.305412,91.7280315 341.42594,92.5195559 340.695291,93.4261017 C339.964642,94.3326476 339.396368,95.2121191 338.990452,96.0645428 C338.584536,96.9169665 338.34099,97.6814303 338.259807,98.357957 C338.178624,99.0344838 338.273336,99.4809847 338.543947,99.6974733 Z M351.249056,88.9407518 C351.249056,89.6984618 351.242291,90.4561604 351.22876,91.2138703 C351.21523,91.9715803 351.201699,92.7022182 351.188169,93.405806 C351.174638,94.1093938 351.161108,94.7723801 351.147577,95.3947847 C351.134047,96.0171893 351.113751,96.5719329 351.08669,97.0590322 C351.08669,96.9507879 351.147577,96.6869464 351.269351,96.2674998 C351.391126,95.8480533 351.560255,95.3677265 351.776744,94.8265051 C351.993233,94.2852837 352.230013,93.7102446 352.487094,93.1013705 C352.744174,92.4924964 353.021545,91.9512832 353.319217,91.4777144 C353.616889,91.0041457 353.921321,90.6320616 354.232524,90.3614509 C354.543726,90.0908402 354.834628,90.0096582 355.105239,90.1179025 C355.700582,90.3885132 356.120023,90.7808928 356.363572,91.2950531 C356.607122,91.8092135 356.783016,92.3977829 356.891261,93.0607791 C356.999505,93.7237753 357.107748,94.4611784 357.215992,95.2730105 C357.324236,96.0848426 357.567782,96.9372535 357.946637,97.8302688 C358.109003,98.2361849 358.345784,98.5338522 358.656987,98.7232796 C358.968189,98.9127071 359.265856,99.0480105 359.549997,99.1291937 C359.834139,99.2103769 360.064154,99.257733 360.240051,99.2712636 C360.415948,99.2847941 360.476835,99.3321503 360.422713,99.4133335 C359.746186,99.9274938 359.164382,100.103388 358.677282,99.9410217 C358.190183,99.7786553 357.777508,99.4201015 357.439245,98.8653496 C357.100981,98.3105976 356.823609,97.6476114 356.607121,96.8763709 C356.390632,96.1051304 356.194442,95.3609621 356.018545,94.6438438 C355.842648,93.9267254 355.68705,93.3178605 355.551744,92.8172307 C355.416439,92.3166009 355.267605,92.0662898 355.105239,92.0662898 C354.861689,92.0933508 354.597848,92.3233665 354.313707,92.7563436 C354.029565,93.1893207 353.738663,93.730534 353.440991,94.3799997 C353.14332,95.0294653 352.859183,95.7398078 352.588572,96.5110483 C352.317961,97.2822887 352.06765,98.0061615 351.837631,98.6826882 C351.607612,99.359215 351.424953,99.9410193 351.289647,100.428119 C351.154342,100.915218 351.07316,101.212885 351.046099,101.321129 C350.640183,101.321129 350.389872,101.33466 350.295158,101.361721 C350.200444,101.388782 350.044845,101.253479 349.828357,100.955807 C349.963662,98.5744326 350.011018,96.3216323 349.970427,94.1973384 C349.929835,92.0730444 349.868949,90.2261541 349.787765,88.656612 C349.787765,88.4130624 349.848652,88.2912894 349.970427,88.2912894 C350.092201,88.2912894 350.227505,88.3454107 350.376341,88.453655 C350.525177,88.5618993 350.680775,88.670142 350.843142,88.7783862 C351.005508,88.8866305 351.140811,88.9407518 351.249056,88.9407518 Z M362.817605,93.3652146 C363.44001,93.50052 364.001519,93.6087626 364.502148,93.6899458 C365.002778,93.771129 365.5034,93.8455459 366.00403,93.9131985 C366.50466,93.9808512 367.059404,94.0417377 367.668278,94.0958599 C368.277152,94.149982 369.001025,94.2176337 369.839918,94.2988169 C370.083467,94.5694276 370.245831,94.792678 370.327015,94.968575 C370.408198,95.1444719 370.51644,95.4218437 370.651746,95.8006987 C369.785792,95.6383323 369.001032,95.5165593 368.297444,95.4353761 C367.593857,95.3541929 366.897045,95.2865412 366.206987,95.2324191 C365.51693,95.178297 364.806588,95.1309408 364.075939,95.0903492 C363.34529,95.0497576 362.53347,94.9888711 361.640455,94.9076879 C361.613394,96.2878024 361.640454,97.5122975 361.721637,98.5812097 C361.802821,99.650122 361.802821,100.617541 361.721637,101.483495 C361.559271,101.510556 361.430733,101.483495 361.336019,101.402312 C361.241305,101.321129 361.153358,101.226417 361.072175,101.118172 C360.990992,101.009928 360.903045,100.89492 360.808331,100.773145 C360.713617,100.651371 360.585079,100.563423 360.422713,100.509301 C360.503896,96.7748737 360.490365,93.3381694 360.382121,90.1990853 C360.273877,87.0600012 360.246816,84.0562675 360.300938,81.1877941 C360.300938,80.6465727 360.307703,80.0309426 360.321234,79.3408853 C360.334765,78.6508281 360.34153,77.9743115 360.34153,77.3113153 C360.34153,76.648319 360.327999,76.0529844 360.300938,75.5252936 C360.273877,74.9976027 360.219756,74.6390489 360.138573,74.4496214 C360.328,74.2331329 360.51066,74.0978296 360.686557,74.0437074 C360.862454,73.9895853 361.180416,73.9489943 361.640455,73.9219332 C361.694577,77.2233837 361.694577,80.4841937 361.640455,83.704461 C361.586332,86.9247283 361.586332,89.9825833 361.640455,92.8781178 C362.100493,92.5263239 362.587585,92.0933533 363.101745,91.5791929 C363.615905,91.0650326 364.096232,90.5644103 364.54274,90.0773111 C364.989247,89.5902118 365.374862,89.1640064 365.699595,88.7986819 C366.024328,88.4333575 366.227283,88.2371677 366.308466,88.2101066 C366.552015,88.4265952 366.802327,88.6092546 367.059407,88.7580905 C367.316487,88.9069264 367.445025,88.9678129 367.445025,88.9407518 C366.768498,89.6984618 366.064921,90.5035165 365.334272,91.3559402 C364.603623,92.2083639 363.764743,92.8781154 362.817605,93.3652146 Z" id="global-bedbank" fill="#FFFFFF"></path>
            </g>
        </g>
    </g>
</svg>