<?xml version="1.0" encoding="UTF-8" standalone="no"?>
<svg width="143px" height="45px" viewBox="0 0 143 45" version="1.1" xmlns="http://www.w3.org/2000/svg" xmlns:xlink="http://www.w3.org/1999/xlink">
    <!-- Generator: Sketch 41 (35326) - http://www.bohemiancoding.com/sketch -->
    <title>Group 4</title>
    <desc>Created with Sketch.</desc>
    <defs></defs>
    <g id="Page-1" stroke="none" stroke-width="1" fill="none" fill-rule="evenodd">
        <g id="Home_Smyrooms" transform="translate(-255.000000, -90.000000)">
            <g id="Group-4" transform="translate(255.000000, 90.000000)">
                <g id="Group" transform="translate(-0.000000, 0.000000)">
                    <g id="Group-13">
                        <path d="M41.4148956,10.6664528 C41.1863097,9.89497566 40.8660238,9.23845589 40.4633406,8.71549935 C40.0460385,8.172608 39.467929,7.71942329 38.7476179,7.36790613 C38.0299647,7.01838244 37.1774193,6.84029813 36.2145679,6.84029813 C34.9772806,6.84029813 33.8031203,7.14795871 32.723318,7.75464146 C32.0442054,8.13606084 31.456793,8.64041156 30.9657322,9.26370665 C30.6441172,8.71749283 30.2367826,8.25234724 29.7463862,7.87159235 C28.8672611,7.18716384 27.7369573,6.84029813 26.3873706,6.84029813 C25.2557378,6.84029813 24.1772645,7.09546371 23.1811885,7.59914993 C22.7625575,7.81112342 22.3718352,8.07625641 22.0136731,8.39122642 L22.0003832,7.90215906 C21.9904158,7.49349544 21.6568399,7.16722903 21.2475118,7.16722903 L19.114487,7.16722903 C18.697185,7.16722903 18.3602867,7.50479183 18.3602867,7.92076488 L18.3602867,15.128528 C18.2898504,14.9477857 18.2187495,14.7697014 18.1383458,14.6082295 C17.9190629,14.1703281 17.6047574,13.7503681 17.2020742,13.3603103 C16.8326157,13.0028127 16.4611637,12.6911651 16.0990146,12.4359996 C15.7335431,12.178176 15.2723845,11.9123785 14.6949395,11.6233238 C14.1394227,11.3462299 13.6244401,11.1096701 13.1619525,10.9222829 C12.7120903,10.7388827 12.1373032,10.5116258 11.4296174,10.2371899 C11.0893967,10.1089426 10.6056452,9.9441482 9.97836319,9.74214211 C9.36702899,9.54611647 8.85736232,9.37999305 8.4486987,9.24510083 C8.07193077,9.121505 7.63735189,8.94009822 7.15559396,8.70686093 C6.70174476,8.48691352 6.34092468,8.26430813 6.08376562,8.04701869 C5.85119283,7.84966406 5.64652877,7.58718905 5.47376041,7.26823207 C5.31428192,6.97186788 5.23653616,6.65025293 5.23653616,6.28544589 C5.23653616,5.30531769 5.60865263,4.63085658 6.40604507,4.16371751 C7.31174998,3.63278705 8.52511547,3.3636671 10.0122524,3.3636671 C11.1352467,3.3636671 12.1718569,3.61883268 13.0935096,4.11986093 C14.0151624,4.62221817 14.7288286,5.3352199 15.2750425,6.29940026 C15.3813615,6.48678748 15.5634327,6.61968622 15.7747417,6.66487179 C15.8265722,6.67550369 15.8784027,6.68081964 15.9302332,6.68081964 C16.0903762,6.68081964 16.2485257,6.62965363 16.378102,6.53263755 L18.0606,5.28671186 C18.382215,5.04948761 18.4612897,4.60294785 18.2433358,4.26870752 C17.2671946,2.77824815 16.0677834,1.68316254 14.6769981,1.0126884 C13.3074766,0.353510648 11.628301,0.0192703173 9.68532147,0.0192703173 C8.64073738,0.0192703173 7.63070695,0.142201651 6.68579691,0.385406345 C5.7282615,0.631933507 4.84448488,1.00604346 4.06038231,1.49643981 C3.23574563,2.01341591 2.57125193,2.70781182 2.08484255,3.56102173 C1.59511069,4.42021208 1.34725454,5.39967579 1.34725454,6.47283312 C1.34725454,6.77251977 1.36519587,7.0655615 1.40307201,7.36391917 C1.668205,9.10555715 2.7539877,10.5156128 4.63051791,11.5535519 C5.40265958,11.9841439 6.70573173,12.5157388 8.65203377,13.1928579 C8.71050921,13.2094702 8.79357093,13.2393724 8.92447618,13.2892095 C9.76306723,13.5795932 10.3345318,13.7782768 10.6388699,13.8872538 C10.9405501,13.9942373 11.3957282,14.1696636 12.0057335,14.4141973 C12.7506309,14.7118905 13.0230733,14.867382 13.1194249,14.9338314 C13.3347209,15.082678 13.6257691,15.2893355 13.9938986,15.5557975 C14.3626926,15.821595 14.4743276,15.9990148 14.5068877,16.0628062 C14.6145357,16.2834181 14.7208547,16.556525 14.8245157,16.874153 C14.9128934,17.1505824 14.958079,17.4662169 14.958079,17.8104246 C14.958079,18.3652768 14.8623919,18.8623181 14.6743402,19.2869296 C14.4876174,19.7055606 14.2430837,20.0451169 13.9473841,20.29696 C13.6244401,20.5713959 13.2323888,20.8059622 12.7831911,20.9926849 C12.314723,21.1873816 11.8342941,21.3255963 11.3545296,21.4040065 C10.8574884,21.4850748 10.3265579,21.5269379 9.77901508,21.5269379 C8.0161133,21.5269379 6.59874824,21.1541569 5.56612503,20.4205558 C4.54944967,19.6969222 3.82182907,18.5533286 3.40452703,17.0203416 C3.34738057,16.8096971 3.20052747,16.6349352 3.00450183,16.5399126 C2.90084081,16.4900756 2.78920587,16.4654894 2.67757093,16.4654894 C2.57656788,16.4654894 2.47490035,16.4854242 2.37921326,16.5266228 L0.463477923,17.3525884 C0.141862973,17.4914676 -0.0428662755,17.8336819 0.0209251195,18.1792186 C0.202331899,19.1819396 0.54919761,20.0982764 1.04889687,20.9023138 C1.54593816,21.7023642 2.13268609,22.3668579 2.79319283,22.8765246 C3.43708722,23.3729013 4.16803029,23.7895389 4.97140317,24.1151408 C5.7594927,24.4354268 6.55090469,24.6653416 7.32171738,24.7982403 C8.08256267,24.9291456 8.86267827,24.9962595 9.63880691,24.9962595 C12.3678825,24.9962595 14.5926074,24.3663194 16.2498547,23.1243807 C17.2359634,22.3854637 17.9343462,21.4697914 18.3602867,20.3986276 L18.3602867,23.8533303 C18.3602867,24.2693033 18.697185,24.6068661 19.114487,24.6068661 L21.3259221,24.6068661 C21.7412306,24.6068661 22.0781289,24.2693033 22.0781289,23.8533303 L22.0781289,14.7736884 C22.0781289,13.9576901 22.2415944,13.1709296 22.5612159,12.4340061 C22.8768504,11.7090435 23.3306996,11.12296 23.9526657,10.6425311 C24.5380846,10.1873529 25.1813145,9.96674098 25.9202315,9.96674098 C26.766132,9.96674098 27.3163328,10.2644342 27.6512376,10.9016836 C28.0585722,11.6817992 28.2652298,12.8586176 28.2652298,14.3995784 L28.2652298,23.8533303 C28.2652298,24.2693033 28.6027926,24.6068661 29.0194301,24.6068661 L31.2308651,24.6068661 C31.6461737,24.6068661 31.9837365,24.2693033 31.9837365,23.8533303 L31.9837365,14.6487636 C31.9837365,13.8679835 32.1498599,13.1058092 32.4781198,12.3821756 C32.8010638,11.6671804 33.2608934,11.0923933 33.879537,10.6252542 C34.467614,10.1827014 35.1035344,9.96674098 35.8251746,9.96674098 C36.2757013,9.96674098 36.6531337,10.0564476 36.9475044,10.2338674 C37.2385527,10.4073003 37.4618226,10.6611369 37.6319329,11.0086671 C37.83261,11.4179952 37.9781342,11.8924437 38.0638538,12.4193872 C38.1562185,12.9782264 38.201404,13.6447136 38.201404,14.3995784 L38.201404,23.8533303 C38.201404,24.2693033 38.5389668,24.6068661 38.9556044,24.6068661 L41.1670394,24.6068661 C41.582348,24.6068661 41.9199108,24.2693033 41.9199108,23.8533303 L41.9199108,14.8826654 C41.9199108,14.0939113 41.8900086,13.3762581 41.8315331,12.7483116 C41.7703997,12.0951143 41.6288625,11.3954024 41.4148956,10.6664528" id="Fill-5" fill="#6CAAE4"></path>
                        <path d="M57.6417652,7.4970837 C57.5015571,7.29042616 57.2683198,7.16749483 57.0191346,7.16749483 L54.8382663,7.16749483 C54.5279478,7.16749483 54.2501894,7.35687553 54.136561,7.6452658 C52.2699982,12.3977247 50.8459882,16.0364922 49.8897817,18.5050863 C49.5422515,17.6272901 49.1355814,16.5926734 48.6724293,15.4025652 L46.53874,9.93776906 L45.6509764,7.64858827 C45.5393415,7.35820452 45.2602542,7.16749483 44.9486066,7.16749483 L42.6753737,7.16749483 C42.4235306,7.16749483 42.1896288,7.29241964 42.0494206,7.50107066 C41.9092124,7.70905719 41.8819682,7.97352568 41.9769908,8.20543399 L47.9753754,22.8794483 L47.7082489,23.656906 C46.9294623,25.9494092 45.6443315,26.2145422 44.7466005,26.2145422 C44.3505623,26.2145422 43.9272798,26.180653 43.488714,26.1142037 C43.4515023,26.1082232 43.4136262,26.1055652 43.37575,26.1055652 C43.2136136,26.1055652 43.0541351,26.1580602 42.9232298,26.2557408 C42.7617578,26.3780076 42.6554389,26.5587499 42.6281946,26.759427 L42.3949573,28.5196708 C42.3451203,28.8944453 42.5816801,29.2479559 42.9464871,29.346301 C43.5471894,29.5084375 44.1638395,29.5901702 44.7778317,29.5901702 C45.5552894,29.5901702 46.2742715,29.4765418 46.9121855,29.2512784 C47.5487704,29.027344 48.1062807,28.7276574 48.5700973,28.3601924 C49.0319204,27.9947208 49.4837761,27.4750867 49.9103811,26.817238 C50.3117352,26.1999233 50.6605944,25.5746348 50.9489847,24.9593136 C51.229401,24.3619338 51.5636414,23.5738442 51.9417383,22.6189668 C52.3882781,21.4879985 53.2820221,19.2572932 54.6256283,15.9268508 C55.9712281,12.5924214 57.0018578,10.0155148 57.719511,8.19746006 C57.8105466,7.96488727 57.7819734,7.70307675 57.6417652,7.4970837" id="Fill-7" fill="#6CAAE4"></path>
                        <path d="M66.3006497,7.15187923 C65.5969509,7.15187923 64.9145159,7.24889531 64.271286,7.44026949 C63.5961604,7.64094659 62.9343246,8.01638553 62.3057136,8.55595441 C62.2997332,8.56127036 62.2944172,8.56592182 62.2884368,8.57123777 L62.2884368,7.92069844 C62.2884368,7.50472538 61.950874,7.16716258 61.5349009,7.16716258 L59.3859283,7.16716258 C58.9699552,7.16716258 58.6323924,7.50472538 58.6323924,7.92069844 L58.6323924,23.8532638 C58.6323924,24.2692369 58.9699552,24.6067997 59.3859283,24.6067997 L61.5973633,24.6067997 C62.0133364,24.6067997 62.3508992,24.2692369 62.3508992,23.8532638 L62.3508992,15.5676919 C62.3508992,14.874625 62.424658,14.2287371 62.5695176,13.6479696 C62.7103903,13.0851435 62.9356536,12.5562065 63.2386628,12.0771065 C63.5137631,11.6411987 63.8938535,11.3076228 64.4008622,11.0564442 C64.9211608,10.7986206 65.5604037,10.6677154 66.3006497,10.6677154 C66.7166228,10.6677154 67.0541856,10.3301526 67.0541856,9.91417953 L67.0541856,7.90541508 C67.0541856,7.48944203 66.7166228,7.15187923 66.3006497,7.15187923" id="Fill-9" fill="#012168"></path>
                        <path d="M74.8822536,6.84043103 C72.6003822,6.84043103 70.7351484,7.63782347 69.3350602,9.21068005 C67.9588937,10.7589504 67.2598464,13.012913 67.2598464,15.9101055 C67.2598464,18.7508161 67.9429459,20.9881664 69.2872166,22.559694 C70.6607251,24.1657752 72.5385843,24.9804445 74.8669702,24.9804445 C77.1946917,24.9804445 79.0738798,24.1604593 80.4473883,22.5417526 C81.7903301,20.9609221 82.4727651,18.7136044 82.4727651,15.863591 C82.4727651,12.9863332 81.7737177,10.744996 80.3968868,9.20204163 C78.9961341,7.63516549 77.1408677,6.84043103 74.8822536,6.84043103 M71.5557981,19.3820851 C71.3571145,18.8385292 71.2182353,18.281019 71.1431475,17.7248378 C71.0654018,17.1487218 71.0248677,16.5221042 71.0248677,15.863591 C71.0248677,15.0442702 71.0946395,14.2814315 71.2295317,13.595674 C71.360437,12.9265288 71.5777264,12.2819699 71.8754196,11.6799386 C72.1392236,11.1416987 72.5133336,10.7317061 73.0143618,10.426039 C73.5147256,10.1210364 74.1386851,9.96687388 74.8669702,9.96687388 C75.4464087,9.96687388 75.9633848,10.0731929 76.4032797,10.2831729 C76.84251,10.4924884 77.1986786,10.7655953 77.4638116,11.0945197 C77.7475504,11.4493593 77.9894261,11.8892542 78.1781423,12.4022433 C78.3768259,12.9418122 78.5183631,13.4979934 78.5987668,14.0555036 C78.6811641,14.6296262 78.7223627,15.2482698 78.7223627,15.8948222 C78.7223627,16.5533354 78.683822,17.179953 78.6054118,17.756069 C78.528995,18.3115857 78.3907803,18.8657735 78.1927612,19.4033489 C78.004045,19.9156735 77.7641628,20.3555684 77.4784305,20.7110725 C77.215291,21.0399969 76.8591223,21.3131038 76.4192275,21.5217548 C75.9780037,21.7317348 75.4610276,21.8380538 74.8822536,21.8380538 C74.2915187,21.8380538 73.7692266,21.7317348 73.3286673,21.5217548 C72.8847855,21.3104458 72.5399133,21.0439838 72.2714578,20.706421 C71.9870545,20.3462654 71.7445143,19.9003902 71.5557981,19.3820851" id="Fill-11" fill="#012168"></path>
                        <path d="M91.4530652,6.84043103 C89.1711938,6.84043103 87.30596,7.63782347 85.9058718,9.21068005 C84.5290409,10.7589504 83.830658,13.012913 83.830658,15.9101055 C83.830658,18.7508161 84.5137575,20.9881664 85.8573638,22.559694 C87.2315367,24.1657752 89.1093959,24.9804445 91.4377818,24.9804445 C93.7655033,24.9804445 95.6446914,24.1604593 97.0181999,22.5417526 C98.3611417,20.9609221 99.0435767,18.7136044 99.0435767,15.863591 C99.0435767,12.9863332 98.3445293,10.744996 96.9676984,9.20204163 C95.5669457,7.63516549 93.7116793,6.84043103 91.4530652,6.84043103 M88.1266097,19.3820851 C87.9279261,18.8385292 87.7890469,18.281019 87.7139591,17.7248378 C87.6362134,17.1487218 87.5956793,16.5221042 87.5956793,15.863591 C87.5956793,15.0442702 87.6654511,14.2814315 87.8003433,13.595674 C87.9312486,12.9265288 88.148538,12.2819699 88.4462312,11.6799386 C88.7100352,11.1416987 89.0841452,10.7317061 89.5851734,10.426039 C90.0855372,10.1210364 90.7094967,9.96687388 91.4377818,9.96687388 C92.0172203,9.96687388 92.5341964,10.0731929 92.9740913,10.2831729 C93.4133216,10.4924884 93.7694902,10.7655953 94.0346232,11.0945197 C94.318362,11.4493593 94.5602377,11.8892542 94.7489539,12.4022433 C94.9476375,12.9418122 95.0891747,13.4979934 95.1695784,14.0555036 C95.2519757,14.6296262 95.2931743,15.2482698 95.2931743,15.8948222 C95.2931743,16.5533354 95.2546336,17.179953 95.1762234,17.756069 C95.0998066,18.3115857 94.9615919,18.8657735 94.7635728,19.4033489 C94.5748566,19.9156735 94.3349744,20.3555684 94.0492421,20.7110725 C93.7861026,21.0399969 93.4299339,21.3131038 92.9900391,21.5217548 C92.5488153,21.7317348 92.0318392,21.8380538 91.4530652,21.8380538 C90.8623303,21.8380538 90.3400382,21.7317348 89.8994789,21.5217548 C89.4555971,21.3104458 89.1107249,21.0439838 88.8422694,20.706421 C88.5578661,20.3462654 88.3153259,19.9003902 88.1266097,19.3820851" id="Fill-13" fill="#012168"></path>
                        <path d="M123.98475,10.6664528 C123.756828,9.89497566 123.437871,9.23845589 123.033859,8.71483485 C122.615893,8.172608 122.039112,7.71942329 121.318801,7.36857062 C120.599819,7.01771795 119.747938,6.84029813 118.785751,6.84029813 C117.547799,6.84029813 116.374303,7.14795871 115.294501,7.75464146 C114.614059,8.13539635 114.027976,8.64107605 113.536915,9.26370665 C113.2153,8.71749283 112.807966,8.25234724 112.316905,7.87159235 C111.43778,7.18716384 110.30814,6.84029813 108.958554,6.84029813 C107.826921,6.84029813 106.747783,7.09546371 105.753036,7.59914993 C105.333741,7.81112342 104.943683,8.07559192 104.584192,8.39189092 L104.571566,7.90215906 C104.562263,7.49349544 104.228023,7.16722903 103.81803,7.16722903 L101.684341,7.16722903 C101.268368,7.16722903 100.932134,7.50479183 100.932134,7.92076488 L100.932134,23.8533303 C100.932134,24.2693033 101.268368,24.6068661 101.684341,24.6068661 L103.897105,24.6068661 C104.313078,24.6068661 104.649312,24.2693033 104.649312,23.8533303 L104.649312,14.7736884 C104.649312,13.9576901 104.811448,13.1709296 105.133063,12.4340061 C105.448033,11.709708 105.901883,11.12296 106.523184,10.6418666 C107.109268,10.1880174 107.751833,9.96674098 108.491415,9.96674098 C109.337315,9.96674098 109.887516,10.2644342 110.221092,10.9023481 C110.629091,11.6817992 110.837077,12.8586176 110.837077,14.3995784 L110.837077,23.8533303 C110.837077,24.2693033 111.17464,24.6068661 111.590613,24.6068661 L113.802048,24.6068661 C114.218021,24.6068661 114.555584,24.2693033 114.555584,23.8533303 L114.555584,14.6487636 C114.555584,13.8679835 114.721707,13.1051447 115.049303,12.3821756 C115.372247,11.6665159 115.830747,11.0923933 116.45072,10.6252542 C117.038797,10.1820369 117.675382,9.96674098 118.396358,9.96674098 C118.846884,9.96674098 119.224981,10.0564476 119.518687,10.233203 C119.809736,10.4073003 120.03367,10.6611369 120.20378,11.0086671 C120.402464,11.4173307 120.547988,11.8924437 120.634372,12.4187227 C120.726737,12.9782264 120.772587,13.6447136 120.772587,14.3995784 L120.772587,23.8533303 C120.772587,24.2693033 121.110814,24.6068661 121.526787,24.6068661 L123.738222,24.6068661 C124.154196,24.6068661 124.491758,24.2693033 124.491758,23.8533303 L124.491758,14.8826654 C124.491758,14.0945758 124.461856,13.3762581 124.402716,12.7483116 C124.340254,12.0957788 124.200046,11.3954024 123.98475,10.6664528" id="Fill-15" fill="#012168"></path>
                        <path d="M137.957258,15.7730869 C136.943905,14.9909778 135.505941,14.4367901 133.567613,14.0806215 C133.03934,13.9782894 132.599445,13.8872538 132.247264,13.8055211 C131.927642,13.7310978 131.587421,13.6247788 131.239891,13.4878931 C130.929573,13.3662907 130.68969,13.2380435 130.528218,13.1064737 C130.387346,12.9921808 130.273717,12.8466567 130.182017,12.6612629 C130.09364,12.4851721 130.051776,12.2798435 130.051776,12.0326519 C130.051776,11.3641712 130.266408,10.9016836 130.727567,10.5774107 C131.26049,10.2033007 132.099746,10.01392 133.222076,10.01392 C134.123794,10.01392 134.842776,10.1614376 135.359088,10.4531504 C135.850148,10.7315732 136.229574,11.1887449 136.518629,11.8505806 C136.640896,12.129668 136.914667,12.3031008 137.209038,12.3031008 C137.25954,12.3031008 137.31137,12.2977849 137.362536,12.287153 C137.472178,12.2645602 137.569858,12.2193746 137.654913,12.1575767 C137.728008,12.1123911 138.011746,11.9449387 139.091549,11.33294 C139.438414,11.1362499 139.572642,10.7036645 139.395887,10.3455024 C138.775914,9.08229987 137.938652,8.16795654 136.904035,7.62705867 C135.90663,7.10543112 134.625487,6.84029813 133.09848,6.84029813 C131.191383,6.84029813 129.611882,7.27487701 128.402503,8.13140939 C127.112721,9.04508822 126.456866,10.3474959 126.456866,12.0014207 C126.456866,12.6998036 126.559862,13.3317371 126.759875,13.8799444 C126.96321,14.4354611 127.23233,14.9019357 127.56059,15.2680717 C127.885527,15.6308853 128.313461,15.9511712 128.834424,16.2209557 C129.31153,16.4681473 129.781328,16.665502 130.230525,16.8077036 C130.662446,16.9445893 131.198693,17.0794815 131.823981,17.2090578 C134.190908,17.6994542 135.130502,18.0941634 135.503283,18.3386971 C135.648807,18.4350487 136.09734,18.7300839 136.09734,19.819189 C136.09734,20.3627449 136.09734,21.8073542 132.755601,21.8073542 C131.681115,21.8073542 130.865117,21.621296 130.331528,21.2538309 C129.802591,20.8896884 129.371999,20.2670578 129.0557,19.4038805 C128.983935,19.2118418 128.838411,19.0570148 128.651688,18.9746176 C128.556001,18.9314255 128.451011,18.9101617 128.34735,18.9101617 C128.251663,18.9101617 128.153982,18.9287675 128.062947,18.9659791 L126.381113,19.6510721 C126.027603,19.7959318 125.837557,20.1833316 125.939889,20.5514611 C126.163159,21.3515115 126.517999,22.0611908 126.993776,22.6625576 C127.473541,23.2672468 128.038361,23.7430243 128.674946,24.0766002 C129.276977,24.3915702 129.911568,24.624143 130.55945,24.7676736 C131.196699,24.9085463 131.867173,24.9803116 132.552266,24.9803116 C134.823506,24.9803116 136.573118,24.5091856 137.752594,23.5808879 C138.987888,22.6093981 139.613176,21.2020004 139.613176,19.3985645 C139.613176,17.8409913 139.055666,16.6209809 137.957258,15.7730869" id="Fill-17" fill="#012168"></path>
                    </g>
                </g>
                <path d="M92.0752336,34.7589737 C91.8996894,34.7531211 91.6529923,34.8296578 91.3351372,34.9885854 C90.9604455,35.1759312 90.5545355,35.5350054 90.1173952,36.0658187 C89.9196412,36.3468375 89.768726,36.5992302 89.6646449,36.8230045 C89.5605639,37.0467787 89.4851063,37.2393257 89.4382698,37.4006513 C89.3914333,37.5619769 89.3680155,37.6998823 89.3680155,37.8143714 C89.3680155,37.9288605 89.3732194,38.0173281 89.3836275,38.0797767 C89.3940356,38.1214091 89.4304635,38.1578369 89.4929121,38.1890613 C89.5553607,38.2202856 89.6334203,38.2254895 89.7270932,38.2046733 C89.9977039,38.1422247 90.2500967,38.0043194 90.484279,37.7909533 C90.7184613,37.5775872 90.9318243,37.3356024 91.1243742,37.0649917 C91.3169241,36.794381 91.4808493,36.5289783 91.6161546,36.2687757 C91.75146,36.0085731 91.8503355,35.8004142 91.9127841,35.6442926 C92.0168651,35.4049062 92.0715069,35.1837373 92.0767109,34.9807793 C92.0792038,34.8835586 92.0787113,34.8096235 92.0752336,34.7589737 L92.0752336,34.7589737 Z M92.8261084,34.4819512 C92.8337248,34.4842545 92.8415249,34.4866037 92.8495088,34.4889989 C92.7558358,34.7387934 92.6751742,35.0432258 92.6075216,35.4023054 C92.5398689,35.761385 92.4800232,36.1230612 92.4279827,36.4873448 C92.3759421,36.8516284 92.3317084,37.1976927 92.29528,37.525548 C92.2588516,37.8534032 92.2250258,38.1109999 92.1938015,38.2983458 C92.2770663,38.215081 92.3993597,38.1162055 92.5606853,38.0017163 C92.7220109,37.8872272 92.8807321,37.7727398 93.0368537,37.6582506 C93.2241996,37.5333534 93.4219506,37.403254 93.6301126,37.2679487 C93.6509288,37.2887649 93.6483269,37.3251927 93.6223066,37.3772332 C93.5962863,37.4292737 93.5598585,37.4865175 93.5130221,37.5489661 C93.4661856,37.6114147 93.4193498,37.6712604 93.3725134,37.728505 C93.3256769,37.7857495 93.2918511,37.8247793 93.2710349,37.8455956 C93.0212404,38.1266144 92.7974695,38.3685991 92.5997155,38.5715572 C92.4019615,38.7745152 92.2406384,38.9488483 92.1157411,39.0945618 C92.1157411,39.1049699 92.1131391,39.1648156 92.1079351,39.2741006 C92.102731,39.3833857 92.100129,39.4432314 92.100129,39.4536395 C92.0793128,39.8075151 92.0715069,40.1639873 92.0767109,40.5230669 C92.081915,40.8821464 92.0584971,41.2438226 92.0064566,41.6081062 C91.9440079,42.0244304 91.8789583,42.3600867 91.8113056,42.6150853 C91.7436529,42.8700838 91.6733993,43.0782427 91.6005426,43.2395684 C91.5276858,43.400894 91.4522282,43.5361973 91.3741674,43.6454824 C91.2961066,43.7547675 91.2102411,43.8770608 91.1165681,44.0123662 C91.0333033,44.1268553 90.9396318,44.2257308 90.8355508,44.3089957 C90.7314697,44.3922605 90.5909624,44.491136 90.4140247,44.6056251 C90.1746383,44.7513386 89.9248475,44.860622 89.6646449,44.9334788 C89.4044423,45.0063355 89.1650595,45.0193454 88.9464894,44.972509 C88.7279192,44.9256725 88.5431781,44.8085831 88.3922606,44.6212372 C88.2413431,44.4338914 88.1554775,44.1528768 88.1346613,43.778185 C88.1138451,43.3618609 88.1867008,42.9507469 88.3532304,42.5448309 C88.5197601,42.1389149 88.7175111,41.7694327 88.9464894,41.4363734 C89.1754676,41.1033141 89.3992385,40.8222995 89.6178087,40.5933212 C89.8363789,40.3643429 89.9872941,40.2082237 90.0705589,40.1249589 C90.2058643,39.9792454 90.3281577,39.8543501 90.4374428,39.750269 C90.5467279,39.646188 90.6586133,39.5499145 90.7731024,39.4614456 C90.8875916,39.3729767 91.009885,39.2767032 91.1399863,39.1726221 C91.2700876,39.0685411 91.4236048,38.9436457 91.6005426,38.7979323 C91.642175,38.5481378 91.6681948,38.2853371 91.6786029,38.0095224 C91.689011,37.7337076 91.689011,37.450091 91.6786029,37.1586641 C91.4912571,37.543764 91.2909041,37.8455945 91.077538,38.0641646 C90.8641718,38.2827348 90.6716248,38.44666 90.4998911,38.5559451 C90.3281574,38.6652302 90.1876501,38.7328818 90.078365,38.7589021 C89.9690799,38.7849223 89.9248461,38.7979323 89.9456623,38.7979323 C89.7479084,38.8291566 89.5891872,38.8369626 89.469494,38.8213504 C89.3498008,38.8057382 89.2561292,38.7745144 89.1884766,38.7276779 C89.1208239,38.6808415 89.0687842,38.6261997 89.0323558,38.5637511 C88.9959274,38.5013025 88.9673056,38.4388548 88.9464894,38.3764062 C88.8944488,38.1057955 88.8970508,37.8273829 88.9542954,37.54116 C89.01154,37.2549372 89.0974055,36.9817286 89.2118947,36.721526 C89.3263838,36.4613234 89.4512792,36.2219406 89.5865845,36.0033704 C89.7218899,35.7848002 89.8467853,35.6078651 89.9612744,35.4725598 C89.9820906,35.4517436 90.0315284,35.3971018 90.1095891,35.3086329 C90.1876499,35.2201641 90.2891274,35.1212886 90.4140247,35.0120035 C90.5389219,34.9027184 90.6924391,34.7908329 90.8745809,34.6763438 C91.0567228,34.5618547 91.2674837,34.4577752 91.5068701,34.3641023 C91.7462565,34.3120617 91.9908432,34.2886439 92.2406377,34.2938479 C92.4904322,34.299052 92.6933872,34.3588977 92.8495088,34.4733868 C92.8420624,34.4761792 92.8342623,34.479034 92.8261084,34.4819512 L92.8261084,34.4819512 Z M92.0675435,34.6994853 C92.0708895,34.71321 92.0734529,34.7330394 92.0752336,34.7589737 C92.1066232,34.7600202 92.1357378,34.7637011 92.1625773,34.7700163 C92.1417611,34.7700163 92.1313532,34.7544043 92.1313532,34.72318 L92.1313532,34.6919559 C92.1833937,34.6711397 92.2952791,34.6373138 92.4670129,34.5904774 C92.6233885,34.5478295 92.743086,34.5116544 92.8261084,34.4819512 C92.7344342,34.4542278 92.6693786,34.4331591 92.6309397,34.4187445 C92.5893073,34.4031324 92.5606854,34.3953264 92.5450732,34.3953264 C92.5294611,34.3953264 92.5164512,34.4005304 92.5060431,34.4109385 C92.4956349,34.4213466 92.4696151,34.4369585 92.4279827,34.4577747 L92.3811464,34.4889989 L92.287474,34.520223 C92.2354334,34.5410392 92.2094136,34.5618551 92.2094136,34.5826713 C92.1885974,34.5826713 92.1703835,34.5904773 92.1547713,34.6060895 C92.1391591,34.6217016 92.1365572,34.6347115 92.1469653,34.6451196 C92.1261491,34.6555278 92.1053332,34.6633337 92.084517,34.6685378 C92.0775782,34.6702725 92.0706395,34.6728745 92.0637008,34.6763438 C92.0620511,34.6771686 92.0604015,34.6780425 92.0587518,34.6789654 C92.0465241,34.685806 92.0342964,34.6953402 92.0220686,34.707568 C92.0394423,34.7046723 92.0546006,34.7019781 92.0675435,34.6994853 C92.1011231,34.6930179 92.1197909,34.6879061 92.1235472,34.6841498 C92.1287512,34.6789458 92.1261492,34.6763438 92.1157411,34.6763438 L92.0532928,34.6763438 C92.0552245,34.6763438 92.0570442,34.6772177 92.0587518,34.6789654 C92.0621176,34.6824103 92.0650482,34.6892503 92.0675435,34.6994853 L92.0675435,34.6994853 Z M91.6629909,39.9688381 C91.6942152,39.7294517 91.6890112,39.5837404 91.6473788,39.5316999 C91.6265626,39.5004756 91.6005427,39.4900677 91.5693184,39.5004758 C91.2882996,39.7294541 91.0593247,39.9220011 90.882387,40.0781226 C90.7054492,40.2342442 90.5857578,40.3383237 90.5233092,40.3903642 C90.0237202,40.8587289 89.6516361,41.2724448 89.4070457,41.6315244 C89.1624552,41.9906039 88.99853,42.3210563 88.9152652,42.6228913 C88.8007761,42.9559506 88.7357264,43.2499751 88.7201142,43.5049737 C88.7045021,43.7599722 88.7695518,44.007161 88.9152652,44.2465474 C89.1754678,44.4443013 89.4590844,44.4833311 89.7661234,44.3636379 C90.0731625,44.2439447 90.3567791,44.0592037 90.6169817,43.8094092 C90.9188167,43.4659418 91.1634034,42.9845742 91.3507493,42.365292 C91.5380952,41.7460098 91.6421747,40.9471999 91.6629909,39.9688381 Z M94.4887769,35.7379651 C94.4887769,35.7691894 94.5043888,35.9149007 94.5356131,36.1751033 C94.5668374,36.4353058 94.6032653,36.7527482 94.6448977,37.12744 C94.6865301,37.5021317 94.7359678,37.9054397 94.7932124,38.337376 C94.850457,38.7693123 94.9024967,39.1804262 94.9493332,39.5707301 C94.9961697,39.961034 95.0404034,40.3044963 95.0820359,40.6011272 C95.1236683,40.8977582 95.1496881,41.0877032 95.1600962,41.1709681 C95.0976476,41.16056 95.0456079,41.150152 95.0039755,41.1397439 C94.962343,41.1293358 94.9207113,41.1033159 94.8790788,41.0616835 C94.8374464,41.0200511 94.7880087,40.9602054 94.7307641,40.8821446 C94.6735195,40.8040839 94.5928579,40.6921984 94.4887769,40.546485 C94.3534716,39.5889394 94.2467901,38.7537016 94.1687293,38.0407465 C94.0906685,37.3277914 94.0256189,36.7475483 93.9735783,36.2999999 C93.7862325,36.5497944 93.6509292,36.7163215 93.5676643,36.7995864 C93.4843995,36.8828512 93.4323598,36.924483 93.4115436,36.924483 C93.3803192,36.924483 93.3751153,36.8776472 93.3959315,36.7839743 L93.4271556,36.6278535 C93.4375637,36.575813 93.4479717,36.5289772 93.4583798,36.4873448 C93.4687879,36.4457124 93.4843998,36.4092846 93.505216,36.3780603 C93.5780727,36.2739792 93.6431224,36.1698997 93.700367,36.0658187 C93.7576116,35.9617377 93.8018453,35.8680661 93.8330696,35.7848013 C93.8747021,35.6807203 93.9059259,35.5818448 93.9267421,35.4881718 C93.916334,35.3736827 93.908528,35.2748072 93.903324,35.1915424 C93.8981199,35.1082775 93.895518,35.022412 93.895518,34.9339431 C93.895518,34.8454742 93.892916,34.7544047 93.8877119,34.6607317 C93.8825079,34.5670588 93.8799059,34.4473674 93.8799059,34.3016539 L93.8799059,32.7638643 C93.8799059,32.4256009 93.8851099,32.0691287 93.895518,31.694437 C93.9059261,31.3197453 93.918936,30.963273 93.9345481,30.6250097 C93.9501603,30.2867463 93.9709762,29.9797118 93.9969965,29.7038971 C94.0230167,29.4280823 94.0516386,29.2173214 94.0828629,29.071608 C94.1557196,28.7697729 94.267605,28.5381961 94.4185226,28.3768705 C94.5694401,28.2155449 94.7281613,28.1218734 94.8946909,28.0958531 C95.0612206,28.0698328 95.2251458,28.1114646 95.3864714,28.2207497 C95.547797,28.3300348 95.6700904,28.499164 95.7533552,28.7281422 C95.8470281,28.9571205 95.8938639,29.253747 95.8938639,29.6180307 C95.8938639,29.9823143 95.86264,30.3804183 95.8001914,30.8123546 C95.7377428,31.2442909 95.6518772,31.6944346 95.5425921,32.1627993 C95.433307,32.631164 95.3162176,33.0865117 95.1913204,33.5288561 C95.0664231,33.9712005 94.9415278,34.3849164 94.8166305,34.7700163 C94.6917333,35.1551161 94.5824498,35.4777625 94.4887769,35.7379651 Z M94.3638803,34.8480767 C94.6240829,34.0882851 94.8374458,33.3415148 95.0039755,32.6077435 C95.1705051,31.8739722 95.2927985,31.2156695 95.3708593,30.6328157 C95.4489201,30.0499619 95.4749399,29.5790023 95.4489197,29.2199227 C95.4228994,28.8608431 95.3474418,28.676102 95.2225445,28.6656939 C95.0247906,28.5928372 94.8686714,28.6604889 94.7541822,28.8686509 C94.6396931,29.076813 94.5486235,29.3682356 94.4809709,29.7429273 C94.4133182,30.117619 94.3690844,30.5469469 94.3482682,31.0309237 C94.327452,31.5149005 94.319646,31.9962681 94.3248501,32.4750409 C94.3300541,32.9538136 94.3378601,33.4065594 94.3482682,33.8332916 C94.3586763,34.2600239 94.3638803,34.5982822 94.3638803,34.8480767 Z M96.0499847,34.2860419 C96.2477386,34.29645 96.4663055,34.3250718 96.7056919,34.3719083 C96.9450783,34.4187448 97.1792571,34.4811924 97.4082354,34.5592532 C97.6372137,34.637314 97.8479746,34.7257816 98.0405246,34.8246585 C98.2330745,34.9235355 98.3917957,35.035421 98.5166929,35.1603182 C98.6415902,35.2748073 98.7144458,35.4491405 98.735262,35.6833228 C98.7560782,35.9175051 98.7404663,36.1751018 98.6884258,36.4561206 C98.6363853,36.7371394 98.5557237,37.02596 98.4464386,37.322591 C98.3371535,37.6192219 98.2148601,37.8872266 98.0795547,38.1266129 C97.9442494,38.3659993 97.7985381,38.5637503 97.6424166,38.7198719 C97.486295,38.8759935 97.3405837,38.9540531 97.2052784,38.9540531 C96.9763001,38.9540531 96.7837531,38.8994113 96.6276315,38.7901262 C96.47151,38.6808412 96.3466146,38.5481398 96.2529417,38.3920183 C96.1592687,38.2358967 96.0890151,38.0719715 96.0421786,37.9002378 C95.9953422,37.7285041 95.9667203,37.5801909 95.9563122,37.4552936 C95.9250879,36.9036641 95.9198839,36.4144906 95.9407001,35.9877583 C95.9615163,35.5610261 95.9979441,35.2071558 96.0499847,34.926137 C96.0187603,34.8740965 95.9875365,34.8272608 95.9563122,34.7856283 C95.9250879,34.7439959 95.893864,34.7049661 95.8626397,34.6685378 C95.8314154,34.6321094 95.7949876,34.5982836 95.7533552,34.5670593 C95.7949876,34.5462431 95.8366194,34.5150192 95.8782518,34.4733868 C95.9615166,34.4109382 96.0187603,34.3484905 96.0499847,34.2860419 Z M96.6120195,38.0017163 C96.6432438,38.0433487 96.6848756,38.0875825 96.7369161,38.134419 C96.7889566,38.1812555 96.8540063,38.2176833 96.932067,38.2437035 C97.0101278,38.2697238 97.0907894,38.2723258 97.1740542,38.2515096 C97.2573191,38.2306934 97.3457866,38.1734496 97.4394596,38.0797767 C97.6892541,37.8195741 97.8765971,37.5515695 98.0014944,37.2757547 C98.1263916,36.99994 98.2070532,36.7397413 98.2434816,36.4951508 C98.2799099,36.2505604 98.2747059,36.0345955 98.2278695,35.8472496 C98.181033,35.6599038 98.1055754,35.5246004 98.0014944,35.4413356 C97.9182295,35.3892951 97.8479759,35.3450613 97.7907313,35.3086329 C97.7334867,35.2722046 97.6606311,35.2383788 97.5721622,35.2071544 C97.4836933,35.1759301 97.3718079,35.1421043 97.2365026,35.1056759 C97.1011972,35.0692476 96.9242621,35.0198098 96.7056919,34.9573612 C96.6016109,35.2904205 96.5287552,35.6234748 96.4871228,35.9565342 C96.4454904,36.2895935 96.4272765,36.594026 96.4324806,36.8698407 C96.4376846,37.1456555 96.4585005,37.3850382 96.4949289,37.5879963 C96.5313572,37.7909543 96.570387,37.9288596 96.6120195,38.0017163 Z M98.7977103,28.9467113 C98.8289346,28.9467113 98.8679644,28.9337014 98.9148009,28.9076811 C98.9616374,28.8816609 99.0110751,28.8738549 99.0631156,28.884263 C99.1151562,28.8946711 99.1619919,28.9415069 99.2036243,29.0247717 C99.2452567,29.1080366 99.2764806,29.2537478 99.2972968,29.4619099 C99.318113,29.7221125 99.3389289,30.0395549 99.3597451,30.4142466 C99.3805613,30.7889384 99.4039792,31.1922463 99.4299995,31.6241826 C99.4560197,32.0561189 99.4846416,32.5062627 99.5158659,32.9746273 C99.5470902,33.442992 99.578314,33.8983397 99.6095383,34.3406841 C99.6407627,34.7830285 99.6693845,35.1941425 99.6954048,35.5740383 C99.721425,35.9539341 99.7448429,36.2791824 99.7656591,36.5497931 C99.7968834,36.4248959 99.8593311,36.2557667 99.9530041,36.0424006 C100.046677,35.8290345 100.163766,35.6052636 100.304276,35.3710813 C100.444785,35.1368989 100.60871,34.913128 100.796056,34.6997619 C100.983402,34.4863958 101.186357,34.3224706 101.404927,34.2079815 C101.581865,34.1351248 101.73278,34.0960949 101.857678,34.0908909 C101.982575,34.0856868 102.089256,34.1039008 102.177725,34.1455332 C102.266194,34.1871656 102.33905,34.2392053 102.396294,34.3016539 C102.453539,34.3641026 102.497773,34.4213463 102.528997,34.4733868 C102.653894,34.7752218 102.698128,35.123888 102.6617,35.519396 C102.625271,35.9149039 102.526396,36.307804 102.36507,36.6981078 C102.203744,37.0884117 101.982576,37.4448839 101.701557,37.7675352 C101.420538,38.0901864 101.092688,38.3243652 100.717996,38.4700787 C100.509834,38.5533435 100.358919,38.5975773 100.265246,38.6027813 C100.171573,38.6079854 100.077901,38.6105874 99.9842282,38.6105874 C100.005044,38.7667089 100.010248,38.8707884 99.9998403,38.9228289 C99.9894322,38.9748694 99.9738203,39.0060933 99.9530041,39.0165014 C99.9113716,39.0581338 99.84372,39.0815517 99.750047,39.0867557 C99.6563741,39.0919598 99.5627026,39.0841538 99.4690296,39.0633376 C99.406581,38.2515055 99.3493373,37.4657055 99.2972968,36.7059139 C99.2764806,36.3832627 99.2530627,36.0502083 99.2270424,35.7067409 C99.2010222,35.3632735 99.1750023,35.0302192 99.1489821,34.707568 C99.1229618,34.3849167 99.0995439,34.0804843 99.0787277,33.7942614 C99.0579115,33.5080386 99.0422996,33.2556458 99.0318915,33.0370757 C99.0214834,32.6415677 98.9980655,32.2044339 98.9616371,31.7256611 C98.9252088,31.2468884 98.8913829,30.8019486 98.8601586,30.3908285 C98.8289343,29.9797084 98.8029144,29.6336442 98.7820982,29.3526254 C98.761282,29.0716065 98.766486,28.9363032 98.7977103,28.9467113 Z M101.420539,34.8324646 C101.274826,34.9157294 101.121309,35.0614407 100.959983,35.2696028 C100.798657,35.4777648 100.647742,35.7301576 100.507233,36.0267885 C100.366723,36.3234195 100.247032,36.6486678 100.148155,37.0025434 C100.049278,37.3564189 99.9894323,37.7102891 99.9686161,38.0641646 C100.176778,38.1162052 100.390141,38.0875833 100.608711,37.9782982 C100.827281,37.8690131 101.030236,37.7154959 101.217582,37.5177419 C101.404928,37.319988 101.574057,37.0910131 101.724975,36.8308105 C101.875892,36.5706079 101.995584,36.3130112 102.084053,36.0580127 C102.172522,35.8030141 102.221959,35.5636313 102.232367,35.3398571 C102.242775,35.1160829 102.201144,34.9365458 102.107471,34.8012404 C102.034614,34.6659351 101.925331,34.6164973 101.779617,34.6529257 C101.633904,34.6893541 101.514212,34.7491997 101.420539,34.8324646 Z M106.291508,34.3797143 C106.281099,34.442163 106.257682,34.5722623 106.221253,34.7700163 C106.184825,34.9677702 106.145795,35.1993471 106.104163,35.4647537 C106.06253,35.7301604 106.026102,36.008573 105.994878,36.2999999 C105.963654,36.5914268 105.94544,36.8672374 105.940236,37.12744 C105.935032,37.3876426 105.950644,37.6088115 105.987072,37.7909533 C106.0235,37.9730951 106.083346,38.0849805 106.166611,38.1266129 C106.405997,38.2411021 106.650584,38.2020723 106.900379,38.0095224 C107.150173,37.8169724 107.441596,37.5229479 107.774655,37.12744 C107.805879,37.12744 107.808481,37.1690718 107.782461,37.2523366 C107.756441,37.3356014 107.714809,37.426671 107.657564,37.525548 L107.485831,37.8221774 C107.428587,37.9210544 107.384353,37.9861041 107.353129,38.0173284 C107.269864,38.1214094 107.150173,38.2384989 106.994051,38.3686002 C106.837929,38.4987014 106.671402,38.6027809 106.494465,38.6808417 C106.317527,38.7589025 106.148398,38.7927283 105.987072,38.7823202 C105.825746,38.7719121 105.693045,38.6782406 105.588964,38.5013028 C105.536924,38.3764056 105.5057,38.2228883 105.495292,38.0407465 C105.484883,37.8586047 105.484883,37.6738636 105.495292,37.4865178 C105.5057,37.2991719 105.521312,37.1274408 105.542128,36.9713192 C105.562944,36.8151977 105.578556,36.7007102 105.588964,36.6278535 C105.370394,37.0337695 105.120603,37.4188636 104.839584,37.7831472 C104.558566,38.1474309 104.282755,38.4336494 104.012144,38.6418115 C103.741534,38.8499736 103.491743,38.961859 103.262764,38.9774712 C103.033786,38.9930833 102.856851,38.860382 102.731954,38.5793632 C102.659097,38.3087525 102.659097,38.00432 102.731954,37.6660567 C102.804811,37.3277933 102.914094,37.0233608 103.059807,36.7527501 C103.278378,36.3780584 103.507353,36.0345961 103.746739,35.722353 C103.986125,35.4101099 104.24112,35.1447072 104.511731,34.926137 C104.782341,34.7075669 105.065958,34.5488457 105.362589,34.4499687 C105.65922,34.3510917 105.968856,34.3276738 106.291508,34.3797143 Z M103.356437,38.345182 C103.460518,38.3659982 103.627045,38.2879386 103.856023,38.1110009 C104.085002,37.9340631 104.324385,37.6868743 104.574179,37.3694272 C104.823974,37.05198 105.050346,36.6824979 105.253304,36.2609697 C105.456262,35.8394415 105.588964,35.3945017 105.651412,34.926137 L105.471873,34.926137 C105.393813,34.926137 105.302743,34.9573609 105.198662,35.0198095 C104.803154,35.2800121 104.464896,35.5844446 104.183877,35.933116 C103.902858,36.2817875 103.684291,36.6200458 103.52817,36.9479011 C103.372048,37.2757564 103.278377,37.5697809 103.247152,37.8299835 C103.215928,38.0901861 103.252356,38.2619172 103.356437,38.345182 Z M108.305466,35.7379651 C108.305466,35.7691894 108.321077,35.9149007 108.352302,36.1751033 C108.383526,36.4353058 108.419954,36.7527482 108.461586,37.12744 C108.503219,37.5021317 108.552656,37.9054397 108.609901,38.337376 C108.667146,38.7693123 108.719185,39.1804262 108.766022,39.5707301 C108.812858,39.961034 108.857092,40.3044963 108.898725,40.6011272 C108.940357,40.8977582 108.966377,41.0877032 108.976785,41.1709681 C108.914336,41.16056 108.862297,41.150152 108.820664,41.1397439 C108.779032,41.1293358 108.7374,41.1033159 108.695767,41.0616835 C108.654135,41.0200511 108.604697,40.9602054 108.547453,40.8821446 C108.490208,40.8040839 108.409547,40.6921984 108.305466,40.546485 C108.17016,39.5889394 108.063479,38.7537016 107.985418,38.0407465 C107.907357,37.3277914 107.842308,36.7475483 107.790267,36.2999999 C107.602921,36.5497944 107.467618,36.7163215 107.384353,36.7995864 C107.301088,36.8828512 107.249048,36.924483 107.228232,36.924483 C107.197008,36.924483 107.191804,36.8776472 107.21262,36.7839743 L107.243844,36.6278535 C107.254252,36.575813 107.26466,36.5289772 107.275068,36.4873448 C107.285477,36.4457124 107.301088,36.4092846 107.321905,36.3780603 C107.394761,36.2739792 107.459811,36.1698997 107.517056,36.0658187 C107.5743,35.9617377 107.618534,35.8680661 107.649758,35.7848013 C107.691391,35.6807203 107.722615,35.5818448 107.743431,35.4881718 C107.733023,35.3736827 107.725217,35.2748072 107.720013,35.1915424 C107.714809,35.1082775 107.712207,35.022412 107.712207,34.9339431 C107.712207,34.8454742 107.709605,34.7544047 107.704401,34.6607317 C107.699197,34.5670588 107.696595,34.4473674 107.696595,34.3016539 L107.696595,32.7638643 C107.696595,32.4256009 107.701799,32.0691287 107.712207,31.694437 C107.722615,31.3197453 107.735625,30.963273 107.751237,30.6250097 C107.766849,30.2867463 107.787665,29.9797118 107.813685,29.7038971 C107.839705,29.4280823 107.868327,29.2173214 107.899552,29.071608 C107.972408,28.7697729 108.084294,28.5381961 108.235211,28.3768705 C108.386129,28.2155449 108.54485,28.1218734 108.71138,28.0958531 C108.877909,28.0698328 109.041834,28.1114646 109.20316,28.2207497 C109.364486,28.3300348 109.486779,28.499164 109.570044,28.7281422 C109.663717,28.9571205 109.710553,29.253747 109.710553,29.6180307 C109.710553,29.9823143 109.679329,30.3804183 109.61688,30.8123546 C109.554431,31.2442909 109.468566,31.6944346 109.359281,32.1627993 C109.249996,32.631164 109.132906,33.0865117 109.008009,33.5288561 C108.883112,33.9712005 108.758216,34.3849164 108.633319,34.7700163 C108.508422,35.1551161 108.399138,35.4777625 108.305466,35.7379651 Z M108.180569,34.8480767 C108.440772,34.0882851 108.654134,33.3415148 108.820664,32.6077435 C108.987194,31.8739722 109.109487,31.2156695 109.187548,30.6328157 C109.265609,30.0499619 109.291629,29.5790023 109.265608,29.2199227 C109.239588,28.8608431 109.16413,28.676102 109.039233,28.6656939 C108.841479,28.5928372 108.68536,28.6604889 108.570871,28.8686509 C108.456382,29.076813 108.365312,29.3682356 108.29766,29.7429273 C108.230007,30.117619 108.185773,30.5469469 108.164957,31.0309237 C108.144141,31.5149005 108.136335,31.9962681 108.141539,32.4750409 C108.146743,32.9538136 108.154549,33.4065594 108.164957,33.8332916 C108.175365,34.2600239 108.180569,34.5982822 108.180569,34.8480767 Z M111.537166,28.9467113 C111.56839,28.9467113 111.60742,28.9337014 111.654256,28.9076811 C111.701093,28.8816609 111.75053,28.8738549 111.802571,28.884263 C111.854611,28.8946711 111.901447,28.9415069 111.94308,29.0247717 C111.984712,29.1080366 112.015936,29.2537478 112.036752,29.4619099 C112.057568,29.7221125 112.078384,30.0395549 112.0992,30.4142466 C112.120017,30.7889384 112.143434,31.1922463 112.169455,31.6241826 C112.195475,32.0561189 112.224097,32.5062627 112.255321,32.9746273 C112.286545,33.442992 112.317769,33.8983397 112.348994,34.3406841 C112.380218,34.7830285 112.40884,35.1941425 112.43486,35.5740383 C112.46088,35.9539341 112.484298,36.2791824 112.505114,36.5497931 C112.536339,36.4248959 112.598786,36.2557667 112.692459,36.0424006 C112.786132,35.8290345 112.903222,35.6052636 113.043731,35.3710813 C113.184241,35.1368989 113.348166,34.913128 113.535512,34.6997619 C113.722857,34.4863958 113.925812,34.3224706 114.144383,34.2079815 C114.32132,34.1351248 114.472236,34.0960949 114.597133,34.0908909 C114.72203,34.0856868 114.828712,34.1039008 114.91718,34.1455332 C115.005649,34.1871656 115.078505,34.2392053 115.135749,34.3016539 C115.192994,34.3641026 115.237228,34.4213463 115.268452,34.4733868 C115.393349,34.7752218 115.437583,35.123888 115.401155,35.519396 C115.364726,35.9149039 115.265851,36.307804 115.104525,36.6981078 C114.9432,37.0884117 114.722031,37.4448839 114.441012,37.7675352 C114.159993,38.0901864 113.832143,38.3243652 113.457451,38.4700787 C113.249289,38.5533435 113.098374,38.5975773 113.004701,38.6027813 C112.911028,38.6079854 112.817356,38.6105874 112.723684,38.6105874 C112.7445,38.7667089 112.749704,38.8707884 112.739296,38.9228289 C112.728887,38.9748694 112.713276,39.0060933 112.692459,39.0165014 C112.650827,39.0581338 112.583175,39.0815517 112.489502,39.0867557 C112.395829,39.0919598 112.302158,39.0841538 112.208485,39.0633376 C112.146036,38.2515055 112.088793,37.4657055 112.036752,36.7059139 C112.015936,36.3832627 111.992518,36.0502083 111.966498,35.7067409 C111.940477,35.3632735 111.914458,35.0302192 111.888437,34.707568 C111.862417,34.3849167 111.838999,34.0804843 111.818183,33.7942614 C111.797367,33.5080386 111.781755,33.2556458 111.771347,33.0370757 C111.760939,32.6415677 111.737521,32.2044339 111.701092,31.7256611 C111.664664,31.2468884 111.630838,30.8019486 111.599614,30.3908285 C111.56839,29.9797084 111.54237,29.6336442 111.521554,29.3526254 C111.500737,29.0716065 111.505941,28.9363032 111.537166,28.9467113 Z M114.159995,34.8324646 C114.014281,34.9157294 113.860764,35.0614407 113.699438,35.2696028 C113.538113,35.4777648 113.387198,35.7301576 113.246688,36.0267885 C113.106179,36.3234195 112.986487,36.6486678 112.88761,37.0025434 C112.788733,37.3564189 112.728888,37.7102891 112.708071,38.0641646 C112.916234,38.1162052 113.129596,38.0875833 113.348167,37.9782982 C113.566737,37.8690131 113.769692,37.7154959 113.957038,37.5177419 C114.144384,37.319988 114.313513,37.0910131 114.46443,36.8308105 C114.615348,36.5706079 114.735039,36.3130112 114.823508,36.0580127 C114.911977,35.8030141 114.961415,35.5636313 114.971823,35.3398571 C114.982231,35.1160829 114.940599,34.9365458 114.846926,34.8012404 C114.774069,34.6659351 114.664786,34.6164973 114.519072,34.6529257 C114.373359,34.6893541 114.253668,34.7491997 114.159995,34.8324646 Z M117.266798,34.5514472 C117.298022,34.5410391 117.38649,34.5124172 117.532203,34.4655808 C117.677917,34.4187443 117.797608,34.4109383 117.891281,34.4421626 C118.193116,34.4317545 118.424693,34.5098141 118.586019,34.6763438 C118.747344,34.8428735 118.760354,35.1655198 118.625049,35.6442926 C118.427295,36.1751059 118.164494,36.6174437 117.836639,36.9713192 C117.508784,37.3251947 117.121088,37.663453 116.673539,37.9861042 C116.77762,38.2567149 116.933739,38.4076302 117.141901,38.4388545 C117.350064,38.4700788 117.56863,38.436253 117.797609,38.337376 C118.026587,38.238499 118.250358,38.1057977 118.468928,37.939268 C118.687498,37.7727384 118.864433,37.6270271 118.999739,37.5021298 C119.218309,37.314784 119.392642,37.1560628 119.522743,37.0259615 C119.652845,36.8958602 119.79075,36.737139 119.936463,36.5497931 C119.967688,36.5289769 119.985902,36.5315789 119.991106,36.5575992 C119.99631,36.5836194 119.993708,36.6226492 119.9833,36.6746897 C119.972891,36.7267303 119.95728,36.7995859 119.936463,36.8932588 C119.905239,36.9661155 119.874015,37.0311652 119.842791,37.0884098 C119.811567,37.1456544 119.767333,37.208102 119.710088,37.2757547 C119.652844,37.3434074 119.577386,37.424069 119.483713,37.5177419 C119.39004,37.6114149 119.275553,37.7363102 119.140247,37.8924318 C118.984126,38.0381452 118.833211,38.1812545 118.687497,38.3217639 C118.541784,38.4622733 118.388266,38.5845667 118.226941,38.6886477 C118.065615,38.7927288 117.88868,38.8655844 117.69613,38.9072168 C117.50358,38.9488492 117.282411,38.9488492 117.032617,38.9072168 C116.824455,38.8343601 116.657928,38.7563005 116.53303,38.6730357 C116.408133,38.5897708 116.31186,38.5039053 116.244207,38.4154364 C116.176554,38.3269675 116.127117,38.2463059 116.095892,38.1734492 C116.064668,38.1005925 116.043852,38.0381448 116.033444,37.9861042 C115.981403,37.7779422 115.960588,37.4969276 115.970996,37.1430521 C115.981404,36.7891765 116.085483,36.3312268 116.283237,35.7691892 C116.418543,35.4777623 116.564254,35.2305736 116.720375,35.0276155 C116.876497,34.8246575 117.058636,34.6659363 117.266798,34.5514472 Z M116.579867,37.3147849 C116.715172,37.2419282 116.873893,37.1404507 117.056035,37.0103494 C117.238177,36.8802481 117.409908,36.7293329 117.571234,36.5575992 C117.732559,36.3858654 117.873066,36.1959204 117.99276,35.9877583 C118.112453,35.7795962 118.177503,35.5610293 118.187911,35.3320511 C118.219135,35.1759295 118.213931,35.0666461 118.172299,35.0041974 C118.151482,34.9729731 118.130666,34.9573612 118.10985,34.9573612 C117.932913,34.8740964 117.755977,34.9001162 117.57904,35.0354216 C117.402102,35.1707269 117.240779,35.363274 117.095065,35.6130685 C116.949352,35.8628629 116.827058,36.1412755 116.728181,36.4483146 C116.629304,36.7553537 116.579867,37.0441742 116.579867,37.3147849 Z M124.916716,30.7577123 C124.885492,30.9450582 124.849064,31.1428092 124.807432,31.3509713 C124.765799,31.5591334 124.721565,31.7568844 124.674729,31.9442302 C124.627892,32.1315761 124.588863,32.2928993 124.557638,32.4282046 C124.526414,32.56351 124.505598,32.6467736 124.49519,32.6779979 C124.432741,32.8549356 124.349478,33.0839105 124.245397,33.3649293 C124.141316,33.6459481 124.019022,33.9399726 123.878513,34.2470117 C123.738004,34.5540507 123.579282,34.8610852 123.402345,35.1681242 C123.225407,35.4751633 123.043268,35.737964 122.855922,35.9565342 C122.855922,36.1126557 122.874136,36.3754564 122.910564,36.7449441 C122.946992,37.1144318 122.991226,37.5125358 123.043267,37.939268 C123.095307,38.3660003 123.144745,38.7849202 123.191582,39.1960403 C123.238418,39.6071604 123.26704,39.9272047 123.277448,40.156183 C123.225407,40.2082236 123.178572,40.1978156 123.136939,40.1249589 C123.095307,40.0521022 123.032859,39.9272068 122.949594,39.750269 C122.887146,39.4796583 122.837708,39.2298676 122.80128,39.0008893 C122.764851,38.771911 122.731025,38.5403342 122.699801,38.3061518 C122.668577,38.0719695 122.634751,37.8247807 122.598323,37.5645782 C122.561894,37.3043756 122.507252,37.0077491 122.434396,36.6746897 C122.236642,36.9244842 121.999861,37.2081008 121.724046,37.525548 C121.448231,37.8429951 121.162013,38.1240097 120.865382,38.3686002 C120.568751,38.6131906 120.277328,38.7849217 119.991106,38.8837987 C119.704883,38.9826757 119.457694,38.9384419 119.249532,38.7510961 C119.124635,38.5845664 119.069993,38.3894174 119.085605,38.1656431 C119.101217,37.9418689 119.163665,37.7128941 119.27295,37.4787117 C119.382235,37.2445294 119.522742,37.0129526 119.694476,36.7839743 C119.86621,36.554996 120.040543,36.3416331 120.217481,36.1438791 C120.394419,35.9461251 120.560946,35.774394 120.717067,35.6286805 C120.873189,35.4829671 120.987676,35.3788876 121.060533,35.316439 C121.206246,35.2227661 121.32854,35.1473084 121.427417,35.0900639 C121.526294,35.0328193 121.614761,34.9859835 121.692822,34.9495552 C121.770883,34.9131268 121.851544,34.8871069 121.934809,34.8714948 C122.018074,34.8558826 122.122154,34.8532806 122.247051,34.8636887 C122.226235,34.6243023 122.213225,34.3380838 122.208021,34.0050245 C122.202817,33.6719651 122.202817,33.3363088 122.208021,32.9980455 C122.213225,32.6597821 122.223633,32.3449417 122.239245,32.0535148 C122.254857,31.7620879 122.278275,31.538317 122.309499,31.3821954 C122.330315,31.1532172 122.379753,30.9138344 122.457814,30.6640399 C122.535875,30.4142454 122.63475,30.1722606 122.754443,29.9380783 C122.874137,29.7038959 123.006838,29.495737 123.152551,29.3135952 C123.298265,29.1314533 123.456986,29.001354 123.62872,28.9232932 C123.800453,28.8452324 123.977389,28.8270185 124.15953,28.8686509 C124.341672,28.9102834 124.521209,29.0403827 124.698147,29.2589529 C124.84386,29.4358906 124.916716,29.6570595 124.916716,29.9224662 L124.916716,30.7577123 Z M122.855922,34.926137 C123.043268,34.717975 123.199387,34.4968061 123.324284,34.2626237 C123.449181,34.0284414 123.589689,33.7500288 123.74581,33.4273776 C123.881116,33.1463588 124.003409,32.7872846 124.112694,32.3501442 C124.221979,31.9130039 124.297437,31.483676 124.339069,31.0621478 C124.380702,30.6406196 124.380702,30.2737395 124.339069,29.9614964 C124.297437,29.6492533 124.193357,29.4827261 124.026828,29.4619099 C123.881114,29.4410937 123.745811,29.4957354 123.620914,29.6258367 C123.496016,29.755938 123.381529,29.9172612 123.277448,30.1098111 C123.173367,30.302361 123.084899,30.507918 123.012043,30.7264882 C122.939186,30.9450584 122.887146,31.1376054 122.855922,31.304135 C122.814289,31.5122971 122.785668,31.6996402 122.770055,31.8661698 C122.754443,32.0326995 122.744035,32.2070326 122.738831,32.3891744 C122.733627,32.5713163 122.725821,32.7690673 122.715413,32.9824334 C122.705005,33.1957995 122.684189,33.4586002 122.652965,33.7708433 C122.652965,33.9269649 122.660771,34.0830841 122.676383,34.2392056 C122.691995,34.3953272 122.712811,34.5280285 122.738831,34.6373136 C122.764852,34.7465987 122.788269,34.8298623 122.809086,34.8871069 C122.829902,34.9443514 122.845514,34.9573614 122.855922,34.926137 Z M120.592171,36.3780603 C120.311152,36.6694872 120.105595,36.9374918 119.975494,37.1820823 C119.845392,37.4266727 119.738711,37.6530456 119.655446,37.8612076 L119.655446,38.0095224 C119.655446,38.077175 119.663252,38.1422247 119.678864,38.2046733 C119.694476,38.267122 119.7257,38.3217637 119.772537,38.3686002 C119.819373,38.4154366 119.894831,38.4284466 119.998912,38.4076303 C120.102993,38.3659979 120.188858,38.3243661 120.256511,38.2827337 C120.324164,38.2411013 120.386611,38.1968675 120.443856,38.1500311 C120.5011,38.1031946 120.563548,38.0537568 120.631201,38.0017163 C120.698853,37.9496758 120.784719,37.8820241 120.8888,37.7987593 C121.034514,37.6426378 121.214051,37.4657027 121.427417,37.2679487 C121.640783,37.0701947 121.828126,36.8620358 121.989452,36.6434656 C122.150777,36.4248954 122.257459,36.2011245 122.309499,35.9721462 C122.36154,35.743168 122.293888,35.5193971 122.106542,35.3008269 C122.033685,35.3008269 121.958228,35.3112349 121.880167,35.3320511 C121.802106,35.3528673 121.705833,35.402305 121.591344,35.4803658 C121.476854,35.5584266 121.338949,35.66771 121.177624,35.8082194 C121.016298,35.9487288 120.821149,36.1386739 120.592171,36.3780603 Z M125.650484,28.9467113 C125.681708,28.9467113 125.720738,28.9337014 125.767574,28.9076811 C125.814411,28.8816609 125.863849,28.8738549 125.915889,28.884263 C125.96793,28.8946711 126.014765,28.9415069 126.056398,29.0247717 C126.09803,29.1080366 126.129254,29.2537478 126.15007,29.4619099 C126.170886,29.7221125 126.191702,30.0395549 126.212519,30.4142466 C126.233335,30.7889384 126.256753,31.1922463 126.282773,31.6241826 C126.308793,32.0561189 126.337415,32.5062627 126.368639,32.9746273 C126.399864,33.442992 126.431087,33.8983397 126.462312,34.3406841 C126.493536,34.7830285 126.522158,35.1941425 126.548178,35.5740383 C126.574198,35.9539341 126.597616,36.2791824 126.618433,36.5497931 C126.649657,36.4248959 126.712105,36.2557667 126.805777,36.0424006 C126.89945,35.8290345 127.01654,35.6052636 127.157049,35.3710813 C127.297559,35.1368989 127.461484,34.913128 127.64883,34.6997619 C127.836176,34.4863958 128.039131,34.3224706 128.257701,34.2079815 C128.434638,34.1351248 128.585554,34.0960949 128.710451,34.0908909 C128.835348,34.0856868 128.94203,34.1039008 129.030499,34.1455332 C129.118967,34.1871656 129.191823,34.2392053 129.249068,34.3016539 C129.306312,34.3641026 129.350546,34.4213463 129.38177,34.4733868 C129.506668,34.7752218 129.550901,35.123888 129.514473,35.519396 C129.478045,35.9149039 129.379169,36.307804 129.217843,36.6981078 C129.056518,37.0884117 128.835349,37.4448839 128.55433,37.7675352 C128.273311,38.0901864 127.945461,38.3243652 127.570769,38.4700787 C127.362607,38.5533435 127.211692,38.5975773 127.118019,38.6027813 C127.024346,38.6079854 126.930675,38.6105874 126.837002,38.6105874 C126.857818,38.7667089 126.863022,38.8707884 126.852614,38.9228289 C126.842206,38.9748694 126.826594,39.0060933 126.805777,39.0165014 C126.764145,39.0581338 126.696493,39.0815517 126.60282,39.0867557 C126.509148,39.0919598 126.415476,39.0841538 126.321803,39.0633376 C126.259354,38.2515055 126.202111,37.4657055 126.15007,36.7059139 C126.129254,36.3832627 126.105836,36.0502083 126.079816,35.7067409 C126.053796,35.3632735 126.027776,35.0302192 126.001755,34.707568 C125.975735,34.3849167 125.952317,34.0804843 125.931501,33.7942614 C125.910685,33.5080386 125.895073,33.2556458 125.884665,33.0370757 C125.874257,32.6415677 125.850839,32.2044339 125.814411,31.7256611 C125.777982,31.2468884 125.744156,30.8019486 125.712932,30.3908285 C125.681708,29.9797084 125.655688,29.6336442 125.634872,29.3526254 C125.614055,29.0716065 125.619259,28.9363032 125.650484,28.9467113 Z M128.273313,34.8324646 C128.127599,34.9157294 127.974082,35.0614407 127.812756,35.2696028 C127.651431,35.4777648 127.500516,35.7301576 127.360006,36.0267885 C127.219497,36.3234195 127.099805,36.6486678 127.000928,37.0025434 C126.902051,37.3564189 126.842206,37.7102891 126.82139,38.0641646 C127.029552,38.1162052 127.242915,38.0875833 127.461485,37.9782982 C127.680055,37.8690131 127.88301,37.7154959 128.070356,37.5177419 C128.257702,37.319988 128.426831,37.0910131 128.577748,36.8308105 C128.728666,36.5706079 128.848357,36.3130112 128.936826,36.0580127 C129.025295,35.8030141 129.074733,35.5636313 129.085141,35.3398571 C129.095549,35.1160829 129.053917,34.9365458 128.960244,34.8012404 C128.887387,34.6659351 128.778104,34.6164973 128.632391,34.6529257 C128.486677,34.6893541 128.366986,34.7491997 128.273313,34.8324646 Z M133.144281,34.3797143 C133.133873,34.442163 133.110455,34.5722623 133.074027,34.7700163 C133.037598,34.9677702 132.998568,35.1993471 132.956936,35.4647537 C132.915304,35.7301604 132.878876,36.008573 132.847652,36.2999999 C132.816427,36.5914268 132.798213,36.8672374 132.793009,37.12744 C132.787805,37.3876426 132.803417,37.6088115 132.839845,37.7909533 C132.876274,37.9730951 132.93612,38.0849805 133.019384,38.1266129 C133.258771,38.2411021 133.503358,38.2020723 133.753152,38.0095224 C134.002946,37.8169724 134.294369,37.5229479 134.627428,37.12744 C134.658653,37.12744 134.661255,37.1690718 134.635234,37.2523366 C134.609214,37.3356014 134.567582,37.426671 134.510338,37.525548 L134.338605,37.8221774 C134.28136,37.9210544 134.237127,37.9861041 134.205902,38.0173284 C134.122637,38.1214094 134.002946,38.2384989 133.846824,38.3686002 C133.690703,38.4987014 133.524176,38.6027809 133.347238,38.6808417 C133.1703,38.7589025 133.001171,38.7927283 132.839845,38.7823202 C132.67852,38.7719121 132.545819,38.6782406 132.441737,38.5013028 C132.389697,38.3764056 132.358473,38.2228883 132.348065,38.0407465 C132.337657,37.8586047 132.337657,37.6738636 132.348065,37.4865178 C132.358473,37.2991719 132.374085,37.1274408 132.394901,36.9713192 C132.415717,36.8151977 132.431329,36.7007102 132.441737,36.6278535 C132.223167,37.0337695 131.973377,37.4188636 131.692358,37.7831472 C131.411339,38.1474309 131.135528,38.4336494 130.864918,38.6418115 C130.594307,38.8499736 130.344516,38.961859 130.115538,38.9774712 C129.88656,38.9930833 129.709625,38.860382 129.584727,38.5793632 C129.511871,38.3087525 129.511871,38.00432 129.584727,37.6660567 C129.657584,37.3277933 129.766867,37.0233608 129.912581,36.7527501 C130.131151,36.3780584 130.360126,36.0345961 130.599512,35.722353 C130.838899,35.4101099 131.093893,35.1447072 131.364504,34.926137 C131.635115,34.7075669 131.918731,34.5488457 132.215362,34.4499687 C132.511993,34.3510917 132.82163,34.3276738 133.144281,34.3797143 Z M130.20921,38.345182 C130.313291,38.3659982 130.479819,38.2879386 130.708797,38.1110009 C130.937775,37.9340631 131.177158,37.6868743 131.426952,37.3694272 C131.676747,37.05198 131.90312,36.6824979 132.106078,36.2609697 C132.309036,35.8394415 132.441737,35.3945017 132.504186,34.926137 L132.324647,34.926137 C132.246586,34.926137 132.155517,34.9573609 132.051436,35.0198095 C131.655928,35.2800121 131.317669,35.5844446 131.036651,35.933116 C130.755632,36.2817875 130.537065,36.6200458 130.380943,36.9479011 C130.224822,37.2757564 130.13115,37.5697809 130.099926,37.8299835 C130.068702,38.0901861 130.105129,38.2619172 130.20921,38.345182 Z M135.095791,34.2079815 C135.095791,34.4994084 135.093189,34.7908309 135.087985,35.0822578 C135.082781,35.3736847 135.077577,35.6546993 135.072373,35.92531 C135.067169,36.1959207 135.061965,36.4509154 135.05676,36.6903018 C135.051556,36.9296882 135.04375,37.1430511 135.033342,37.330397 C135.033342,37.2887646 135.05676,37.1872871 135.103597,37.0259615 C135.150433,36.8646359 135.215483,36.6798948 135.298748,36.4717327 C135.382013,36.2635706 135.473082,36.0424018 135.571959,35.8082194 C135.670836,35.5740371 135.777517,35.3658781 135.892007,35.1837363 C136.006496,35.0015945 136.123585,34.8584852 136.243278,34.7544042 C136.362972,34.6503232 136.474857,34.6190993 136.578938,34.6607317 C136.807916,34.7648128 136.96924,34.915728 137.062912,35.113482 C137.156585,35.3112359 137.224237,35.5376088 137.265869,35.7926074 C137.307502,36.0476059 137.349134,36.3312225 137.390766,36.6434656 C137.432398,36.9557087 137.52607,37.283559 137.671783,37.6270265 C137.734232,37.783148 137.825302,37.8976354 137.944995,37.9704922 C138.064688,38.0433489 138.179175,38.0953886 138.288461,38.1266129 C138.397746,38.1578373 138.486213,38.1760512 138.553866,38.1812552 C138.621519,38.1864593 138.644936,38.2046732 138.62412,38.2358975 C138.363918,38.4336515 138.140147,38.5013031 137.952801,38.4388545 C137.765455,38.3764059 137.606734,38.2385006 137.476633,38.0251344 C137.346531,37.8117683 137.23985,37.5567736 137.156585,37.2601426 C137.07332,36.9635117 136.997862,36.6772931 136.93021,36.4014784 C136.862557,36.1256636 136.802711,35.8914848 136.750671,35.6989349 C136.69863,35.506385 136.641387,35.4101114 136.578938,35.4101114 C136.485265,35.4205196 136.383788,35.5089871 136.274503,35.6755168 C136.165217,35.8420464 136.053332,36.0502054 135.938843,36.2999999 C135.824354,36.5497944 135.71507,36.823003 135.610989,37.1196339 C135.506908,37.4162649 135.410635,37.6946775 135.322166,37.9548801 C135.233697,38.2150827 135.163443,38.4388536 135.111403,38.6261994 C135.059362,38.8135453 135.028138,38.9280327 135.01773,38.9696651 C134.861609,38.9696651 134.765335,38.9748691 134.728907,38.9852772 C134.692478,38.9956853 134.632633,38.9436456 134.549368,38.8291564 C134.601408,37.9132433 134.619622,37.0467817 134.60401,36.2297455 C134.588398,35.4127094 134.56498,34.702367 134.533756,34.0986969 C134.533756,34.005024 134.557174,33.9581882 134.60401,33.9581882 C134.650847,33.9581882 134.702886,33.9790041 134.760131,34.0206365 C134.817376,34.062269 134.877221,34.1039008 134.93967,34.1455332 C135.002119,34.1871656 135.054158,34.2079815 135.095791,34.2079815 Z M139.545233,35.9096979 C139.784619,35.9617385 140.000584,36.0033702 140.193134,36.0345946 C140.385684,36.0658189 140.578231,36.0944407 140.770781,36.120461 C140.963331,36.1464812 141.176694,36.1698991 141.410876,36.1907153 C141.645058,36.2115315 141.923471,36.2375514 142.246122,36.2687757 C142.339795,36.3728568 142.402243,36.4587223 142.433467,36.526375 C142.464691,36.5940277 142.506323,36.7007091 142.558364,36.8464226 C142.225304,36.783974 141.923474,36.7371382 141.652863,36.7059139 C141.382253,36.6746896 141.114248,36.6486697 140.848841,36.6278535 C140.583435,36.6070373 140.310226,36.5888234 140.029207,36.5732112 C139.748188,36.5575991 139.43595,36.5341812 139.092483,36.5029569 C139.082074,37.0337702 139.092482,37.5047298 139.123707,37.9158499 C139.154931,38.32697 139.154931,38.6990541 139.123707,39.0321134 C139.061258,39.0425216 139.01182,39.0321136 138.975392,39.0008893 C138.938964,38.969665 138.905138,38.9332372 138.873913,38.8916047 C138.842689,38.8499723 138.808863,38.8057386 138.772435,38.7589021 C138.736007,38.7120656 138.686569,38.6782398 138.62412,38.6574236 C138.655345,37.2211053 138.650141,35.8992959 138.608508,34.6919559 C138.566876,33.4846158 138.556468,32.3293337 138.577284,31.2260747 C138.577284,31.0179126 138.579886,30.7811318 138.58509,30.5157251 C138.590294,30.2503185 138.592896,29.9901198 138.592896,29.7351213 C138.592896,29.4801227 138.587692,29.2511479 138.577284,29.0481898 C138.566876,28.8452318 138.54606,28.7073265 138.514836,28.6344698 C138.587692,28.551205 138.657946,28.4991652 138.725599,28.478349 C138.793251,28.4575328 138.915545,28.4419209 139.092483,28.4315128 C139.113299,29.7013014 139.113299,30.9554591 139.092483,32.1940235 C139.071666,33.4325878 139.071666,34.6086859 139.092483,35.722353 C139.26942,35.5870477 139.456763,35.4205205 139.654517,35.2227665 C139.852271,35.0250125 140.037012,34.8324655 140.208746,34.6451196 C140.38048,34.4577738 140.528793,34.2938486 140.65369,34.1533392 C140.778588,34.0128298 140.856647,33.9373722 140.887871,33.9269641 C140.981544,34.0102289 141.077818,34.0804826 141.176695,34.1377271 C141.275572,34.1949717 141.32501,34.2183896 141.32501,34.2079815 C141.064807,34.4994084 140.7942,34.8090448 140.513182,35.1369001 C140.232163,35.4647554 139.909516,35.7223521 139.545233,35.9096979 Z" id="global-bedbank" fill="#012168"></path>
            </g>
        </g>
    </g>
</svg>