<?xml version="1.0" encoding="UTF-8" standalone="no"?>
<svg width="28px" height="19px" viewBox="0 0 28 19" version="1.1" xmlns="http://www.w3.org/2000/svg" xmlns:xlink="http://www.w3.org/1999/xlink">
    <!-- Generator: Sketch 41 (35326) - http://www.bohemiancoding.com/sketch -->
    <title>Shape</title>
    <desc>Created with Sketch.</desc>
    <defs></defs>
    <g id="Page-1" stroke="none" stroke-width="1" fill="none" fill-rule="evenodd">
        <g id="Home_Smyrooms" transform="translate(-330.000000, -6132.000000)" fill="#0084FF">
            <path d="M354.949962,6132 L333.050038,6132 C331.368745,6132 330,6133.36875 330,6135.05004 L330,6147.18553 C330,6148.86682 331.368745,6150.23557 333.050038,6150.23557 L354.949962,6150.23557 C356.631255,6150.23557 358,6148.86682 358,6147.18553 L358,6135.05004 C358,6133.36875 356.631255,6132 354.949962,6132 Z M333.050038,6133.35797 L354.949962,6133.35797 C355.154734,6133.35797 355.359507,6133.40108 355.542725,6133.46574 L344.053888,6142.48653 C344.032333,6142.50808 344,6142.50808 343.978445,6142.48653 L332.56505,6133.43341 C332.715935,6133.37952 332.877598,6133.35797 333.050038,6133.35797 Z M331.357968,6147.18553 L331.357968,6135.05004 C331.357968,6134.79138 331.411855,6134.55427 331.51963,6134.33872 L339.516551,6140.68668 L331.411855,6147.62741 C331.368745,6147.4873 331.357968,6147.33641 331.357968,6147.18553 Z M354.949962,6148.8776 L333.050038,6148.8776 C332.769823,6148.8776 332.500385,6148.80216 332.263279,6148.6836 L340.594303,6141.53811 L343.148576,6143.56428 L343.180908,6143.59661 C343.428791,6143.75828 343.698229,6143.8445 343.978445,6143.8445 C344.269438,6143.8445 344.571209,6143.75828 344.840647,6143.57506 L347.448807,6141.52733 L355.725943,6148.69438 C355.499615,6148.81293 355.230177,6148.8776 354.949962,6148.8776 Z M356.642032,6147.18553 C356.642032,6147.33641 356.620477,6147.4873 356.577367,6147.63818 L348.537336,6140.6759 L356.512702,6134.41416 C356.598922,6134.60816 356.642032,6134.82371 356.642032,6135.05004 L356.642032,6147.18553 Z" id="Shape"></path>
        </g>
    </g>
</svg>