<?xml version="1.0" encoding="UTF-8" standalone="no"?>
<svg width="17px" height="33px" viewBox="0 0 17 33" version="1.1" xmlns="http://www.w3.org/2000/svg" xmlns:xlink="http://www.w3.org/1999/xlink">
    <!-- Generator: Sketch 41 (35326) - http://www.bohemiancoding.com/sketch -->
    <title>noun_706876_cc</title>
    <desc>Created with Sketch.</desc>
    <defs></defs>
    <g id="Page-1" stroke="none" stroke-width="1" fill="none" fill-rule="evenodd">
        <g id="Home_Smyrooms" transform="translate(-335.000000, -6082.000000)" fill="#0084FF">
            <g id="Group-32" transform="translate(330.000000, 6026.000000)">
                <g id="Group-28">
                    <g id="noun_706876_cc" transform="translate(5.000000, 56.000000)">
                        <g id="Group">
                            <g id="Shape">
                                <path d="M13.7219389,0.114303423 L3.05781369,0.114303423 C1.37601616,0.114303423 0,1.4959018 0,3.18452203 L0,29.5884021 C0,31.2770223 1.37601616,32.6586207 3.05781369,32.6586207 L13.7219389,32.6586207 C15.4037364,32.6586207 16.7797526,31.2770223 16.7797526,29.5884021 L16.7797526,3.18452203 C16.7797526,1.4959018 15.4037364,0.114303423 13.7219389,0.114303423 Z M16.0152992,29.5884021 C16.0152992,30.8548673 14.9832871,31.891066 13.7219389,31.891066 L3.05781369,31.891066 C1.79646554,31.891066 0.764453422,30.8548673 0.764453422,29.5884021 L0.764453422,3.18452203 C0.764453422,1.91805686 1.79646554,0.881858075 3.05781369,0.881858075 L13.7219389,0.881858075 C14.9832871,0.881858075 16.0152992,1.91805686 16.0152992,3.18452203 L16.0152992,29.5884021 Z"></path>
                                <path d="M15.0215097,4.25909855 L1.75824287,4.25909855 C1.64357486,4.25909855 1.56712951,4.33585401 1.56712951,4.45098721 L1.56712951,28.2835592 C1.56712951,28.3986924 1.64357486,28.4754478 1.75824287,28.4754478 L15.0215097,28.4754478 C15.1361777,28.4754478 15.2126231,28.3986924 15.2126231,28.2835592 L15.2126231,4.45098721 C15.2126231,4.37423174 15.1361777,4.25909855 15.0215097,4.25909855 Z M14.4481697,27.7462709 L2.33158294,27.7462709 L2.33158294,5.0266532 L14.4481697,5.0266532 L14.4481697,27.7462709 Z"></path>
                                <path d="M8.40898764,28.9359806 C7.72097956,28.9359806 7.18586216,29.5116466 7.18586216,30.1640681 C7.18586216,30.8164895 7.75920223,31.3921555 8.40898764,31.3921555 C9.05877305,31.3921555 9.63211311,30.8164895 9.63211311,30.1640681 C9.63211311,29.5116466 9.09699572,28.9359806 8.40898764,28.9359806 Z M8.40898764,30.8548673 C8.02676093,30.8548673 7.72097956,30.5478454 7.72097956,30.1640681 C7.72097956,29.7802907 8.02676093,29.4732689 8.40898764,29.4732689 C8.79121435,29.4732689 9.09699572,29.7802907 9.09699572,30.1640681 C9.09699572,30.5478454 8.75299168,30.8548673 8.40898764,30.8548673 Z"></path>
                                <path d="M7.49164353,3.07047831 L9.28810907,3.07047831 C9.40277709,3.07047831 9.47922243,2.97956922 9.47922243,2.84320558 L9.47922243,2.79775104 C9.47922243,2.6613874 9.40277709,2.57047831 9.28810907,2.57047831 L7.49164353,2.57047831 C7.37697552,2.57047831 7.30053018,2.6613874 7.30053018,2.79775104 L7.30053018,2.84320558 C7.30053018,2.97956922 7.37697552,3.07047831 7.49164353,3.07047831 Z"></path>
                            </g>
                        </g>
                    </g>
                </g>
            </g>
        </g>
    </g>
</svg>