<?xml version="1.0" encoding="UTF-8" standalone="no"?>
<svg width="93px" height="93px" viewBox="0 0 93 93" version="1.1" xmlns="http://www.w3.org/2000/svg" xmlns:xlink="http://www.w3.org/1999/xlink">
    <!-- Generator: Sketch 41 (35326) - http://www.bohemiancoding.com/sketch -->
    <title>Group 41</title>
    <desc>Created with Sketch.</desc>
    <defs>
        <ellipse id="path-1" cx="46.5" cy="46.5" rx="46.5" ry="46.5"></ellipse>
        <mask id="mask-2" maskContentUnits="userSpaceOnUse" maskUnits="objectBoundingBox" x="0" y="0" width="93" height="93" fill="white">
            <use xlink:href="#path-1"></use>
        </mask>
    </defs>
    <g id="Page-1" stroke="none" stroke-width="1" fill="none" fill-rule="evenodd">
        <g id="Home_Smyrooms" transform="translate(-561.000000, -1269.000000)">
            <g id="Group-37" transform="translate(396.000000, 940.000000)">
                <g id="Group-41" transform="translate(165.000000, 329.000000)">
                    <use id="Oval-3-Copy-2" stroke="#0084FF" mask="url(#mask-2)" stroke-width="2" xlink:href="#path-1"></use>
                    <g id="noun_244914_cc" transform="translate(23.000000, 29.000000)" fill="#0084FF">
                        <g id="Group">
                            <g id="Group-22">
                                <path d="M0.69105631,34.6576705 C1.10337726,35.4842418 1.91127113,35.939675 2.96520184,35.939675 L29.0622477,35.939675 C30.1165771,35.939675 30.9240723,35.4842418 31.336792,34.6576705 C31.834847,33.6589134 31.668164,32.273837 30.9308512,31.2898615 C28.482845,28.0203302 24.2535645,24.9916993 21.301123,24.3944425 C20.4278321,24.2194602 19.7930013,23.6473722 19.6019938,22.8611506 C19.5294189,22.5695135 19.4995117,21.6758257 19.4759847,20.8460583 C21.0510986,19.5584606 22.3702067,17.6772017 23.1390218,15.6237572 C23.7913981,15.4603605 24.3600342,14.6230026 24.5673909,13.4712358 C24.7615885,12.2891069 24.4880371,11.3039329 23.9066406,10.9435813 C23.9126221,8.23694956 23.8938802,5.89786045 22.9412354,4.10888675 C21.8394531,2.04066057 19.6510417,1.07426315 15.9736491,1.06787111 C12.3768066,1.07426315 10.1883952,2.04026105 9.08661292,4.10848724 C8.14034828,5.88507635 8.115625,8.20458982 8.12120765,10.9435813 C7.53981114,11.3039329 7.26586096,12.2899059 7.46085605,13.4776279 C7.66821278,14.6238015 8.23684888,15.46076 8.88882646,15.6237572 C9.65764152,17.6772017 10.9767496,19.5584606 12.5514648,20.8460583 C12.5295328,21.642667 12.4996256,22.563521 12.4246582,22.8639472 C12.2344482,23.6473722 11.6000163,24.2194603 10.7259278,24.3944426 C7.77468267,24.9912998 3.54500324,28.0203303 1.09659836,31.2898616 C0.359285477,32.2742365 0.192602503,33.6593129 0.69105631,34.6576705 Z M1.74977212,31.7808505 C4.05422358,28.7030806 8.15350747,25.7495561 10.887028,25.1966441 C12.0617839,24.9613369 12.9554118,24.1415571 13.2173991,23.060103 C13.3190836,22.6538086 13.3450032,21.7045898 13.3737141,20.6646839 C13.377303,20.5348455 13.3190836,20.4109996 13.2170003,20.3310991 C11.6263346,19.0858487 10.2968587,17.1810191 9.56951494,15.1048029 C9.51169429,14.9394088 9.34461262,14.8319425 9.17115066,14.8319425 C9.1548014,14.8319425 9.13845206,14.8327415 9.1221028,14.834739 C8.91155593,14.834739 8.44540194,14.332564 8.26555986,13.3386009 C8.1068522,12.371804 8.36485182,11.6630859 8.60490715,11.6183416 C8.79870599,11.5823864 8.93907057,11.3502752 8.93867179,11.1525213 C8.93189281,8.4670632 8.92631016,6.14754974 9.80717768,4.49360795 C10.7518473,2.72021482 12.7117675,1.89164594 16.0522054,1.88605293 C19.3160807,1.89164594 21.276001,2.72061434 22.2206706,4.49400747 C23.1015381,6.14794925 23.0959554,8.46746272 23.0891765,11.2148438 C23.0887777,11.4125977 23.2291423,11.5823864 23.4229411,11.6183417 C23.6629965,11.663086 23.9205974,12.371804 23.7626872,13.3322089 C23.5824463,14.331765 23.1166911,14.8339401 22.8921875,14.8339401 C22.8921875,14.8339401 22.8921875,14.8339401 22.8917887,14.8339401 C22.70118,14.8119674 22.5217366,14.9234287 22.4583333,15.104803 C21.7309896,17.1810193 20.4015137,19.0858489 18.810848,20.3310992 C18.7083659,20.4109997 18.6521403,20.5963691 18.6557292,20.7262075 C18.6832438,21.7193716 18.7095622,22.6574043 18.8092529,23.0573066 C19.0728353,24.1415573 19.9660645,24.9613371 21.1400228,25.1966443 C23.8743408,25.7495562 27.9736247,28.7030807 30.2776774,31.7808506 C30.8187988,32.5031518 30.9599609,33.5826084 30.6062582,34.291726 C30.335498,34.8346504 29.8015543,35.1214935 29.0622477,35.1214935 L2.96520184,35.1214935 C2.22629393,35.1214935 1.69235024,34.8346505 1.42159021,34.2921256 C1.0674886,33.5830078 1.20865074,32.5031516 1.74977212,31.7808505 Z" id="Shape"></path>
                                <path d="M39.5182129,20.4813121 C38.7737223,20.331898 38.2329996,19.8453035 38.0703043,19.1769353 C38.0080973,18.9264471 37.9821777,18.1546076 37.9622396,17.448686 C39.3327881,16.321289 40.4816243,14.6833274 41.1555338,12.8951526 C41.7321452,12.730957 42.2349853,11.9938742 42.4176188,10.977539 C42.5886882,9.93883165 42.3498291,9.06831491 41.84021,8.72913698 C41.8445964,6.45556631 41.8246582,4.31782658 40.9884521,2.74857946 C40.0142741,0.920054945 38.0842611,0.0659178818 34.8447103,0.0603248727 C31.674943,0.0659178818 29.74493,0.920054945 28.770752,2.74897898 C27.9409261,4.30704008 27.9150065,6.42560359 27.9193929,8.72873755 C27.4097738,9.06831499 27.1709147,9.93963068 27.3423828,10.9839311 C27.5250162,11.9946733 28.0274577,12.730957 28.604069,12.8951527 C29.2779785,14.6833274 30.4268148,16.3212891 31.7973632,17.4486861 C31.7778238,18.1338334 31.7519042,18.9244496 31.6885009,19.1793324 C31.5266031,19.8453036 30.9858804,20.3318981 30.2409912,20.4813122 C28.8600748,20.7601652 27.1533691,21.6302824 25.4350993,22.9310636 C25.2548584,23.0672941 25.2193684,23.3237749 25.3553467,23.5039507 C25.4909261,23.6841264 25.7473308,23.7196822 25.9271729,23.5838512 C27.5262126,22.3733576 29.1571533,21.5348011 30.4016927,21.2835139 C31.4496419,21.0733754 32.2467692,20.3410866 32.4812418,19.3750888 C32.5641846,19.0423029 32.5893066,18.3467685 32.6196126,17.2681108 C32.6232015,17.1382724 32.5649821,17.014027 32.4628988,16.9341265 C31.0983318,15.8658559 29.9108154,14.1643733 29.2863526,12.3821911 C29.2229493,12.2012163 29.0439047,12.088956 28.8528972,12.1113281 C28.7448324,12.1321023 28.3049968,11.7170188 28.1470867,10.8449041 C27.9999431,9.94841975 28.2599366,9.42387251 28.4030926,9.39710585 C28.5968914,9.36075109 28.737256,9.13742902 28.7368572,8.94007456 C28.7308758,6.59539235 28.7260906,4.57071202 29.4913168,3.1344993 C30.3083823,1.60000887 32.0099041,0.883300827 34.9132976,0.878506773 C37.7493002,0.883300827 39.450822,1.60000887 40.2678875,3.13370035 C41.0331137,4.57031258 41.0283285,6.59459348 41.0227459,8.99400755 C41.0223471,9.19136193 41.1627117,9.36075117 41.3561117,9.39710594 C41.4996664,9.42387259 41.7592611,9.94841984 41.6129151,10.8385122 C41.4546061,11.717019 41.0199545,12.1313034 40.9067058,12.1113283 C40.7156983,12.0893556 40.5366537,12.201616 40.4732504,12.3821912 C39.8487875,14.1643735 38.6612712,15.865856 37.2967042,16.9341266 C37.1946209,17.0140272 37.137199,17.1670368 37.1407878,17.2968752 C37.1694987,18.3339846 37.1946209,19.0391071 37.2775636,19.372692 C37.5128337,20.341087 38.3099611,21.0733756 39.3571127,21.2835141 C41.7401206,21.764915 45.3146323,24.3417084 47.3255941,27.0275659 C47.788558,27.6455968 47.9101807,28.5680489 47.6083171,29.1724967 C47.3774334,29.6359199 46.9379965,29.8708276 46.3023682,29.8708276 L34.1381022,29.8708276 C33.9124023,29.8708276 33.7297689,30.0537999 33.7297689,30.2799185 C33.7297689,30.5060371 33.9124023,30.6890094 34.1381022,30.6890094 L46.3023681,30.6890094 C47.2454427,30.6890094 47.9687988,30.280318 48.3388508,29.5384412 C48.7834716,28.6475499 48.6355305,27.4130862 47.9787678,26.5361774 C45.8290365,23.6653498 42.1129638,21.0058594 39.5182129,20.4813121 Z" id="Shape"></path>
                            </g>
                        </g>
                    </g>
                </g>
            </g>
        </g>
    </g>
</svg>