<?xml version="1.0" encoding="UTF-8" standalone="no"?>
<svg width="93px" height="93px" viewBox="0 0 93 93" version="1.1" xmlns="http://www.w3.org/2000/svg" xmlns:xlink="http://www.w3.org/1999/xlink">
    <!-- Generator: Sketch 41 (35326) - http://www.bohemiancoding.com/sketch -->
    <title>Group 39</title>
    <desc>Created with Sketch.</desc>
    <defs>
        <ellipse id="path-1" cx="46.5" cy="46.5" rx="46.5" ry="46.5"></ellipse>
        <mask id="mask-2" maskContentUnits="userSpaceOnUse" maskUnits="objectBoundingBox" x="0" y="0" width="93" height="93" fill="white">
            <use xlink:href="#path-1"></use>
        </mask>
    </defs>
    <g id="Page-1" stroke="none" stroke-width="1" fill="none" fill-rule="evenodd">
        <g id="Home_Smyrooms" transform="translate(-1147.000000, -949.000000)">
            <g id="Group-37" transform="translate(396.000000, 940.000000)">
                <g id="Group-40" transform="translate(751.000000, 9.000000)">
                    <g id="Group-39">
                        <use id="Oval-3-Copy" stroke="#0084FF" mask="url(#mask-2)" stroke-width="2" xlink:href="#path-1"></use>
                        <g id="noun_694164_cc" transform="translate(26.000000, 25.000000)" fill="#0084FF">
                            <g id="network_hub_share_outline">
                                <path d="M36.6118126,20.2921681 C35.0338898,20.2958592 33.6341305,21.3020909 33.1328439,22.7930615 L28.0427496,21.5668739 C28.5714023,18.8539586 27.9003398,16.0456381 26.2014633,13.8612994 L30.857793,9.93132405 C33.0678535,12.1663862 36.6559045,12.2596934 38.979937,10.1425401 C41.3039694,8.02538689 41.5318456,4.45583628 39.4957722,2.062275 C37.4596987,-0.331286279 33.8887075,-0.691825199 31.4122459,1.24613583 C28.9357843,3.18409686 28.4405685,6.72665599 30.2912434,9.26530129 L25.6304875,13.1908659 C22.2036691,9.50162755 16.5014708,9.07073997 12.5555845,12.2028586 L7.66466786,6.61885325 C8.94342675,5.18716333 8.88305815,3.01096996 7.52688134,1.65186588 C6.17070454,0.292761804 3.98727778,0.220316644 2.54338435,1.48651559 C1.09949092,2.75271454 0.893995101,4.92008665 2.07435658,6.43336913 C3.25471805,7.94665161 5.41312266,8.2830063 7.00074252,7.20107182 L11.887233,12.7938987 C9.84275076,14.7353307 8.75488107,17.4721763 8.91073139,20.282135 C9.06658172,23.0920938 10.450491,25.6927994 12.6972219,27.3978811 L9.10759893,32.5452226 C6.42994822,31.0050492 3.00955667,31.8487703 1.36208805,34.4558373 C-0.28538058,37.0629044 0.42902205,40.5013252 2.97985995,42.2421758 C5.53069785,43.9830264 9.00608007,43.4039755 10.8498978,40.9309093 C12.6937154,38.4578431 12.2468281,34.9748502 9.8379168,33.043637 L13.4231136,27.887474 C16.5429468,29.8465965 20.5114418,29.8585855 23.6431377,27.9183492 L28.812903,35.4166187 C27.8704805,36.3369301 27.7901739,37.8223714 28.627921,38.8382536 C29.465668,39.8541358 30.9436048,40.0635112 32.0322697,39.3205385 C33.1209345,38.5775659 33.4592389,37.1286744 32.811536,35.9830943 C32.163833,34.8375141 30.7449527,34.3752113 29.5432209,34.9182043 L24.3734556,27.4199349 C26.0346308,26.1675431 27.2467724,24.4152112 27.8302935,22.4225588 L32.9513709,23.6531571 L32.9513709,23.9442664 C32.9477954,25.42697 33.8420361,26.7654118 35.2161565,27.3340515 C36.5902769,27.9026911 38.1728994,27.5892267 39.2243622,26.5401606 C40.2758249,25.4910946 40.5884725,23.9136087 40.0161845,22.5449644 C39.4438965,21.17632 38.0996951,20.2868132 36.6118126,20.2921681 Z M30.0743611,5.89549079 C30.0686462,3.47750185 31.835175,1.41747831 34.2328374,1.04611673 C36.6304998,0.674755153 38.9411381,2.10328727 39.6721682,4.40893587 C40.4031983,6.71458448 39.3356591,9.20675226 37.1591401,10.275594 C34.9826211,11.3444357 32.3490423,10.6698075 30.9595949,8.68749347 C30.3830253,7.86987965 30.073865,6.8947966 30.0743611,5.89549079 L30.0743611,5.89549079 Z M6.42534056,6.52181682 C5.19356613,7.28244693 3.582061,6.97246443 2.72286918,5.80962467 C1.86367737,4.64678491 2.04509659,3.02127321 3.13968415,2.07497287 C4.23427171,1.12867254 5.87474399,1.17911013 6.90870823,2.19085443 C7.94267247,3.20259874 8.02318691,4.83616379 7.09369206,5.944009 C6.90297243,6.17062029 6.67738503,6.36564665 6.42534056,6.52181682 L6.42534056,6.52181682 Z M11.0816703,37.4940804 C11.0889946,39.7666842 9.51234496,41.7398411 7.28808518,42.2417036 C5.0638254,42.743566 2.78802652,41.6396418 1.81227351,39.5855458 C0.836520505,37.5314497 1.42230174,35.0776512 3.22172484,33.6814483 C5.02114793,32.2852454 7.55199226,32.3208012 9.3112027,33.7669994 C10.428144,34.6852059 11.0770199,36.0511802 11.0816703,37.4940804 Z M29.3307648,36.1708564 C29.8453834,35.5671559 30.7207204,35.4188799 31.4066084,35.819223 C32.0924965,36.219566 32.3908598,37.052914 32.1141711,37.7954907 C31.8374823,38.5380675 31.0656456,38.9754262 30.2837761,38.832678 C29.5019066,38.6899297 28.9357983,38.0082985 28.9412619,37.2162034 C28.9439052,36.8329897 29.0817935,36.4629252 29.3307648,36.1708564 L29.3307648,36.1708564 Z M27.1752205,21.3595688 C26.6439009,24.1906604 24.7440164,26.5776947 22.0986213,27.7378599 C19.4532263,28.8980251 16.4035928,28.6816528 13.9498277,27.1597008 C10.1620251,24.8409518 8.70904366,20.0682006 10.5655674,16.0430877 C12.4220912,12.0179747 17.0030716,10.0089387 21.2355112,11.3636741 C25.4679509,12.7184096 28.018076,17.0099971 27.1752205,21.3595688 L27.1752205,21.3595688 Z M36.6118126,26.7274476 C35.0717741,26.7274476 33.8233262,25.4833497 33.8233262,23.9486772 L33.8233262,23.864873 C33.8694366,22.3443946 35.135576,21.1444676 36.6617624,21.174872 C38.1879488,21.2052764 39.4049514,22.4546721 39.3900435,23.9757721 C39.3751357,25.4968721 38.1338777,26.7223427 36.6073865,26.7230369 L36.6118126,26.7274476 Z" id="Shape"></path>
                            </g>
                        </g>
                    </g>
                </g>
            </g>
        </g>
    </g>
</svg>