<?xml version="1.0" encoding="UTF-8" standalone="no"?>
<svg width="24px" height="33px" viewBox="0 0 24 33" version="1.1" xmlns="http://www.w3.org/2000/svg" xmlns:xlink="http://www.w3.org/1999/xlink">
    <!-- Generator: Sketch 41 (35326) - http://www.bohemiancoding.com/sketch -->
    <title>noun_22699_cc</title>
    <desc>Created with Sketch.</desc>
    <defs></defs>
    <g id="Page-1" stroke="none" stroke-width="1" fill="none" fill-rule="evenodd">
        <g id="Home_Smyrooms" transform="translate(-332.000000, -6172.000000)" fill="#0084FF">
            <g id="noun_22699_cc" transform="translate(332.000000, 6172.000000)">
                <g id="Group">
                    <g id="Group-15">
                        <g>
                            <path d="M11.9637818,17.0792368 C8.6352,17.0792368 5.92712727,14.3845263 5.92712727,11.0723684 C5.92712727,7.76021053 8.6352,5.06593421 11.9637818,5.06593421 C15.2923636,5.06593421 18,7.76021053 18,11.0723684 C18,14.3845263 15.2923636,17.0792368 11.9637818,17.0792368 Z M11.9637818,6.36856579 C9.35694545,6.36856579 7.23621818,8.47882895 7.23621818,11.0723684 C7.23621818,13.6659079 9.35694545,15.7761711 11.9637818,15.7761711 C14.5706182,15.7761711 16.6909091,13.6663421 16.6909091,11.0723684 C16.6909091,8.47839474 14.5706182,6.36856579 11.9637818,6.36856579 Z" id="Shape"></path>
                            <path d="M12.0087273,32.8367368 L12.0087273,32.8367368 C10.3893818,32.8367368 9.18458182,31.2948553 8.61032727,30.3756316 C4.79127273,23.6961711 0.2544,14.7588158 0.2544,9.98684211 C0.2544,4.62086842 5.50734545,0.255315789 11.9637818,0.255315789 C18.3106909,0.255315789 23.6727273,4.71205263 23.6727273,9.98684211 C23.6727273,14.6124868 19.2977455,23.32275 15.6270545,29.8146316 C14.5544727,31.8154737 13.3352727,32.8367368 12.0087273,32.8367368 Z M11.9637818,1.55794737 C6.22865455,1.55794737 1.56349091,5.33905263 1.56349091,9.98684211 C1.56349091,14.7106184 6.68290909,24.3713684 9.73527273,29.7099868 C10.0690909,30.2431974 10.9858909,31.5341053 12.0087273,31.5341053 C13.0119273,31.5341053 13.9060364,30.2583947 14.4794182,29.1889342 C19.5661091,20.1907895 22.3636364,13.3758553 22.3636364,9.98684211 C22.3636364,5.49667105 17.5038545,1.55794737 11.9637818,1.55794737 Z" id="Shape"></path>
                        </g>
                    </g>
                </g>
            </g>
        </g>
    </g>
</svg>