<?xml version="1.0" encoding="UTF-8" standalone="no"?>
<svg width="93px" height="93px" viewBox="0 0 93 93" version="1.1" xmlns="http://www.w3.org/2000/svg" xmlns:xlink="http://www.w3.org/1999/xlink">
    <!-- Generator: Sketch 41 (35326) - http://www.bohemiancoding.com/sketch -->
    <title>Group 38</title>
    <desc>Created with Sketch.</desc>
    <defs>
        <ellipse id="path-1" cx="46.5" cy="46.5" rx="46.5" ry="46.5"></ellipse>
        <mask id="mask-2" maskContentUnits="userSpaceOnUse" maskUnits="objectBoundingBox" x="0" y="0" width="93" height="93" fill="white">
            <use xlink:href="#path-1"></use>
        </mask>
    </defs>
    <g id="Page-1" stroke="none" stroke-width="1" fill="none" fill-rule="evenodd">
        <g id="Home_Smyrooms" transform="translate(-561.000000, -949.000000)">
            <g id="Group-37" transform="translate(396.000000, 940.000000)">
                <g id="Group-38" transform="translate(165.000000, 9.000000)">
                    <use id="Oval-3" stroke="#0084FF" mask="url(#mask-2)" stroke-width="2" xlink:href="#path-1"></use>
                    <g id="Group-8" transform="translate(29.000000, 25.000000)" fill="#0084FF">
                        <path d="M9.24441268,0.0606441905 C3.69137152,3.49711878 0,9.64319176 0,16.6280583 C0,27.2188788 8.50939241,35.8352192 19.0852391,36.0903694 L19.0852391,39.430551 L13.8367983,39.430551 C13.5768579,39.4357766 13.4539962,39.5790046 13.3745538,39.772018 L12.4202919,43.0973781 C12.3368899,43.3807938 12.5859518,43.7086743 12.8825364,43.706014 L26.2422037,43.706014 C26.5387884,43.7107645 26.7878512,43.3807938 26.7044482,43.0973781 L25.7501863,39.772018 C25.6922631,39.5752517 25.493872,39.4286983 25.2879418,39.430551 L20.039501,39.430551 L20.039501,36.0903694 C22.6484537,36.027235 25.1304886,35.4558432 27.3902763,34.4722017 C27.6222574,34.3722983 27.7412061,34.0703081 27.639291,33.8400032 C27.5373758,33.6096983 27.2332525,33.4933107 27.0026551,33.5963493 C24.7219213,34.5890168 22.2109723,35.1550881 19.5623701,35.1550881 C9.27972037,35.1550881 0.954262431,26.8659156 0.954262431,16.6280583 C0.954262431,9.97648784 4.46933405,4.14589653 9.75136435,0.8771626 C9.93859102,0.77455149 10.0385977,0.536170679 9.9803395,0.33142351 C9.81935551,-0.0955052168 9.44614414,-0.0156965754 9.24441268,0.0606441905 L9.24441268,0.0606441905 Z M19.5623701,0.951365635 C10.8721455,0.951365635 3.81704829,7.9756662 3.81704829,16.6280583 C3.81704829,25.2804789 10.8721455,32.3047795 19.5623701,32.3047795 C28.2526428,32.3047795 35.3076923,25.2804789 35.3076923,16.6280583 C35.3076923,10.162233 31.3680218,4.60873914 25.7501863,2.21319726 C25.7239441,2.17424304 25.7029503,2.13315109 25.6756107,2.0944344 L25.6010351,2.15381583 C23.7407492,1.38294987 21.7017299,0.951365635 19.5623701,0.951365635 L19.5623701,0.951365635 Z M19.5623701,1.90146851 C21.5277207,1.90146851 23.3941135,2.29362347 25.1090177,2.98515585 C26.2777023,4.88099112 26.2148641,6.83022218 26.2422037,8.07713719 C26.2746486,9.55435714 25.6060455,10.4624655 24.8853387,11.6252014 C24.434021,12.3534552 23.7056323,12.9720672 23.0215696,13.5699194 C22.337507,14.1677717 21.6552574,14.7306601 21.4857805,15.5740189 C21.2415853,16.7900983 21.0607522,18.1995285 20.6508012,19.2408412 C20.4458735,19.7614976 20.1798253,20.1799229 19.8605769,20.4581605 C19.5413286,20.7364219 19.169644,20.9046376 18.6081081,20.903545 C18.1505395,20.903545 17.8193634,20.7504834 17.5047427,20.4730296 C17.190123,20.1955521 16.9171564,19.770191 16.6548293,19.2556628 C16.0105598,17.9915034 15.9019643,16.9242054 15.8944257,15.8115446 C15.8867916,14.6989267 15.9841263,13.5364283 15.7304358,12.2486589 C15.4677752,10.9160446 14.667054,10.0697879 14.0157225,9.33896882 C13.364391,8.60819719 12.8825364,8.03913307 12.8825364,7.12703432 C12.8825364,5.04136849 13.4234602,3.67972855 14.6121362,2.74763013 C16.160713,2.20041838 17.8242778,1.90146851 19.5623701,1.90146851 Z M12.6887258,3.59383925 C12.1734248,4.56764719 11.9282744,5.7489576 11.9282744,7.12703432 C11.9282744,8.3865857 12.6374342,9.23393494 13.300026,9.97734294 C13.9626178,10.7207509 14.599111,11.3917611 14.8059468,12.4416723 C15.0283852,13.5702995 14.9321956,14.637455 14.9401637,15.8115446 C14.9482749,16.985677 15.0642183,18.2621402 15.7900771,19.6862019 C16.0812229,20.2575938 16.4242319,20.7849722 16.8785083,21.1856305 C17.3327847,21.5862414 17.9237596,21.8522702 18.6081081,21.8536479 C19.3705634,21.8536479 20.0061023,21.5897568 20.4868113,21.1707614 C20.9675208,20.7517661 21.291111,20.1905165 21.5305353,19.5823082 C22.0094317,18.3657965 22.1773341,16.9262481 22.4102694,15.7670323 C22.487756,15.3811955 22.9769584,14.8688051 23.6478041,14.2824966 C24.3186507,13.6961881 25.12858,13.0216151 25.6905449,12.1150744 C26.3857725,10.9931929 27.2356859,9.84176326 27.1964657,8.06231558 C27.1754719,7.09036034 27.2351133,5.39874968 26.5105899,3.62352997 C31.1790307,6.09864296 34.3534304,10.9901526 34.3534304,16.6280583 C34.3534304,18.8252187 33.8614611,20.9020723 32.9965653,22.77406 C31.9164362,22.1260899 30.2928072,21.9522685 28.6427451,21.8536479 C28.6327254,21.8533628 28.6227056,21.8533628 28.613163,21.8536479 C26.3043262,21.8536479 24.7164343,22.6109749 24.1101917,23.8577949 C23.5077661,25.0969665 24.022829,26.6228318 25.4074154,27.8659939 L25.3926243,27.8807205 C25.4016898,27.8897464 25.4136181,27.8868961 25.4222064,27.895447 C26.140718,28.6026561 26.7704354,29.0087301 27.241316,29.2166601 C25.0049554,30.5689415 22.3724807,31.3543916 19.5624655,31.3543916 C11.3879236,31.3543916 4.7714052,24.7667108 4.7714052,16.6277733 C4.7714052,10.9616495 7.98201954,6.05664842 12.6888212,3.59355422 L12.6887258,3.59383925 Z M28.5831037,22.8037507 L28.613163,22.8037507 C30.246192,22.903464 31.8542183,23.1690653 32.5792665,23.6202691 C31.4983263,25.6132524 29.9790936,27.3323211 28.136032,28.6379524 L28.136032,28.504368 C28.136032,28.504368 28.0205191,28.5105437 27.658901,28.3559144 C27.2972362,28.2014752 26.7521141,27.881338 26.078357,27.2127981 C26.0688143,27.2075726 26.0587946,27.2028221 26.0487748,27.1980715 C24.8411563,26.1254054 24.5930482,25.05958 24.9752301,24.2735599 C25.3553127,23.4916252 26.5062957,22.8110665 28.5834854,22.8038457 L28.5831037,22.8037507 Z M14.1946466,40.3806539 L24.9300936,40.3806539 L25.6159693,42.7559111 L13.5087708,42.7559111 L14.1946466,40.3806539 Z" id="Shape"></path>
                    </g>
                </g>
            </g>
        </g>
    </g>
</svg>