<?xml version="1.0" encoding="utf-8"?>
<!-- Generator: Adobe Illustrator 16.0.0, SVG Export Plug-In . SVG Version: 6.00 Build 0)  -->
<!DOCTYPE svg PUBLIC "-//W3C//DTD SVG 1.1//EN" "http://www.w3.org/Graphics/SVG/1.1/DTD/svg11.dtd">
<svg version="1.1" id="Layer_1" xmlns="http://www.w3.org/2000/svg" xmlns:xlink="http://www.w3.org/1999/xlink" x="0px" y="0px"
	 width="796px" height="196px" viewBox="0 0 796 196" enable-background="new 0 0 796 196" xml:space="preserve">
<title>Group 2 Copy 2</title>
<desc>Created with Sketch.</desc>
<g>
	<g>
		<g>
			<g>
				<g>
					<polyline fill="#009DF5" points="705.036,97.561 667.652,43.926 633.898,43.926 670.895,97.932 628.725,161.33 661.433,161.33 
											"/>
				</g>
				<g>
					<polyline fill="#009DF5" points="748.173,34.055 714.44,34.055 691.204,68.34 708.69,92.465 					"/>
					<polyline fill="#009DF5" points="708.327,102.533 742.061,151.6 735.31,151.6 708.307,151.6 691.204,126.766 					"/>
				</g>
			</g>
		</g>
	</g>
	<g>
		<path fill="#182945" d="M100.158,76.127H79.884v56.963H67.375V76.127H47.102V65.852h53.057V76.127z"/>
		<path fill="#182945" d="M161.49,133.09h-11.299c-2.139,0-3.689-0.836-4.65-2.51l-14.135-21.529
			c-0.527-0.807-1.109-1.381-1.744-1.721c-0.637-0.342-1.574-0.512-2.814-0.512h-5.346v26.271h-12.51V65.852H129.5
			c4.557,0,8.469,0.473,11.74,1.418c3.27,0.945,5.951,2.271,8.045,3.977c2.092,1.705,3.635,3.742,4.627,6.113
			c0.992,2.373,1.488,4.984,1.488,7.836c0,2.264-0.334,4.402-1,6.418c-0.668,2.014-1.629,3.844-2.883,5.486
			c-1.256,1.643-2.807,3.084-4.65,4.324c-1.846,1.24-3.945,2.217-6.301,2.93c0.805,0.465,1.549,1.016,2.232,1.65
			c0.682,0.637,1.301,1.389,1.859,2.256L161.49,133.09z M129.312,97.844c2.355,0,4.41-0.295,6.162-0.885
			c1.75-0.588,3.191-1.402,4.324-2.439c1.131-1.039,1.977-2.271,2.535-3.697c0.557-1.426,0.836-2.992,0.836-4.697
			c0-3.41-1.123-6.029-3.371-7.857c-2.248-1.83-5.682-2.744-10.299-2.744h-7.998v22.32H129.312z"/>
		<path fill="#182945" d="M226.404,133.09h-9.672c-1.086,0-1.969-0.271-2.65-0.812c-0.682-0.543-1.193-1.217-1.535-2.023
			l-5.021-13.717h-27.854l-5.021,13.717c-0.25,0.713-0.73,1.365-1.443,1.953c-0.713,0.59-1.596,0.883-2.65,0.883h-9.764
			l26.457-67.238h12.742L226.404,133.09z M204.316,107.701l-8.184-22.367c-0.404-0.99-0.822-2.168-1.256-3.533
			c-0.434-1.363-0.869-2.836-1.303-4.418c-0.402,1.582-0.82,3.062-1.254,4.441c-0.436,1.379-0.854,2.58-1.256,3.604l-8.139,22.273
			H204.316z"/>
		<path fill="#182945" d="M285.645,65.852l-27.156,67.238h-11.299l-27.156-67.238h10.043c1.086,0,1.969,0.264,2.65,0.791
			s1.193,1.209,1.535,2.045l15.857,41.014c0.525,1.332,1.029,2.797,1.51,4.395c0.48,1.596,0.938,3.262,1.373,4.998
			c0.371-1.736,0.773-3.402,1.209-4.998c0.434-1.598,0.914-3.062,1.441-4.395l15.764-41.014c0.248-0.713,0.736-1.363,1.465-1.953
			c0.727-0.588,1.619-0.883,2.674-0.883H285.645z"/>
		<path fill="#182945" d="M305.174,75.803v18.646h23.529v9.625h-23.529v19.02h29.854v9.996h-42.408V65.852h42.408v9.951H305.174z"/>
		<path fill="#182945" d="M385.479,122.768v10.322h-39.385V65.852h12.508v56.916H385.479z"/>
		<path fill="#182945" d="M447.461,99.377v27.203c-3.41,2.512-7.043,4.348-10.904,5.51c-3.859,1.164-7.99,1.744-12.391,1.744
			c-5.488,0-10.455-0.852-14.904-2.557s-8.246-4.076-11.393-7.115c-3.146-3.037-5.572-6.664-7.277-10.881
			c-1.705-4.215-2.557-8.818-2.557-13.811c0-5.053,0.82-9.688,2.465-13.904c1.643-4.215,3.975-7.842,6.998-10.881
			c3.021-3.037,6.688-5.393,10.996-7.066c4.309-1.676,9.145-2.512,14.508-2.512c2.729,0,5.279,0.217,7.65,0.65
			c2.371,0.436,4.572,1.031,6.604,1.791c2.029,0.76,3.883,1.682,5.557,2.766c1.674,1.086,3.207,2.279,4.604,3.582l-3.582,5.672
			c-0.557,0.9-1.285,1.449-2.186,1.65c-0.898,0.203-1.875-0.021-2.928-0.674c-1.023-0.588-2.047-1.178-3.07-1.766
			c-1.023-0.59-2.162-1.102-3.418-1.535c-1.254-0.434-2.666-0.791-4.23-1.07c-1.566-0.279-3.371-0.418-5.418-0.418
			c-3.316,0-6.316,0.559-8.998,1.674s-4.967,2.713-6.857,4.789c-1.893,2.078-3.35,4.574-4.371,7.486
			c-1.023,2.914-1.535,6.17-1.535,9.766c0,3.844,0.551,7.277,1.65,10.301c1.1,3.021,2.65,5.578,4.65,7.672
			c2,2.092,4.41,3.689,7.23,4.789c2.82,1.102,5.967,1.65,9.439,1.65c2.48,0,4.697-0.262,6.65-0.789s3.859-1.24,5.719-2.141v-12.182
			h-8.463c-0.807,0-1.434-0.225-1.883-0.676c-0.449-0.447-0.674-0.998-0.674-1.65v-7.068H447.461z"/>
		<path fill="#182945" d="M516.375,133.09h-9.672c-1.086,0-1.969-0.271-2.65-0.812c-0.682-0.543-1.193-1.217-1.535-2.023
			l-5.021-13.717h-27.854l-5.021,13.717c-0.25,0.713-0.729,1.365-1.441,1.953c-0.715,0.59-1.598,0.883-2.65,0.883h-9.766
			l26.459-67.238h12.74L516.375,133.09z M494.287,107.701l-8.184-22.367c-0.404-0.99-0.822-2.168-1.256-3.533
			c-0.434-1.363-0.867-2.836-1.301-4.418c-0.404,1.582-0.822,3.062-1.256,4.441c-0.436,1.379-0.854,2.58-1.256,3.604l-8.139,22.273
			H494.287z"/>
		<path fill="#182945" d="M563.758,76.127h-20.273v56.963h-12.508V76.127h-20.275V65.852h53.057V76.127z"/>
		<path fill="#182945" d="M585.146,75.803v18.646h23.529v9.625h-23.529v19.02H615v9.996h-42.408V65.852H615v9.951H585.146z"/>
	</g>
</g>
</svg>
